<?xml version="1.0" encoding="UTF-8" standalone="no"?>
<svg
   viewBox="0 0 1024 1024"
   fill="none"
   version="1.1"
   id="svg304"
   sodipodi:docname="NUMPAD KEYBOARD.svg"
   inkscape:version="1.2.2 (b0a84865, 2022-12-01)"
   xml:space="preserve"
   xmlns:inkscape="http://www.inkscape.org/namespaces/inkscape"
   xmlns:sodipodi="http://sodipodi.sourceforge.net/DTD/sodipodi-0.dtd"
   xmlns="http://www.w3.org/2000/svg"
   xmlns:svg="http://www.w3.org/2000/svg"
   xmlns:rdf="http://www.w3.org/1999/02/22-rdf-syntax-ns#"
   xmlns:cc="http://creativecommons.org/ns#"
   xmlns:dc="http://purl.org/dc/elements/1.1/"><title
     id="title1030">Numpad Keyboard</title><sodipodi:namedview
     id="namedview306"
     pagecolor="#ffffff"
     bordercolor="#111111"
     borderopacity="1"
     inkscape:showpageshadow="0"
     inkscape:pageopacity="0"
     inkscape:pagecheckerboard="1"
     inkscape:deskcolor="#d1d1d1"
     showgrid="false"
     inkscape:zoom="0.23046875"
     inkscape:cx="-141.01695"
     inkscape:cy="414.37288"
     inkscape:window-width="1390"
     inkscape:window-height="1205"
     inkscape:window-x="538"
     inkscape:window-y="25"
     inkscape:window-maximized="0"
     inkscape:current-layer="svg304" /><g
     clip-path="url(#clip2_0_1)"
     id="g256"
     transform="translate(-2176)"><rect
       x="2176"
       width="1024"
       height="1024"
       rx="32"
       fill="#0f0f0f"
       id="rect182"
       y="0" /><rect
       x="2304"
       width="896"
       height="896"
       rx="204"
       fill="#0059c1"
       id="rect184"
       y="0" /><path
       d="m 2938,346 -64,-64"
       stroke="#8cc2ff"
       stroke-width="32"
       stroke-linecap="round"
       id="path186" /><path
       d="M 2650,442.002 2746,538"
       stroke="#8cc2ff"
       stroke-width="32"
       stroke-linecap="round"
       id="path188" /><path
       d="m 2586,506 94,94"
       stroke="#8cc2ff"
       stroke-width="32"
       stroke-linecap="round"
       id="path190" /><path
       d="M 2522,442 V 570"
       stroke="#8cc2ff"
       stroke-width="32"
       stroke-linecap="round"
       id="path192" /><path
       d="m 2586,442 v 64"
       stroke="#8cc2ff"
       stroke-width="32"
       stroke-linecap="round"
       id="path194" /><path
       d="m 2746,698 h -96"
       stroke="#8cc2ff"
       stroke-width="32"
       stroke-linecap="round"
       id="path196" /><path
       d="M 3034,538 V 698"
       stroke="#8cc2ff"
       stroke-width="32"
       stroke-linecap="round"
       id="path198" /><path
       d="M 2650,698 2522,570"
       stroke="#8cc2ff"
       stroke-width="32"
       stroke-linecap="round"
       id="path200" /><circle
       cx="2680"
       cy="600"
       r="27"
       fill="#0f5eb9"
       stroke="#8cc2ff"
       stroke-width="18"
       id="circle202" /><path
       d="m 2746,346 47,47"
       stroke="#8cc2ff"
       stroke-width="32"
       stroke-linecap="round"
       id="path204" /><path
       d="m 2746,282 h 128"
       stroke="#8cc2ff"
       stroke-width="32"
       stroke-linecap="round"
       id="path206" /><path
       d="m 2746,218 h 224"
       stroke="#8cc2ff"
       stroke-width="32"
       stroke-linecap="round"
       id="path208" /><circle
       cx="2792"
       cy="394"
       r="27"
       fill="#0f5eb9"
       stroke="#8cc2ff"
       stroke-width="18"
       id="circle210" /><circle
       cx="2938"
       cy="346"
       r="27"
       fill="#0f5eb9"
       stroke="#8cc2ff"
       stroke-width="18"
       id="circle212" /><circle
       cx="2970"
       cy="218"
       r="27"
       fill="#0f5eb9"
       stroke="#8cc2ff"
       stroke-width="18"
       id="circle214" /><path
       d="M 2650,442.002 V 122"
       stroke="#8cc2ff"
       stroke-width="32"
       stroke-linecap="round"
       id="path216" /><path
       d="M 2586,442.002 V 122"
       stroke="#8cc2ff"
       stroke-width="32"
       stroke-linecap="round"
       id="path218" /><path
       d="M 2522,442.002 V 122"
       stroke="#8cc2ff"
       stroke-width="32"
       stroke-linecap="round"
       id="path220" /><path
       d="m 2426,346.001 h 320"
       stroke="#8cc2ff"
       stroke-width="32"
       stroke-linecap="round"
       id="path222" /><path
       d="m 2426,282.001 h 320"
       stroke="#8cc2ff"
       stroke-width="32"
       stroke-linecap="round"
       id="path224" /><path
       d="m 2426,218.001 h 320"
       stroke="#8cc2ff"
       stroke-width="32"
       stroke-linecap="round"
       id="path226" /><rect
       x="2458"
       y="154"
       width="256"
       height="256"
       rx="16"
       fill="#0f0f0f"
       id="rect228" /><path
       d="M 2842,537.882 2909.88,470"
       stroke="#0f0f0f"
       stroke-width="32"
       stroke-linecap="round"
       id="path230" /><path
       d="m 2938,538 h 96"
       stroke="#0f0f0f"
       stroke-width="32"
       stroke-linecap="round"
       id="path232" /><path
       d="m 2746,538 h 96"
       stroke="#0f0f0f"
       stroke-width="32"
       stroke-linecap="round"
       id="path234" /><circle
       cx="2938"
       cy="538"
       r="24"
       fill="#0f0f0f"
       id="circle236" /><circle
       cx="2842"
       cy="538"
       r="24"
       fill="#0f0f0f"
       id="circle238" /><path
       d="m 2746,698 h 88"
       stroke="#0f0f0f"
       stroke-width="32"
       stroke-linecap="round"
       id="path240" /><path
       d="m 2962,698 h 72"
       stroke="#0f0f0f"
       stroke-width="32"
       stroke-linecap="round"
       id="path242" /><path
       d="M 2962,634 V 762"
       stroke="#0f0f0f"
       stroke-width="32"
       stroke-linecap="round"
       id="path244" /><path
       d="m 2965,700.232 -125.25,72.313 c -1.33,0.77 -3,-0.192 -3,-1.732 V 626.187 c 0,-1.54 1.67,-2.502 3,-1.732 L 2965,696.768 c 1.33,0.77 1.33,2.694 0,3.464 z"
       stroke="#0f0f0f"
       stroke-width="28"
       id="path246" /><path
       d="M 2198,117.188 V 102.75 l 49.08,-28.2188 H 2198 V 61.0781 h 69.09 v 15.1407 l -48.23,27.5152 h 48.23 v 13.454 z m 26.62,54.374 h 42.47 v 14.672 h -42.47 c -7.34,0 -13.06,-1.14 -17.15,-3.422 -7.5,-4.25 -11.25,-12.359 -11.25,-24.328 0,-11.968 3.75,-20.093 11.25,-24.375 4.09,-2.281 9.81,-3.421 17.15,-3.421 h 42.47 v 14.671 h -42.47 c -4.74,0 -8.21,0.563 -10.4,1.688 -3.88,1.75 -5.81,5.562 -5.81,11.437 0,5.844 1.93,9.641 5.81,11.391 2.19,1.125 5.66,1.687 10.4,1.687 z M 2198,213.281 v -13.453 h 69.09 v 21 l -54.32,12.563 54.32,12.468 v 20.766 H 2198 v -13.453 h 46.73 c 1.35,0 3.22,0.016 5.63,0.047 2.44,0.031 4.31,0.047 5.62,0.047 L 2198,240.188 v -14.016 l 57.98,-12.984 c -1.31,0 -3.18,0.015 -5.62,0.046 -2.41,0.032 -4.28,0.047 -5.63,0.047 z m 24.84,96.094 V 294.703 H 2198 v -14.344 h 69.09 v 30.094 c 0,6.938 -1.78,12.469 -5.34,16.594 -3.56,4.125 -9.08,6.187 -16.55,6.187 -8.15,0 -13.92,-2.062 -17.29,-6.187 -3.38,-4.125 -5.07,-10.016 -5.07,-17.672 z m 14.39,6.75 c 1.66,1.875 4.29,2.813 7.88,2.813 3.59,0 6.16,-0.954 7.69,-2.86 1.53,-1.875 2.29,-4.516 2.29,-7.922 v -13.453 h -20.34 v 13.453 c 0,3.406 0.83,6.063 2.48,7.969 z m -25.03,61.266 v -25.453 l -14.2,-4.782 v -15.094 l 69.09,24.657 v 16.312 L 2198,397.5 v -15.656 z m 11.91,-4.032 27.19,-8.625 -27.19,-8.906 z M 2198,436.078 v -29.766 h 69.09 v 29.766 c -0.06,4.281 -0.56,7.844 -1.5,10.688 -1.59,4.843 -4.51,8.765 -8.76,11.765 -3.44,2.407 -7.16,4.047 -11.16,4.922 -4,0.875 -7.81,1.313 -11.44,1.313 -9.18,0 -16.96,-1.844 -23.34,-5.532 -8.59,-5 -12.89,-12.718 -12.89,-23.156 z m 51.47,10.734 c 3.75,-2.218 5.62,-6.609 5.62,-13.171 V 420.328 H 2210 v 13.313 c 0,6.812 3.36,11.562 10.08,14.25 3.69,1.468 8.08,2.203 13.17,2.203 7.03,0 12.44,-1.094 16.22,-3.282 z M 2198,563.625 v -18.563 l 30.19,-21.328 -7.08,-6.89 H 2198 v -14.203 h 69.09 v 14.203 h -28.45 l 28.45,26.672 v 18.656 l -28.45,-28.313 z m 30.19,56.25 v -33.563 h -17.77 v 38.25 H 2198 v -52.359 h 69.09 v 50.672 h -12.23 v -36.563 h -14.67 v 33.563 z m 38.9,71.719 -43.12,-23.11 H 2198 v -14.437 h 25.97 l 43.12,-23.906 v 17.015 L 2237,661.5 l 30.09,13.734 z m -44.25,37.594 V 714.516 H 2198 v -14.344 h 69.09 v 30.094 c 0,6.937 -1.78,12.468 -5.34,16.593 -3.56,4.125 -9.08,6.188 -16.55,6.188 -8.15,0 -13.92,-2.063 -17.29,-6.188 -3.38,-4.125 -5.07,-10.015 -5.07,-17.671 z m 14.39,6.75 c 1.66,1.874 4.29,2.812 7.88,2.812 3.59,0 6.16,-0.953 7.69,-2.859 1.53,-1.875 2.29,-4.516 2.29,-7.922 v -13.453 h -20.34 v 13.453 c 0,3.406 0.83,6.062 2.48,7.969 z m -25.03,61.265 V 771.75 l -14.2,-4.781 v -15.094 l 69.09,24.656 v 16.313 L 2198,817.312 v -15.656 z m 11.91,-4.031 27.19,-8.625 -27.19,-8.906 z M 2198,855.891 v -29.766 h 69.09 v 29.766 c -0.06,4.281 -0.56,7.843 -1.5,10.687 -1.59,4.844 -4.51,8.766 -8.76,11.766 -3.44,2.406 -7.16,4.047 -11.16,4.922 -4,0.875 -7.81,1.312 -11.44,1.312 -9.18,0 -16.96,-1.844 -23.34,-5.531 -8.59,-5 -12.89,-12.719 -12.89,-23.156 z m 51.47,10.734 c 3.75,-2.219 5.62,-6.609 5.62,-13.172 V 840.141 H 2210 v 13.312 c 0,6.813 3.36,11.563 10.08,14.25 3.69,1.469 8.08,2.203 13.17,2.203 7.03,0 12.44,-1.094 16.22,-3.281 z"
       fill="#f0f0f0"
       id="path248" /><path
       d="m 2476,904 c -4.42,0 -8,3.582 -8,8 0,4.418 3.58,8 8,8 z m 724,0 h -724 v 16 h 724 z"
       fill="#f0f0f0"
       id="path250" /><path
       d="m 2280,846 c 0,4.418 3.58,8 8,8 4.42,0 8,-3.582 8,-8 z M 2280,-3.49691e-7 V 846 h 16 V 3.49691e-7 Z"
       fill="#f0f0f0"
       id="path252" /><path
       d="m 2798.49,963 h -13.64 v -31.668 h 13.64 c 1.96,0.029 3.6,0.258 4.9,0.688 2.22,0.73 4.02,2.069 5.39,4.017 1.1,1.576 1.86,3.28 2.26,5.113 0.4,1.834 0.6,3.581 0.6,5.243 0,4.211 -0.85,7.777 -2.54,10.699 -2.29,3.939 -5.83,5.908 -10.61,5.908 z m 4.92,-23.59 c -1.02,-1.719 -3.03,-2.578 -6.04,-2.578 h -6.1 V 957.5 h 6.1 c 3.13,0 5.3,-1.54 6.53,-4.619 0.68,-1.69 1.01,-3.703 1.01,-6.037 0,-3.223 -0.5,-5.701 -1.5,-7.434 z m 32.27,3.137 c 1.98,2.478 2.96,5.407 2.96,8.787 0,3.437 -0.98,6.381 -2.96,8.83 -1.98,2.435 -4.98,3.652 -9,3.652 -4.03,0 -7.03,-1.217 -9,-3.652 -1.98,-2.449 -2.97,-5.393 -2.97,-8.83 0,-3.38 0.99,-6.309 2.97,-8.787 1.97,-2.478 4.97,-3.717 9,-3.717 4.02,0 7.02,1.239 9,3.717 z m -9.02,1.461 c -1.79,0 -3.18,0.637 -4.15,1.912 -0.96,1.26 -1.44,3.065 -1.44,5.414 0,2.349 0.48,4.161 1.44,5.436 0.97,1.274 2.36,1.912 4.15,1.912 1.79,0 3.16,-0.638 4.12,-1.912 0.96,-1.275 1.44,-3.087 1.44,-5.436 0,-2.349 -0.48,-4.154 -1.44,-5.414 -0.96,-1.275 -2.33,-1.912 -4.12,-1.912 z m 31.41,15.683 c -0.06,0.072 -0.2,0.287 -0.43,0.645 -0.23,0.358 -0.5,0.673 -0.82,0.945 -0.96,0.86 -1.89,1.447 -2.79,1.762 -0.89,0.315 -1.94,0.473 -3.14,0.473 -3.47,0 -5.8,-1.246 -7,-3.739 -0.68,-1.375 -1.01,-3.401 -1.01,-6.08 v -14.115 h 6.27 v 14.115 c 0,1.332 0.16,2.335 0.47,3.008 0.56,1.189 1.66,1.783 3.29,1.783 2.09,0 3.52,-0.845 4.3,-2.535 0.4,-0.917 0.6,-2.127 0.6,-3.631 v -12.74 h 6.21 V 963 h -5.95 z m 24.6,3.932 c -1.94,0 -3.49,-0.387 -4.67,-1.16 -0.7,-0.458 -1.46,-1.261 -2.27,-2.406 V 963 h -6 v -31.625 h 6.1 v 11.258 c 0.78,-1.089 1.63,-1.919 2.56,-2.492 1.1,-0.717 2.51,-1.075 4.21,-1.075 3.08,0 5.49,1.11 7.22,3.33 1.75,2.221 2.62,5.085 2.62,8.594 0,3.638 -0.86,6.653 -2.58,9.045 -1.72,2.392 -4.11,3.588 -7.19,3.588 z m 3.35,-11.988 c 0,-1.662 -0.22,-3.037 -0.65,-4.125 -0.81,-2.063 -2.32,-3.094 -4.51,-3.094 -2.22,0 -3.74,1.01 -4.57,3.029 -0.43,1.075 -0.65,2.464 -0.65,4.168 0,2.005 0.44,3.667 1.33,4.985 0.89,1.317 2.24,1.976 4.06,1.976 1.58,0 2.8,-0.637 3.68,-1.912 0.87,-1.275 1.31,-2.95 1.31,-5.027 z m 10.95,-20.303 h 6.13 V 963 h -6.13 z m 32.17,24.793 c -0.16,1.389 -0.88,2.8 -2.17,4.232 -2.01,2.278 -4.82,3.416 -8.43,3.416 -2.97,0 -5.6,-0.959 -7.88,-2.878 -2.28,-1.92 -3.42,-5.042 -3.42,-9.368 0,-4.053 1.03,-7.161 3.08,-9.324 2.06,-2.163 4.73,-3.244 8.01,-3.244 1.95,0 3.7,0.365 5.26,1.096 1.56,0.73 2.85,1.883 3.87,3.459 0.92,1.389 1.51,3 1.78,4.834 0.16,1.074 0.23,2.621 0.2,4.64 h -16.03 c 0.09,2.349 0.82,3.996 2.21,4.942 0.85,0.587 1.87,0.881 3.05,0.881 1.26,0 2.29,-0.359 3.08,-1.075 0.43,-0.386 0.81,-0.924 1.13,-1.611 z m -6.06,-7.176 c -0.1,-1.618 -0.6,-2.843 -1.48,-3.674 -0.88,-0.845 -1.97,-1.267 -3.27,-1.267 -1.42,0 -2.52,0.444 -3.31,1.332 -0.77,0.888 -1.26,2.091 -1.46,3.609 z M 2959.97,963 h -13.65 v -31.668 h 13.65 c 1.96,0.029 3.59,0.258 4.9,0.688 2.22,0.73 4.01,2.069 5.39,4.017 1.1,1.576 1.85,3.28 2.25,5.113 0.4,1.834 0.61,3.581 0.61,5.243 0,4.211 -0.85,7.777 -2.54,10.699 -2.29,3.939 -5.83,5.908 -10.61,5.908 z m 4.92,-23.59 c -1.02,-1.719 -3.03,-2.578 -6.04,-2.578 h -6.1 V 957.5 h 6.1 c 3.12,0 5.3,-1.54 6.53,-4.619 0.67,-1.69 1.01,-3.703 1.01,-6.037 0,-3.223 -0.5,-5.701 -1.5,-7.434 z m 19.03,0.172 V 963 h -6.21 v -23.418 z m 0,-8.443 v 5.65 h -6.21 v -5.65 z m 12.57,35.965 c 0.66,0.558 1.77,0.837 3.33,0.837 2.21,0 3.68,-0.737 4.43,-2.212 0.48,-0.946 0.73,-2.536 0.73,-4.77 v -1.504 c -0.59,1.003 -1.22,1.755 -1.89,2.256 -1.22,0.931 -2.8,1.396 -4.75,1.396 -3.01,0 -5.42,-1.052 -7.22,-3.158 -1.79,-2.12 -2.69,-4.984 -2.69,-8.594 0,-3.48 0.87,-6.402 2.6,-8.765 1.74,-2.378 4.19,-3.567 7.37,-3.567 1.18,0 2.2,0.179 3.07,0.538 1.49,0.615 2.7,1.747 3.61,3.394 v -3.373 h 5.96 v 22.215 c 0,3.022 -0.51,5.299 -1.53,6.832 -1.75,2.635 -5.1,3.953 -10.05,3.953 -3,0 -5.44,-0.587 -7.33,-1.762 -1.89,-1.174 -2.94,-2.929 -3.14,-5.263 h 6.66 c 0.17,0.716 0.45,1.231 0.84,1.547 z m -1.03,-12.096 c 0.83,1.976 2.32,2.965 4.47,2.965 1.43,0 2.64,-0.537 3.63,-1.612 0.99,-1.088 1.48,-2.814 1.48,-5.177 0,-2.22 -0.47,-3.911 -1.42,-5.071 -0.93,-1.16 -2.18,-1.74 -3.76,-1.74 -2.15,0 -3.63,1.01 -4.44,3.029 -0.43,1.075 -0.65,2.399 -0.65,3.975 0,1.361 0.23,2.571 0.69,3.631 z m 27.61,-15.426 V 963 h -6.21 v -23.418 z m 0,-8.443 v 5.65 h -6.21 v -5.65 z m 16.67,27.5 v 4.576 l -2.9,0.107 c -2.9,0.101 -4.87,-0.401 -5.93,-1.504 -0.69,-0.701 -1.03,-1.783 -1.03,-3.244 v -14.416 h -3.27 v -4.361 h 3.27 v -6.531 h 6.06 v 6.531 h 3.8 v 4.361 h -3.8 v 12.375 c 0,0.96 0.12,1.561 0.36,1.805 0.24,0.229 0.99,0.344 2.24,0.344 0.18,0 0.37,0 0.58,0 0.21,-0.015 0.42,-0.029 0.62,-0.043 z m 28.16,-0.215 c 1.57,0 2.83,-0.172 3.81,-0.516 1.84,-0.659 2.77,-1.883 2.77,-3.674 0,-1.045 -0.46,-1.854 -1.38,-2.427 -0.91,-0.559 -2.35,-1.053 -4.31,-1.483 l -3.36,-0.752 c -3.29,-0.745 -5.57,-1.554 -6.83,-2.427 -2.13,-1.461 -3.2,-3.746 -3.2,-6.854 0,-2.836 1.03,-5.192 3.09,-7.068 2.07,-1.877 5.1,-2.815 9.09,-2.815 3.34,0 6.18,0.888 8.53,2.664 2.36,1.762 3.6,4.326 3.72,7.692 h -6.36 c -0.12,-1.905 -0.95,-3.259 -2.49,-4.061 -1.03,-0.53 -2.32,-0.795 -3.85,-0.795 -1.7,0 -3.06,0.344 -4.08,1.031 -1.02,0.688 -1.53,1.648 -1.53,2.879 0,1.132 0.5,1.977 1.51,2.536 0.64,0.372 2.02,0.809 4.12,1.31 l 5.46,1.311 c 2.39,0.573 4.2,1.339 5.41,2.298 1.89,1.49 2.84,3.646 2.84,6.467 0,2.893 -1.11,5.3 -3.33,7.219 -2.21,1.905 -5.33,2.857 -9.37,2.857 -4.12,0 -7.37,-0.938 -9.73,-2.814 -2.36,-1.891 -3.55,-4.483 -3.55,-7.777 h 6.32 c 0.2,1.446 0.6,2.528 1.18,3.244 1.08,1.303 2.92,1.955 5.52,1.955 z m 28.08,0.215 v 4.576 l -2.9,0.107 c -2.89,0.101 -4.87,-0.401 -5.93,-1.504 -0.68,-0.701 -1.03,-1.783 -1.03,-3.244 v -14.416 h -3.26 v -4.361 h 3.26 v -6.531 h 6.06 v 6.531 h 3.8 v 4.361 h -3.8 v 12.375 c 0,0.96 0.12,1.561 0.37,1.805 0.24,0.229 0.99,0.344 2.23,0.344 0.19,0 0.38,0 0.58,0 0.22,-0.015 0.42,-0.029 0.62,-0.043 z m 18.95,1.052 c -0.05,0.072 -0.2,0.287 -0.43,0.645 -0.23,0.358 -0.5,0.673 -0.81,0.945 -0.96,0.86 -1.89,1.447 -2.8,1.762 -0.88,0.315 -1.93,0.473 -3.13,0.473 -3.47,0 -5.8,-1.246 -7.01,-3.739 -0.67,-1.375 -1.01,-3.401 -1.01,-6.08 v -14.115 h 6.28 v 14.115 c 0,1.332 0.16,2.335 0.47,3.008 0.56,1.189 1.65,1.783 3.29,1.783 2.09,0 3.52,-0.845 4.29,-2.535 0.41,-0.917 0.61,-2.127 0.61,-3.631 v -12.74 h 6.2 V 963 h -5.95 z m 33.2,-28.316 V 963 h -5.95 v -3.244 c -0.88,1.389 -1.87,2.399 -2.99,3.029 -1.12,0.63 -2.51,0.945 -4.17,0.945 -2.73,0 -5.04,-1.102 -6.92,-3.308 -1.86,-2.22 -2.79,-5.063 -2.79,-8.529 0,-3.997 0.92,-7.14 2.75,-9.432 1.85,-2.292 4.31,-3.438 7.39,-3.438 1.42,0 2.68,0.316 3.78,0.946 1.11,0.616 2,1.475 2.69,2.578 v -11.172 z m -16.5,20.066 c 0,2.163 0.43,3.889 1.29,5.178 0.84,1.304 2.13,1.955 3.86,1.955 1.74,0 3.05,-0.644 3.96,-1.933 0.9,-1.289 1.35,-2.958 1.35,-5.006 0,-2.865 -0.72,-4.913 -2.17,-6.145 -0.89,-0.745 -1.92,-1.117 -3.09,-1.117 -1.79,0 -3.11,0.68 -3.96,2.041 -0.83,1.346 -1.24,3.022 -1.24,5.027 z m 28.38,-11.859 V 963 h -6.21 v -23.418 z m 0,-8.443 v 5.65 h -6.21 v -5.65 z m 25.48,11.408 c 1.97,2.478 2.96,5.407 2.96,8.787 0,3.437 -0.99,6.381 -2.96,8.83 -1.98,2.435 -4.98,3.652 -9,3.652 -4.03,0 -7.03,-1.217 -9.01,-3.652 -1.97,-2.449 -2.96,-5.393 -2.96,-8.83 0,-3.38 0.99,-6.309 2.96,-8.787 1.98,-2.478 4.98,-3.717 9.01,-3.717 4.02,0 7.02,1.239 9,3.717 z m -9.03,1.461 c -1.79,0 -3.17,0.637 -4.14,1.912 -0.96,1.26 -1.44,3.065 -1.44,5.414 0,2.349 0.48,4.161 1.44,5.436 0.97,1.274 2.35,1.912 4.14,1.912 1.8,0 3.17,-0.638 4.13,-1.912 0.96,-1.275 1.44,-3.087 1.44,-5.436 0,-2.349 -0.48,-4.154 -1.44,-5.414 -0.96,-1.275 -2.33,-1.912 -4.13,-1.912 z m -191.59,45.178 c -0.73,-0.874 -1.78,-1.311 -3.14,-1.311 -1.86,0 -3.13,0.695 -3.8,2.084 -0.39,0.802 -0.62,2.077 -0.69,3.824 h -5.95 c 0.1,-2.65 0.58,-4.791 1.44,-6.424 1.63,-3.108 4.53,-4.662 8.7,-4.662 3.29,0 5.92,0.917 7.86,2.75 1.95,1.819 2.92,4.233 2.92,7.241 0,2.305 -0.68,4.354 -2.06,6.144 -0.9,1.188 -2.38,2.518 -4.44,3.978 l -2.45,1.74 c -1.54,1.09 -2.59,1.87 -3.16,2.36 -0.56,0.49 -1.03,1.05 -1.42,1.7 h 13.6 v 5.39 h -21.33 c 0.05,-2.23 0.53,-4.28 1.43,-6.12 0.88,-2.08 2.94,-4.28 6.19,-6.6 2.82,-2.018 4.65,-3.465 5.48,-4.339 1.28,-1.36 1.91,-2.85 1.91,-4.468 0,-1.318 -0.36,-2.414 -1.09,-3.287 z m 21.31,25.584 c -3.97,0 -6.75,-1.39 -8.36,-4.16 -1.59,-2.78 -2.38,-6.74 -2.38,-11.885 0,-5.142 0.79,-9.11 2.38,-11.903 1.61,-2.793 4.39,-4.189 8.36,-4.189 3.97,0 6.75,1.396 8.36,4.189 1.59,2.793 2.38,6.761 2.38,11.903 0,5.145 -0.8,9.105 -2.4,11.885 -1.59,2.77 -4.37,4.16 -8.34,4.16 z m 3.59,-7.84 c 0.56,-1.89 0.84,-4.62 0.84,-8.205 0,-3.753 -0.29,-6.532 -0.86,-8.336 -0.56,-1.805 -1.75,-2.707 -3.57,-2.707 -1.82,0 -3.02,0.902 -3.61,2.707 -0.59,1.804 -0.88,4.583 -0.88,8.336 0,3.585 0.29,6.325 0.88,8.225 0.59,1.89 1.79,2.84 3.61,2.84 1.82,0 3.01,-0.95 3.59,-2.86 z m 24.08,-17.744 c -0.73,-0.874 -1.77,-1.311 -3.14,-1.311 -1.86,0 -3.12,0.695 -3.8,2.084 -0.38,0.802 -0.61,2.077 -0.69,3.824 h -5.95 c 0.1,-2.65 0.58,-4.791 1.44,-6.424 1.64,-3.108 4.54,-4.662 8.7,-4.662 3.3,0 5.92,0.917 7.87,2.75 1.95,1.819 2.92,4.233 2.92,7.241 0,2.305 -0.69,4.354 -2.06,6.144 -0.91,1.188 -2.39,2.518 -4.45,3.978 l -2.45,1.74 c -1.53,1.09 -2.59,1.87 -3.16,2.36 -0.56,0.49 -1.03,1.05 -1.42,1.7 h 13.6 v 5.39 h -21.33 c 0.06,-2.23 0.54,-4.28 1.44,-6.12 0.87,-2.08 2.94,-4.28 6.19,-6.6 2.82,-2.018 4.64,-3.465 5.48,-4.339 1.27,-1.36 1.91,-2.85 1.91,-4.468 0,-1.318 -0.37,-2.414 -1.1,-3.287 z m 17.62,-0.129 c -0.69,0.916 -1.02,2.141 -0.99,3.673 h -5.71 c 0.05,-1.546 0.32,-3.015 0.79,-4.404 0.5,-1.217 1.29,-2.342 2.36,-3.373 0.81,-0.73 1.76,-1.289 2.86,-1.676 1.1,-0.386 2.46,-0.58 4.06,-0.58 2.98,0 5.38,0.774 7.2,2.321 1.83,1.532 2.75,3.595 2.75,6.187 0,1.833 -0.55,3.38 -1.63,4.641 -0.69,0.787 -1.41,1.325 -2.15,1.611 0.56,0 1.36,0.48 2.4,1.439 1.57,1.444 2.35,3.424 2.35,5.934 0,2.63 -0.92,4.95 -2.75,6.96 -1.82,1.99 -4.52,2.98 -8.1,2.98 -4.42,0 -7.48,-1.44 -9.2,-4.31 -0.9,-1.54 -1.4,-3.54 -1.5,-6.02 h 6.01 c 0,1.25 0.2,2.28 0.6,3.09 0.75,1.51 2.1,2.26 4.06,2.26 1.21,0 2.25,-0.41 3.14,-1.23 0.9,-0.83 1.36,-2.02 1.36,-3.56 0,-2.05 -0.84,-3.42 -2.5,-4.11 -0.94,-0.38 -2.43,-0.58 -4.47,-0.58 v -4.378 c 1.99,-0.029 3.38,-0.222 4.17,-0.58 1.36,-0.602 2.04,-1.819 2.04,-3.653 0,-1.189 -0.35,-2.155 -1.05,-2.9 -0.69,-0.745 -1.66,-1.117 -2.92,-1.117 -1.45,0 -2.51,0.458 -3.18,1.375 z m 13.66,24.943 12.27,-32.635 h 5.09 L 3070.18,1014 Z m 26.77,0.77 c -3.97,0 -6.75,-1.39 -8.36,-4.16 -1.58,-2.78 -2.38,-6.74 -2.38,-11.885 0,-5.142 0.8,-9.11 2.38,-11.903 1.61,-2.793 4.39,-4.189 8.36,-4.189 3.97,0 6.76,1.396 8.36,4.189 1.59,2.793 2.38,6.761 2.38,11.903 0,5.145 -0.8,9.105 -2.4,11.885 -1.59,2.77 -4.37,4.16 -8.34,4.16 z m 3.59,-7.84 c 0.56,-1.89 0.84,-4.62 0.84,-8.205 0,-3.753 -0.29,-6.532 -0.86,-8.336 -0.56,-1.805 -1.75,-2.707 -3.57,-2.707 -1.82,0 -3.02,0.902 -3.61,2.707 -0.58,1.804 -0.88,4.583 -0.88,8.336 0,3.585 0.3,6.325 0.88,8.225 0.59,1.89 1.79,2.84 3.61,2.84 1.82,0 3.02,-0.95 3.59,-2.86 z m 12.63,5.11 c -1.79,-1.83 -2.68,-4.06 -2.68,-6.68 0,-1.74 0.39,-3.33 1.18,-4.74 0.8,-1.423 1.97,-2.49 3.5,-3.206 -1.5,-1.003 -2.48,-2.084 -2.94,-3.244 -0.45,-1.175 -0.67,-2.27 -0.67,-3.287 0,-2.263 0.85,-4.19 2.56,-5.779 1.7,-1.605 4.11,-2.407 7.22,-2.407 3.11,0 5.51,0.802 7.22,2.407 1.7,1.589 2.55,3.516 2.55,5.779 0,1.017 -0.23,2.112 -0.68,3.287 -0.45,1.16 -1.42,2.17 -2.93,3.029 1.54,0.86 2.69,1.998 3.46,3.421 0.78,1.41 1.16,3 1.16,4.74 0,2.62 -0.97,4.86 -2.92,6.71 -1.93,1.83 -4.64,2.75 -8.12,2.75 -3.48,0 -6.12,-0.93 -7.91,-2.78 z m 3.68,-7.08 c 0,1.53 0.39,2.72 1.18,3.56 0.8,0.85 1.9,1.27 3.31,1.27 1.4,0 2.5,-0.42 3.28,-1.27 0.81,-0.84 1.21,-2.03 1.21,-3.56 0,-1.59 -0.41,-2.8 -1.23,-3.61 -0.8,-0.84 -1.89,-1.25 -3.26,-1.25 -1.38,0 -2.47,0.41 -3.29,1.25 -0.8,0.81 -1.2,2.02 -1.2,3.61 z m 1.61,-10.618 c 0.69,0.716 1.65,1.074 2.88,1.074 1.24,0 2.2,-0.358 2.88,-1.074 0.68,-0.716 1.03,-1.64 1.03,-2.772 0,-1.231 -0.35,-2.191 -1.03,-2.879 -0.68,-0.701 -1.64,-1.052 -2.88,-1.052 -1.23,0 -2.2,0.351 -2.9,1.052 -0.69,0.688 -1.03,1.648 -1.03,2.879 0,1.132 0.35,2.056 1.05,2.772 z m 12.95,19.658 12.27,-32.635 h 5.09 L 3131.41,1014 Z m 31.31,0 h -6.28 v -21.484 h -7.32 v -4.168 c 1.93,-0.086 3.28,-0.215 4.06,-0.387 1.23,-0.272 2.23,-0.816 3,-1.633 0.53,-0.558 0.94,-1.303 1.21,-2.234 0.16,-0.559 0.23,-0.974 0.23,-1.246 h 5.1 z m 21.29,-20.217 c 2.76,0 5.02,0.938 6.79,2.815 1.77,1.876 2.66,4.272 2.66,7.192 0,2.91 -0.87,5.48 -2.6,7.7 -1.73,2.22 -4.43,3.33 -8.08,3.33 -3.92,0 -6.82,-1.64 -8.68,-4.92 -1.44,-2.57 -2.17,-5.88 -2.17,-9.929 0,-2.378 0.1,-4.311 0.3,-5.801 0.36,-2.65 1.06,-4.856 2.09,-6.617 0.89,-1.504 2.05,-2.714 3.48,-3.631 1.44,-0.917 3.17,-1.375 5.18,-1.375 2.89,0 5.19,0.745 6.91,2.234 1.72,1.476 2.69,3.445 2.9,5.908 h -6.1 c 0,-0.501 -0.19,-1.052 -0.58,-1.654 -0.66,-0.974 -1.65,-1.461 -2.98,-1.461 -1.99,0 -3.41,1.117 -4.26,3.352 -0.46,1.232 -0.77,3.051 -0.94,5.457 0.76,-0.903 1.64,-1.561 2.64,-1.977 1,-0.415 2.15,-0.623 3.44,-0.623 z m -4.13,5.844 c -1.2,0.933 -1.8,2.433 -1.8,4.513 0,1.67 0.45,3.04 1.35,4.1 0.9,1.06 2.05,1.59 3.44,1.59 1.36,0 2.43,-0.51 3.2,-1.52 0.79,-1.03 1.18,-2.37 1.18,-4 0,-1.82 -0.44,-3.21 -1.33,-4.17 -0.89,-0.971 -1.98,-1.458 -3.27,-1.458 -1.04,0 -1.97,0.315 -2.77,0.945 z"
       fill="#f0f0f0"
       id="path254" /></g><defs
     id="defs302"><clipPath
       id="clip0_0_1"><rect
         width="1024"
         height="1024"
         fill="#ffffff"
         id="rect290"
         x="0"
         y="0" /></clipPath><clipPath
       id="clip1_0_1"><rect
         width="1024"
         height="1024"
         fill="#ffffff"
         transform="translate(1088)"
         id="rect293"
         x="0"
         y="0" /></clipPath><clipPath
       id="clip2_0_1"><rect
         width="1024"
         height="1024"
         fill="#ffffff"
         transform="translate(2176)"
         id="rect296"
         x="0"
         y="0" /></clipPath><clipPath
       id="clip3_0_1"><rect
         width="1024"
         height="1024"
         fill="#ffffff"
         transform="translate(3264)"
         id="rect299"
         x="0"
         y="0" /></clipPath></defs><metadata
     id="metadata1028"><rdf:RDF><cc:Work
         rdf:about=""><dc:creator><cc:Agent><dc:title>Alwyn T</dc:title></cc:Agent></dc:creator><dc:rights><cc:Agent><dc:title>Required to disclose source and state changes as per AGPL-3.0 license</dc:title></cc:Agent></dc:rights><dc:language>English</dc:language><dc:title>Numpad Keyboard</dc:title><dc:identifier>Numpad Keyboard SVG</dc:identifier><cc:license
           rdf:resource="https://www.gnu.org/licenses/agpl-3.0.en.html#license-text" /></cc:Work></rdf:RDF></metadata></svg>
