<svg width="896" height="896" viewBox="0 0 896 896" fill="none" xmlns="http://www.w3.org/2000/svg">
<g style="mix-blend-mode:exclusion">
<rect width="896" height="896" rx="204" fill="#8250C8"/>
<path d="M642.132 189.157H253.867C218.128 189.157 189.156 218.129 189.156 253.867V642.133C189.156 677.871 218.128 706.843 253.867 706.843H642.132C677.871 706.843 706.843 677.871 706.843 642.133V253.867C706.843 218.129 677.871 189.157 642.132 189.157Z" fill="#8250C8" stroke="black" stroke-width="44.3731"/>
<path d="M577.422 415.645H318.579C315.005 415.645 312.107 418.542 312.107 422.116V473.884C312.107 477.458 315.005 480.355 318.579 480.355H577.422C580.996 480.355 583.893 477.458 583.893 473.884V422.116C583.893 418.542 580.996 415.645 577.422 415.645Z" fill="black"/>
<path d="M415.645 318.578V577.422C415.645 580.996 418.542 583.893 422.116 583.893H473.884C477.458 583.893 480.355 580.996 480.355 577.422V318.578C480.355 315.004 477.458 312.107 473.884 312.107H422.116C418.542 312.107 415.645 315.004 415.645 318.578Z" fill="black"/>
<path d="M331.634 697.033L320.714 662.714C317.349 652.138 327.983 642.511 338.173 646.906L463.345 700.903C468.555 703.148 468.555 710.538 463.345 712.784L338.173 766.779C327.983 771.179 317.349 761.55 320.714 750.976L331.634 716.654C333.665 710.273 333.665 703.414 331.634 697.033Z" stroke="#8250C8" stroke-width="103.537"/>
<path d="M331.634 697.033L320.714 662.714C317.349 652.138 327.983 642.511 338.173 646.906L463.345 700.903C468.555 703.148 468.555 710.538 463.345 712.784L338.173 766.779C327.983 771.179 317.349 761.55 320.714 750.976L331.634 716.654C333.665 710.273 333.665 703.414 331.634 697.033Z" stroke="black" stroke-width="36.978"/>
</g>
</svg>
