<svg width="1024" height="1024" viewBox="0 0 1024 1024" fill="none" xmlns="http://www.w3.org/2000/svg">
<g clip-path="url(#clip0_604_31)">
<rect width="1024" height="1024" rx="32" fill="#0F0F0F"/>
<g style="mix-blend-mode:exclusion">
<rect x="128" width="896" height="896" rx="204" fill="#8250C8"/>
<path d="M770.132 189.157H381.867C346.128 189.157 317.156 218.129 317.156 253.867V642.133C317.156 677.871 346.128 706.843 381.867 706.843H770.132C805.871 706.843 834.843 677.871 834.843 642.133V253.867C834.843 218.129 805.871 189.157 770.132 189.157Z" fill="#8250C8" stroke="black" stroke-width="44.3731"/>
<path d="M705.422 415.645H446.579C443.005 415.645 440.107 418.542 440.107 422.116V473.884C440.107 477.458 443.005 480.355 446.579 480.355H705.422C708.996 480.355 711.893 477.458 711.893 473.884V422.116C711.893 418.542 708.996 415.645 705.422 415.645Z" fill="black"/>
<path d="M543.645 318.578V577.422C543.645 580.996 546.542 583.893 550.116 583.893H601.884C605.458 583.893 608.355 580.996 608.355 577.422V318.578C608.355 315.004 605.458 312.107 601.884 312.107H550.116C546.542 312.107 543.645 315.004 543.645 318.578Z" fill="black"/>
<path d="M459.634 697.033L448.714 662.714C445.349 652.138 455.983 642.511 466.173 646.906L591.345 700.903C596.555 703.148 596.555 710.538 591.345 712.784L466.173 766.779C455.983 771.179 445.349 761.55 448.714 750.976L459.634 716.654C461.665 710.273 461.665 703.414 459.634 697.033Z" stroke="#8250C8" stroke-width="103.537"/>
<path d="M459.634 697.033L448.714 662.714C445.349 652.138 455.983 642.511 466.173 646.906L591.345 700.903C596.555 703.148 596.555 710.538 591.345 712.784L466.173 766.779C455.983 771.179 445.349 761.55 448.714 750.976L459.634 716.654C461.665 710.273 461.665 703.414 459.634 697.033Z" stroke="black" stroke-width="36.978"/>
</g>
<path d="M22 74.5312V61.0781L91.0938 61.0781V82.0781L36.7656 94.6406L91.0938 107.109V127.875H22V114.422H68.7344C70.0781 114.422 71.9531 114.438 74.3594 114.469C76.7969 114.5 78.6719 114.516 79.9844 114.516L22 101.438V87.4219L79.9844 74.4375C78.6719 74.4375 76.7969 74.4531 74.3594 74.4844C71.9531 74.5156 70.0781 74.5312 68.7344 74.5312H22ZM52.1875 189.375V155.812H34.4219L34.4219 194.062H22L22 141.703H91.0938V192.375H78.8594V155.812H64.1875V189.375H52.1875ZM22 235.078V205.312H91.0938V235.078C91.0313 239.359 90.5313 242.922 89.5938 245.766C88 250.609 85.0781 254.531 80.8281 257.531C77.3906 259.938 73.6719 261.578 69.6719 262.453C65.6719 263.328 61.8594 263.766 58.2344 263.766C49.0469 263.766 41.2656 261.922 34.8906 258.234C26.2969 253.234 22 245.516 22 235.078ZM73.4688 245.812C77.2188 243.594 79.0938 239.203 79.0938 232.641V219.328H34V232.641C34 239.453 37.3594 244.203 44.0781 246.891C47.7656 248.359 52.1563 249.094 57.25 249.094C64.2813 249.094 69.6875 248 73.4688 245.812ZM91.0938 273.562V287.906H22V273.562H91.0938ZM46.8438 330.75V316.078H22V301.734H91.0938V331.828C91.0938 338.766 89.3125 344.297 85.75 348.422C82.1875 352.547 76.6719 354.609 69.2031 354.609C61.0469 354.609 55.2813 352.547 51.9063 348.422C48.5313 344.297 46.8438 338.406 46.8438 330.75ZM61.2344 337.5C62.8906 339.375 65.5156 340.312 69.1094 340.312C72.7031 340.312 75.2656 339.359 76.7969 337.453C78.3281 335.578 79.0938 332.938 79.0938 329.531V316.078H58.75V329.531C58.75 332.938 59.5781 335.594 61.2344 337.5ZM36.2031 398.766V373.312L22 368.531V353.438L91.0938 378.094V394.406L22 418.875V403.219L36.2031 398.766ZM48.1094 394.734L75.2969 386.109L48.1094 377.203V394.734ZM91.0938 470.766H78.8594V450.094H22V435.562H78.8594V414.797H91.0938V470.766ZM22 520.453H52.8438V493.453H22V479.156H91.0938V493.453H64.75V520.453H91.0938V534.797H22V520.453Z" fill="#F0F0F0"/>
<path d="M300 904C295.582 904 292 907.582 292 912C292 916.418 295.582 920 300 920L300 904ZM1024 904L300 904L300 920L1024 920L1024 904Z" fill="#F0F0F0"/>
<path d="M104 846C104 850.418 107.582 854 112 854C116.418 854 120 850.418 120 846L104 846ZM104 -3.49691e-07L104 846L120 846L120 3.49691e-07L104 -3.49691e-07Z" fill="#F0F0F0"/>
<path d="M751.418 949.164H736.035V957.307H753.566V963H729.568V931.332H752.793V936.939H736.035V943.664H751.418V949.164ZM781.066 960.637C778.703 962.799 775.681 963.881 772 963.881C767.445 963.881 763.865 962.42 761.258 959.498C758.651 956.562 757.348 952.537 757.348 947.424C757.348 941.895 758.83 937.634 761.795 934.641C764.373 932.034 767.653 930.73 771.635 930.73C776.963 930.73 780.859 932.478 783.322 935.973C784.683 937.935 785.413 939.904 785.514 941.881H778.896C778.467 940.363 777.915 939.217 777.242 938.443C776.039 937.068 774.256 936.381 771.893 936.381C769.486 936.381 767.589 937.355 766.199 939.303C764.81 941.236 764.115 943.979 764.115 947.531C764.115 951.083 764.846 953.747 766.307 955.523C767.782 957.285 769.651 958.166 771.914 958.166C774.234 958.166 776.003 957.407 777.221 955.889C777.894 955.072 778.452 953.848 778.896 952.215H785.449C784.876 955.667 783.415 958.474 781.066 960.637ZM812.562 949.164H797.18V957.307H814.711V963H790.713V931.332H813.938V936.939H797.18V943.664H812.562V949.164ZM831.812 938.186C831.082 937.312 830.036 936.875 828.676 936.875C826.814 936.875 825.546 937.57 824.873 938.959C824.486 939.761 824.257 941.036 824.186 942.783H818.234C818.335 940.133 818.814 937.992 819.674 936.359C821.307 933.251 824.207 931.697 828.375 931.697C831.669 931.697 834.29 932.614 836.238 934.447C838.186 936.266 839.16 938.68 839.16 941.688C839.16 943.993 838.473 946.042 837.098 947.832C836.195 949.021 834.713 950.346 832.65 951.807L830.201 953.547C828.669 954.635 827.616 955.423 827.043 955.91C826.484 956.397 826.012 956.963 825.625 957.607H839.225V963H817.891C817.948 960.766 818.428 958.725 819.33 956.877C820.204 954.8 822.266 952.602 825.518 950.281C828.339 948.262 830.165 946.815 830.996 945.941C832.271 944.581 832.908 943.091 832.908 941.473C832.908 940.155 832.543 939.059 831.812 938.186ZM852.438 963.902C850.103 963.902 848.005 963.215 846.143 961.84C844.281 960.451 843.214 958.431 842.941 955.781H849.043C849.186 956.698 849.573 957.443 850.203 958.016C850.833 958.589 851.671 958.875 852.717 958.875C854.736 958.875 856.154 957.758 856.971 955.523C857.415 954.292 857.694 952.494 857.809 950.131C857.25 950.833 856.656 951.37 856.025 951.742C854.88 952.43 853.469 952.773 851.793 952.773C849.315 952.773 847.117 951.921 845.197 950.217C843.278 948.498 842.318 946.027 842.318 942.805C842.318 939.467 843.278 936.768 845.197 934.705C847.131 932.628 849.637 931.59 852.717 931.59C857.458 931.59 860.709 933.688 862.471 937.885C863.473 940.262 863.975 943.392 863.975 947.273C863.975 951.04 863.495 954.184 862.535 956.705C860.702 961.503 857.336 963.902 852.438 963.902ZM850.289 937.584C849.115 938.501 848.527 940.055 848.527 942.246C848.527 944.094 848.9 945.483 849.645 946.414C850.404 947.331 851.564 947.789 853.125 947.789C853.97 947.789 854.765 947.546 855.51 947.059C856.899 946.171 857.594 944.631 857.594 942.439C857.594 940.678 857.178 939.281 856.348 938.25C855.531 937.219 854.407 936.703 852.975 936.703C851.929 936.703 851.034 936.997 850.289 937.584ZM884.879 941.859C883.246 944.18 881.878 946.572 880.775 949.035C879.902 950.969 879.114 953.332 878.412 956.125C877.71 958.918 877.359 961.21 877.359 963H871C871.186 957.414 873.02 951.606 876.5 945.576C878.749 941.838 880.632 939.231 882.15 937.756H866.617L866.703 932.256H888.703V937.047C887.786 937.949 886.512 939.553 884.879 941.859ZM928.6 931.332V936.939H919.125V963H912.465V936.939H902.947V931.332H928.6ZM948.773 956.125C948.616 957.514 947.893 958.925 946.604 960.357C944.598 962.635 941.791 963.773 938.182 963.773C935.202 963.773 932.574 962.814 930.297 960.895C928.02 958.975 926.881 955.853 926.881 951.527C926.881 947.474 927.905 944.366 929.953 942.203C932.016 940.04 934.687 938.959 937.967 938.959C939.915 938.959 941.669 939.324 943.23 940.055C944.792 940.785 946.081 941.938 947.098 943.514C948.014 944.903 948.609 946.514 948.881 948.348C949.038 949.422 949.103 950.969 949.074 952.988H933.047C933.133 955.337 933.87 956.984 935.26 957.93C936.105 958.517 937.122 958.811 938.311 958.811C939.571 958.811 940.595 958.452 941.383 957.736C941.812 957.35 942.192 956.812 942.521 956.125H948.773ZM942.715 948.949C942.615 947.331 942.12 946.106 941.232 945.275C940.359 944.43 939.27 944.008 937.967 944.008C936.549 944.008 935.446 944.452 934.658 945.34C933.885 946.228 933.398 947.431 933.197 948.949H942.715ZM954.102 942.117C955.72 940.055 958.499 939.023 962.438 939.023C965.001 939.023 967.279 939.532 969.27 940.549C971.26 941.566 972.256 943.485 972.256 946.307V957.049C972.256 957.794 972.27 958.696 972.299 959.756C972.342 960.558 972.464 961.102 972.664 961.389C972.865 961.675 973.165 961.911 973.566 962.098V963H966.906C966.72 962.527 966.591 962.083 966.52 961.668C966.448 961.253 966.391 960.78 966.348 960.25C965.503 961.167 964.529 961.947 963.426 962.592C962.108 963.351 960.618 963.73 958.957 963.73C956.837 963.73 955.083 963.129 953.693 961.926C952.318 960.708 951.631 958.99 951.631 956.77C951.631 953.891 952.741 951.807 954.961 950.518C956.178 949.816 957.969 949.314 960.332 949.014L962.416 948.756C963.548 948.613 964.357 948.434 964.844 948.219C965.717 947.846 966.154 947.266 966.154 946.479C966.154 945.519 965.818 944.86 965.145 944.502C964.486 944.13 963.512 943.943 962.223 943.943C960.776 943.943 959.752 944.301 959.15 945.018C958.721 945.548 958.434 946.264 958.291 947.166H952.383C952.512 945.118 953.085 943.435 954.102 942.117ZM958.656 958.574C959.229 959.047 959.931 959.283 960.762 959.283C962.079 959.283 963.29 958.896 964.393 958.123C965.51 957.35 966.09 955.939 966.133 953.891V951.613C965.746 951.857 965.352 952.057 964.951 952.215C964.564 952.358 964.027 952.494 963.34 952.623L961.965 952.881C960.676 953.11 959.752 953.389 959.193 953.719C958.248 954.277 957.775 955.144 957.775 956.318C957.775 957.364 958.069 958.116 958.656 958.574ZM990.861 946.027C990.346 944.896 989.336 944.33 987.832 944.33C986.085 944.33 984.91 944.896 984.309 946.027C983.979 946.672 983.814 947.632 983.814 948.906V963H977.605V939.625H983.557V943.041C984.316 941.824 985.032 940.957 985.705 940.441C986.894 939.525 988.434 939.066 990.324 939.066C992.115 939.066 993.561 939.46 994.664 940.248C995.552 940.979 996.225 941.917 996.684 943.062C997.486 941.688 998.481 940.678 999.67 940.033C1000.93 939.389 1002.33 939.066 1003.88 939.066C1004.91 939.066 1005.93 939.267 1006.93 939.668C1007.93 940.069 1008.84 940.771 1009.66 941.773C1010.32 942.59 1010.76 943.592 1010.99 944.781C1011.14 945.569 1011.21 946.722 1011.21 948.24L1011.16 963H1004.89V948.09C1004.89 947.202 1004.75 946.471 1004.46 945.898C1003.92 944.81 1002.91 944.266 1001.45 944.266C999.763 944.266 998.596 944.967 997.951 946.371C997.622 947.116 997.457 948.011 997.457 949.057V963H991.291V949.057C991.291 947.667 991.148 946.658 990.861 946.027ZM808.867 989.186C808.137 988.312 807.091 987.875 805.73 987.875C803.868 987.875 802.601 988.57 801.928 989.959C801.541 990.761 801.312 992.036 801.24 993.783H795.289C795.389 991.133 795.869 988.992 796.729 987.359C798.361 984.251 801.262 982.697 805.43 982.697C808.724 982.697 811.345 983.614 813.293 985.447C815.241 987.266 816.215 989.68 816.215 992.688C816.215 994.993 815.527 997.042 814.152 998.832C813.25 1000.02 811.768 1001.35 809.705 1002.81L807.256 1004.55C805.723 1005.64 804.671 1006.42 804.098 1006.91C803.539 1007.4 803.066 1007.96 802.68 1008.61H816.279V1014H794.945C795.003 1011.77 795.482 1009.72 796.385 1007.88C797.258 1005.8 799.321 1003.6 802.572 1001.28C805.394 999.262 807.22 997.815 808.051 996.941C809.326 995.581 809.963 994.091 809.963 992.473C809.963 991.155 809.598 990.059 808.867 989.186ZM830.18 1014.77C826.212 1014.77 823.426 1013.38 821.822 1010.61C820.232 1007.83 819.438 1003.87 819.438 998.725C819.438 993.583 820.232 989.615 821.822 986.822C823.426 984.029 826.212 982.633 830.18 982.633C834.147 982.633 836.933 984.029 838.537 986.822C840.127 989.615 840.922 993.583 840.922 998.725C840.922 1003.87 840.12 1007.83 838.516 1010.61C836.926 1013.38 834.147 1014.77 830.18 1014.77ZM833.768 1006.93C834.326 1005.04 834.605 1002.31 834.605 998.725C834.605 994.972 834.319 992.193 833.746 990.389C833.188 988.584 831.999 987.682 830.18 987.682C828.361 987.682 827.158 988.584 826.57 990.389C825.983 992.193 825.689 994.972 825.689 998.725C825.689 1002.31 825.983 1005.05 826.57 1006.95C827.158 1008.84 828.361 1009.79 830.18 1009.79C831.999 1009.79 833.195 1008.84 833.768 1006.93ZM857.852 989.186C857.121 988.312 856.076 987.875 854.715 987.875C852.853 987.875 851.585 988.57 850.912 989.959C850.525 990.761 850.296 992.036 850.225 993.783H844.273C844.374 991.133 844.854 988.992 845.713 987.359C847.346 984.251 850.246 982.697 854.414 982.697C857.708 982.697 860.329 983.614 862.277 985.447C864.225 987.266 865.199 989.68 865.199 992.688C865.199 994.993 864.512 997.042 863.137 998.832C862.234 1000.02 860.752 1001.35 858.689 1002.81L856.24 1004.55C854.708 1005.64 853.655 1006.42 853.082 1006.91C852.523 1007.4 852.051 1007.96 851.664 1008.61H865.264V1014H843.93C843.987 1011.77 844.467 1009.72 845.369 1007.88C846.243 1005.8 848.305 1003.6 851.557 1001.28C854.378 999.262 856.204 997.815 857.035 996.941C858.31 995.581 858.947 994.091 858.947 992.473C858.947 991.155 858.582 990.059 857.852 989.186ZM890.057 1002.51V1007.3H886.533V1014H880.539V1007.3H868.207V1001.95L879.658 983.041H886.533V1002.51H890.057ZM872.74 1002.51H880.539V989.057L872.74 1002.51ZM889.133 1014L901.4 981.365H906.492L894.182 1014H889.133ZM915.902 1014.77C911.935 1014.77 909.149 1013.38 907.545 1010.61C905.955 1007.83 905.16 1003.87 905.16 998.725C905.16 993.583 905.955 989.615 907.545 986.822C909.149 984.029 911.935 982.633 915.902 982.633C919.87 982.633 922.656 984.029 924.26 986.822C925.85 989.615 926.645 993.583 926.645 998.725C926.645 1003.87 925.842 1007.83 924.238 1010.61C922.648 1013.38 919.87 1014.77 915.902 1014.77ZM919.49 1006.93C920.049 1005.04 920.328 1002.31 920.328 998.725C920.328 994.972 920.042 992.193 919.469 990.389C918.91 988.584 917.721 987.682 915.902 987.682C914.083 987.682 912.88 988.584 912.293 990.389C911.706 992.193 911.412 994.972 911.412 998.725C911.412 1002.31 911.706 1005.05 912.293 1006.95C912.88 1008.84 914.083 1009.79 915.902 1009.79C917.721 1009.79 918.917 1008.84 919.49 1006.93ZM951.287 1002.51V1007.3H947.764V1014H941.77V1007.3H929.438V1001.95L940.889 983.041H947.764V1002.51H951.287ZM933.971 1002.51H941.77V989.057L933.971 1002.51ZM950.363 1014L962.631 981.365H967.723L955.412 1014H950.363ZM973.438 989.057C972.75 989.973 972.421 991.198 972.449 992.73H966.734C966.792 991.184 967.057 989.715 967.529 988.326C968.031 987.109 968.818 985.984 969.893 984.953C970.695 984.223 971.647 983.664 972.75 983.277C973.853 982.891 975.206 982.697 976.811 982.697C979.79 982.697 982.189 983.471 984.008 985.018C985.841 986.55 986.758 988.613 986.758 991.205C986.758 993.038 986.214 994.585 985.125 995.846C984.438 996.633 983.721 997.171 982.977 997.457C983.535 997.457 984.337 997.937 985.383 998.896C986.944 1000.34 987.725 1002.32 987.725 1004.83C987.725 1007.46 986.808 1009.78 984.975 1011.79C983.156 1013.78 980.456 1014.77 976.875 1014.77C972.464 1014.77 969.398 1013.33 967.68 1010.46C966.777 1008.92 966.276 1006.92 966.176 1004.44H972.191C972.191 1005.69 972.392 1006.72 972.793 1007.53C973.538 1009.04 974.891 1009.79 976.854 1009.79C978.057 1009.79 979.102 1009.38 979.99 1008.56C980.893 1007.73 981.344 1006.54 981.344 1005C981.344 1002.95 980.513 1001.58 978.852 1000.89C977.906 1000.51 976.417 1000.31 974.383 1000.31V995.932C976.374 995.903 977.763 995.71 978.551 995.352C979.911 994.75 980.592 993.533 980.592 991.699C980.592 990.51 980.241 989.544 979.539 988.799C978.852 988.054 977.878 987.682 976.617 987.682C975.171 987.682 974.111 988.14 973.438 989.057ZM1001.62 1014.77C997.658 1014.77 994.872 1013.38 993.268 1010.61C991.678 1007.83 990.883 1003.87 990.883 998.725C990.883 993.583 991.678 989.615 993.268 986.822C994.872 984.029 997.658 982.633 1001.62 982.633C1005.59 982.633 1008.38 984.029 1009.98 986.822C1011.57 989.615 1012.37 993.583 1012.37 998.725C1012.37 1003.87 1011.57 1007.83 1009.96 1010.61C1008.37 1013.38 1005.59 1014.77 1001.62 1014.77ZM1005.21 1006.93C1005.77 1005.04 1006.05 1002.31 1006.05 998.725C1006.05 994.972 1005.76 992.193 1005.19 990.389C1004.63 988.584 1003.44 987.682 1001.62 987.682C999.806 987.682 998.603 988.584 998.016 990.389C997.428 992.193 997.135 994.972 997.135 998.725C997.135 1002.31 997.428 1005.05 998.016 1006.95C998.603 1008.84 999.806 1009.79 1001.62 1009.79C1003.44 1009.79 1004.64 1008.84 1005.21 1006.93Z" fill="#F0F0F0"/>
</g>
<defs>
<clipPath id="clip0_604_31">
<rect width="1024" height="1024" fill="white"/>
</clipPath>
</defs>
</svg>
