<?xml version="1.0" encoding="UTF-8" standalone="no"?>
<svg
   viewBox="0 0 1024 1024"
   fill="none"
   version="1.1"
   id="svg304"
   sodipodi:docname="CIRCLE SERENITY.svg"
   inkscape:version="1.2.2 (b0a84865, 2022-12-01)"
   xmlns:inkscape="http://www.inkscape.org/namespaces/inkscape"
   xmlns:sodipodi="http://sodipodi.sourceforge.net/DTD/sodipodi-0.dtd"
   xmlns="http://www.w3.org/2000/svg"
   xmlns:svg="http://www.w3.org/2000/svg"
   xmlns:rdf="http://www.w3.org/1999/02/22-rdf-syntax-ns#"
   xmlns:cc="http://creativecommons.org/ns#"
   xmlns:dc="http://purl.org/dc/elements/1.1/">
  <title
     id="title523">Circle Serenity</title>
  <sodipodi:namedview
     id="namedview306"
     pagecolor="#ffffff"
     bordercolor="#111111"
     borderopacity="1"
     inkscape:showpageshadow="0"
     inkscape:pageopacity="0"
     inkscape:pagecheckerboard="1"
     inkscape:deskcolor="#d1d1d1"
     showgrid="false"
     inkscape:zoom="0.17588264"
     inkscape:cx="525.91887"
     inkscape:cy="457.69156"
     inkscape:window-width="1390"
     inkscape:window-height="1205"
     inkscape:window-x="0"
     inkscape:window-y="25"
     inkscape:window-maximized="0"
     inkscape:current-layer="svg304" />
  <g
     clip-path="url(#clip0_0_1)"
     id="g158">
    <rect
       width="1024"
       height="1024"
       rx="32"
       fill="#0f0f0f"
       id="rect134"
       x="0"
       y="0" />
    <g
       style="mix-blend-mode:exclusion"
       id="g148">
      <rect
         x="128"
         width="896"
         height="896"
         rx="204"
         fill="#daebf1"
         id="rect136"
         y="0" />
      <circle
         cx="564"
         cy="436"
         r="308"
         fill="#edf8ef"
         stroke="#73c9b3"
         stroke-width="24"
         id="circle138" />
      <circle
         cx="528"
         cy="291"
         r="40"
         fill="#73c9b3"
         stroke="#479cb8"
         stroke-width="16"
         id="circle140" />
      <circle
         cx="439"
         cy="461"
         r="40"
         fill="#73c9b3"
         stroke="#479cb8"
         stroke-width="16"
         id="circle142" />
      <circle
         cx="688"
         cy="388"
         r="40"
         fill="#73c9b3"
         stroke="#479cb8"
         stroke-width="16"
         id="circle144" />
      <circle
         cx="688"
         cy="581"
         r="40"
         fill="#73c9b3"
         stroke="#479cb8"
         stroke-width="16"
         id="circle146" />
    </g>
    <path
       d="m 27.1562,110.062 c -4.7187,-5.156 -7.0781,-11.7495 -7.0781,-19.7808 0,-9.9374 3.1875,-17.75 9.5625,-23.4374 6.4063,-5.6875 15.1875,-8.5313 26.3438,-8.5313 12.0625,0 21.3594,3.2344 27.8906,9.7031 5.6875,5.625 8.5312,12.7813 8.5312,21.4688 0,11.6246 -3.8124,20.1246 -11.4374,25.4996 -4.2813,2.969 -8.5782,4.563 -12.8907,4.782 v -14.438 c 3.3125,-0.937 5.8125,-2.14 7.5,-3.609 3,-2.6252 4.5,-6.5159 4.5,-11.6721 0,-5.25 -2.125,-9.3907 -6.375,-12.4219 C 69.4844,74.5938 63.5,73.0781 55.75,73.0781 c -7.75,0 -13.5625,1.5938 -17.4375,4.7813 -3.8437,3.2187 -5.7656,7.2968 -5.7656,12.2344 0,5.0624 1.6562,8.9218 4.9687,11.5782 1.7813,1.469 4.4532,2.687 8.0156,3.656 v 14.297 C 38,118.375 31.875,115.188 27.1562,110.062 Z m 63.9376,19.5 v 14.344 H 22 v -14.344 z m -42,57.188 V 171.844 H 22 v -14.11 h 69.0938 v 33.891 c -0.0938,4.844 -0.6876,8.563 -1.7813,11.156 -1.0937,2.625 -2.7031,4.844 -4.8281,6.657 -1.75,1.5 -3.6875,2.687 -5.8125,3.562 -2.125,0.875 -4.5469,1.312 -7.2657,1.312 -3.2812,0 -6.5156,-0.828 -9.7031,-2.484 -3.1562,-1.656 -5.3906,-4.39 -6.7031,-8.203 -1.2812,3.187 -3.1094,5.437 -5.4844,6.75 -2.3437,1.344 -5.9375,2.016 -10.7812,2.016 h -4.6406 c -3.1563,0 -5.2969,0.125 -6.4219,0.375 -1.7813,0.375 -3.0938,1.25 -3.9375,2.625 H 22 V 199.5 c 1.5313,-0.438 2.7656,-0.75 3.7031,-0.938 1.9375,-0.374 3.9219,-0.578 5.9532,-0.609 l 6.4218,-0.094 c 4.4063,-0.062 7.3438,-0.875 8.8125,-2.437 1.4688,-1.531 2.2032,-4.422 2.2032,-8.672 z m 12.5625,8.766 c 1.3125,2.875 3.9062,4.312 7.7812,4.312 4.1875,0 7,-1.39 8.4375,-4.172 0.8125,-1.562 1.2188,-3.906 1.2188,-7.031 V 171.844 H 60.5313 v 16.359 c 0,3.25 0.375,5.688 1.125,7.313 z m -34.5,80.015 c -4.7188,-5.156 -7.0782,-11.75 -7.0782,-19.781 0,-9.938 3.1875,-17.75 9.5625,-23.438 6.4063,-5.687 15.1875,-8.531 26.3438,-8.531 12.0625,0 21.3594,3.235 27.8906,9.703 5.6875,5.625 8.5313,12.782 8.5313,21.469 0,11.625 -3.8125,20.125 -11.4375,25.5 -4.2813,2.969 -8.5782,4.563 -12.8907,4.781 v -14.437 c 3.3125,-0.938 5.8125,-2.141 7.5,-3.609 3,-2.626 4.5,-6.516 4.5,-11.672 0,-5.25 -2.125,-9.391 -6.375,-12.422 -4.2187,-3.032 -10.2031,-4.547 -17.9531,-4.547 -7.75,0 -13.5625,1.594 -17.4375,4.781 -3.8437,3.219 -5.7656,7.297 -5.7656,12.234 0,5.063 1.6562,8.922 4.9687,11.579 1.7813,1.468 4.4532,2.687 8.0157,3.656 v 14.297 C 38,283.844 31.875,280.656 27.1563,275.531 Z m 63.9375,20.625 v 14.438 H 34.4219 v 34.218 H 22 V 296.156 Z M 52.1875,402.938 V 369.375 H 34.4219 v 38.25 H 22 v -52.359 h 69.0938 v 50.672 H 78.8594 V 369.375 H 64.1875 v 33.563 z m -20.2031,67.734 c 0,3.406 0.375,6.172 1.125,8.297 1.4375,4.031 4.1094,6.047 8.0156,6.047 2.2813,0 4.0469,-1 5.2969,-3 1.2187,-2 2.2969,-5.141 3.2344,-9.422 l 1.6406,-7.313 c 1.625,-7.187 3.3906,-12.156 5.2969,-14.906 3.1875,-4.656 8.1718,-6.984 14.9531,-6.984 6.1875,0 11.3281,2.25 15.4219,6.75 4.0937,4.5 6.1406,11.109 6.1406,19.828 0,7.281 -1.9375,13.484 -5.8125,18.609 -3.8438,5.156 -9.4375,7.86 -16.7813,8.11 v -13.876 c 4.1563,-0.25 7.1094,-2.062 8.8594,-5.437 1.1563,-2.25 1.7344,-5.047 1.7344,-8.391 0,-3.718 -0.75,-6.687 -2.25,-8.906 -1.5,-2.219 -3.5938,-3.328 -6.2813,-3.328 -2.4687,0 -4.3125,1.094 -5.5312,3.281 -0.8125,1.407 -1.7656,4.407 -2.8594,9 l -2.8594,11.907 c -1.25,5.218 -2.9218,9.156 -5.0156,11.812 -3.25,4.125 -7.9531,6.188 -14.1094,6.188 -6.3125,0 -11.5625,-2.422 -15.75,-7.266 -4.1562,-4.813 -6.2343,-11.625 -6.2343,-20.438 0,-9 2.0468,-16.078 6.1406,-21.234 4.125,-5.156 9.7812,-7.734 16.9687,-7.734 v 13.781 c -3.1562,0.437 -5.5156,1.297 -7.0781,2.578 -2.8437,2.344 -4.2656,6.359 -4.2656,12.047 z m 20.2031,87.047 V 524.156 H 34.4219 v 38.25 H 22 v -52.359 h 69.0938 v 50.672 H 78.8594 V 524.156 H 64.1875 v 33.563 z M 49.0938,603 V 588.094 H 22 v -14.11 h 69.0938 v 33.891 c -0.0938,4.844 -0.6875,8.563 -1.7813,11.156 -1.0937,2.625 -2.7031,4.844 -4.8281,6.657 -1.75,1.5 -3.6875,2.687 -5.8125,3.562 -2.125,0.875 -4.5469,1.312 -7.2656,1.312 -3.2813,0 -6.5157,-0.828 -9.7032,-2.484 -3.1562,-1.656 -5.3906,-4.39 -6.7031,-8.203 -1.2812,3.187 -3.1094,5.437 -5.4844,6.75 -2.3437,1.344 -5.9375,2.016 -10.7812,2.016 h -4.6406 c -3.1563,0 -5.2969,0.125 -6.4219,0.375 -1.7813,0.375 -3.0938,1.25 -3.9375,2.625 H 22 V 615.75 c 1.5313,-0.438 2.7656,-0.75 3.7031,-0.938 1.9375,-0.374 3.9219,-0.578 5.9532,-0.609 l 6.4218,-0.094 c 4.4063,-0.062 7.3438,-0.875 8.8125,-2.437 1.4688,-1.531 2.2032,-4.422 2.2032,-8.672 z m 12.5625,8.766 c 1.3125,2.875 3.9062,4.312 7.7812,4.312 4.1875,0 7,-1.39 8.4375,-4.172 0.8125,-1.562 1.2188,-3.906 1.2188,-7.031 V 588.094 H 60.5313 v 16.359 c 0,3.25 0.375,5.688 1.125,7.313 z m -9.4688,79.359 V 657.562 H 34.4219 v 38.25 H 22 v -52.359 h 69.0938 v 50.672 H 78.8594 V 657.562 H 64.1875 v 33.563 z M 22,762.938 V 748.5 L 71.0781,720.281 H 22 v -13.453 h 69.0938 v 15.141 l -48.2344,27.515 h 48.2344 v 13.454 z m 69.0938,12.374 v 14.344 H 22 v -14.344 z m 0,78.047 H 78.8594 V 832.688 H 22 v -14.532 h 56.8594 v -20.765 h 12.2344 z m 0,64.266 -43.125,-23.109 H 22 v -14.438 h 25.9688 l 43.125,-23.906 v 17.016 L 61,887.531 91.0938,901.266 Z"
       fill="#f0f0f0"
       id="path150" />
    <path
       d="m 300,904 c -4.418,0 -8,3.582 -8,8 0,4.418 3.582,8 8,8 z m 724,0 H 300 v 16 h 724 z"
       fill="#f0f0f0"
       id="path152" />
    <path
       d="m 104,846 c 0,4.418 3.582,8 8,8 4.418,0 8,-3.582 8,-8 z M 104,-3.49691e-7 V 846 h 16 V 3.49691e-7 Z"
       fill="#f0f0f0"
       id="path154" />
    <path
       d="m 866.059,942.117 c 1.618,-2.062 4.397,-3.094 8.336,-3.094 2.563,0 4.841,0.509 6.832,1.526 1.99,1.017 2.986,2.936 2.986,5.758 v 10.742 c 0,0.745 0.014,1.647 0.043,2.707 0.043,0.802 0.165,1.346 0.365,1.633 0.201,0.286 0.501,0.522 0.902,0.709 V 963 h -6.66 c -0.186,-0.473 -0.315,-0.917 -0.386,-1.332 -0.072,-0.415 -0.129,-0.888 -0.172,-1.418 -0.845,0.917 -1.819,1.697 -2.922,2.342 -1.318,0.759 -2.807,1.138 -4.469,1.138 -2.12,0 -3.874,-0.601 -5.264,-1.804 -1.375,-1.218 -2.062,-2.936 -2.062,-5.156 0,-2.879 1.11,-4.963 3.33,-6.252 1.217,-0.702 3.008,-1.204 5.371,-1.504 l 2.084,-0.258 c 1.132,-0.143 1.941,-0.322 2.428,-0.537 0.873,-0.373 1.31,-0.953 1.31,-1.74 0,-0.96 -0.336,-1.619 -1.009,-1.977 -0.659,-0.372 -1.633,-0.559 -2.922,-0.559 -1.447,0 -2.471,0.358 -3.073,1.075 -0.429,0.53 -0.716,1.246 -0.859,2.148 h -5.908 c 0.129,-2.048 0.702,-3.731 1.719,-5.049 z m 4.554,16.457 c 0.573,0.473 1.275,0.709 2.106,0.709 1.317,0 2.528,-0.387 3.631,-1.16 1.117,-0.773 1.697,-2.184 1.74,-4.232 v -2.278 c -0.387,0.244 -0.781,0.444 -1.182,0.602 -0.387,0.143 -0.924,0.279 -1.611,0.408 l -1.375,0.258 c -1.289,0.229 -2.213,0.508 -2.772,0.838 -0.945,0.558 -1.418,1.425 -1.418,2.599 0,1.046 0.294,1.798 0.881,2.256 z m 19.186,-27.242 h 6.123 V 963 h -6.123 z M 919.684,963 916.01,945.941 912.293,963 h -6.359 l -6.575,-23.418 h 6.575 l 3.652,16.801 3.373,-16.801 h 6.209 l 3.566,16.865 3.653,-16.865 h 6.381 L 925.979,963 Z m 25.996,-6.145 4.834,-17.273 h 6.509 l -8.035,23.031 c -1.547,4.44 -2.771,7.19 -3.674,8.25 -0.902,1.075 -2.707,1.612 -5.414,1.612 -0.544,0 -0.981,-0.008 -1.31,-0.022 -0.33,0 -0.824,-0.021 -1.483,-0.064 v -4.899 l 0.774,0.043 c 0.601,0.029 1.174,0.007 1.719,-0.064 0.544,-0.072 1.002,-0.237 1.375,-0.494 0.358,-0.244 0.687,-0.752 0.988,-1.526 0.315,-0.773 0.444,-1.246 0.387,-1.418 l -8.594,-24.449 h 6.81 z m 25.996,-12.74 c -2.077,0 -3.502,0.881 -4.276,2.643 -0.401,0.931 -0.601,2.12 -0.601,3.566 V 963 h -6.102 v -23.375 h 5.908 v 3.416 c 0.788,-1.203 1.533,-2.07 2.235,-2.6 1.26,-0.945 2.857,-1.418 4.791,-1.418 2.42,0 4.397,0.638 5.93,1.913 1.546,1.26 2.32,3.358 2.32,6.294 V 963 h -6.274 v -14.244 c 0,-1.232 -0.164,-2.177 -0.494,-2.836 -0.601,-1.203 -1.747,-1.805 -3.437,-1.805 z m 14.029,3.717 h 12.332 v 5.801 h -12.332 z m 27.225,10.807 v 4.576 l -2.9,0.107 c -2.9,0.101 -4.87,-0.401 -5.93,-1.504 -0.69,-0.701 -1.04,-1.783 -1.04,-3.244 v -14.416 h -3.261 v -4.361 h 3.261 v -6.531 h 6.06 v 6.531 h 3.81 v 4.361 h -3.81 v 12.375 c 0,0.96 0.12,1.561 0.37,1.805 0.24,0.229 0.99,0.344 2.23,0.344 0.19,0 0.38,0 0.58,0 0.22,-0.015 0.43,-0.029 0.63,-0.043 z m -204.063,30.547 c -0.73,-0.874 -1.776,-1.311 -3.137,-1.311 -1.862,0 -3.129,0.695 -3.802,2.084 -0.387,0.802 -0.616,2.077 -0.688,3.824 h -5.951 c 0.1,-2.65 0.58,-4.791 1.44,-6.424 1.632,-3.108 4.533,-4.662 8.701,-4.662 3.294,0 5.915,0.917 7.863,2.75 1.948,1.819 2.922,4.233 2.922,7.241 0,2.305 -0.688,4.354 -2.063,6.144 -0.902,1.188 -2.384,2.518 -4.447,3.978 l -2.449,1.74 c -1.533,1.09 -2.585,1.87 -3.158,2.36 -0.559,0.49 -1.032,1.05 -1.418,1.7 h 13.599 v 5.39 h -21.334 c 0.058,-2.23 0.537,-4.28 1.44,-6.12 0.873,-2.08 2.936,-4.28 6.187,-6.6 2.822,-2.018 4.648,-3.465 5.479,-4.339 1.275,-1.36 1.912,-2.85 1.912,-4.468 0,-1.318 -0.365,-2.414 -1.096,-3.287 z m 21.313,25.584 c -3.968,0 -6.754,-1.39 -8.358,-4.16 -1.59,-2.78 -2.384,-6.74 -2.384,-11.885 0,-5.142 0.794,-9.11 2.384,-11.903 1.604,-2.793 4.39,-4.189 8.358,-4.189 3.967,0 6.753,1.396 8.357,4.189 1.59,2.793 2.385,6.761 2.385,11.903 0,5.145 -0.802,9.105 -2.406,11.885 -1.59,2.77 -4.369,4.16 -8.336,4.16 z m 3.588,-7.84 c 0.558,-1.89 0.837,-4.62 0.837,-8.205 0,-3.753 -0.286,-6.532 -0.859,-8.336 -0.558,-1.805 -1.747,-2.707 -3.566,-2.707 -1.819,0 -3.022,0.902 -3.61,2.707 -0.587,1.804 -0.881,4.583 -0.881,8.336 0,3.585 0.294,6.325 0.881,8.225 0.588,1.89 1.791,2.84 3.61,2.84 1.819,0 3.015,-0.95 3.588,-2.86 z m 24.084,-17.744 c -0.731,-0.874 -1.776,-1.311 -3.137,-1.311 -1.862,0 -3.13,0.695 -3.803,2.084 -0.387,0.802 -0.616,2.077 -0.687,3.824 h -5.952 c 0.101,-2.65 0.581,-4.791 1.44,-6.424 1.633,-3.108 4.533,-4.662 8.701,-4.662 3.294,0 5.915,0.917 7.863,2.75 1.948,1.819 2.922,4.233 2.922,7.241 0,2.305 -0.687,4.354 -2.062,6.144 -0.903,1.188 -2.385,2.518 -4.448,3.978 l -2.449,1.74 c -1.532,1.09 -2.585,1.87 -3.158,2.36 -0.559,0.49 -1.031,1.05 -1.418,1.7 h 13.6 V 1014 H 843.93 c 0.057,-2.23 0.537,-4.28 1.439,-6.12 0.874,-2.08 2.936,-4.28 6.188,-6.6 2.821,-2.018 4.647,-3.465 5.478,-4.339 1.275,-1.36 1.912,-2.85 1.912,-4.468 0,-1.318 -0.365,-2.414 -1.095,-3.287 z m 17.617,-0.129 c -0.688,0.916 -1.017,2.141 -0.989,3.673 h -5.714 c 0.057,-1.546 0.322,-3.015 0.795,-4.404 0.501,-1.217 1.289,-2.342 2.363,-3.373 0.802,-0.73 1.754,-1.289 2.857,-1.676 1.103,-0.386 2.457,-0.58 4.061,-0.58 2.979,0 5.378,0.774 7.197,2.321 1.833,1.532 2.75,3.595 2.75,6.187 0,1.833 -0.544,3.38 -1.633,4.641 -0.687,0.787 -1.403,1.325 -2.148,1.611 0.558,0 1.36,0.48 2.406,1.439 1.561,1.444 2.342,3.424 2.342,5.934 0,2.63 -0.917,4.95 -2.75,6.96 -1.819,1.99 -4.519,2.98 -8.1,2.98 -4.411,0 -7.476,-1.44 -9.195,-4.31 -0.902,-1.54 -1.404,-3.54 -1.504,-6.02 h 6.016 c 0,1.25 0.2,2.28 0.601,3.09 0.745,1.51 2.099,2.26 4.061,2.26 1.203,0 2.248,-0.41 3.136,-1.23 0.903,-0.83 1.354,-2.02 1.354,-3.56 0,-2.05 -0.831,-3.42 -2.492,-4.11 -0.945,-0.38 -2.435,-0.58 -4.469,-0.58 v -4.378 c 1.991,-0.029 3.38,-0.222 4.168,-0.58 1.361,-0.602 2.041,-1.819 2.041,-3.653 0,-1.189 -0.351,-2.155 -1.053,-2.9 -0.687,-0.745 -1.661,-1.117 -2.922,-1.117 -1.446,0 -2.506,0.458 -3.179,1.375 z M 889.133,1014 901.4,981.365 h 5.092 L 894.182,1014 Z m 26.769,0.77 c -3.967,0 -6.753,-1.39 -8.357,-4.16 -1.59,-2.78 -2.385,-6.74 -2.385,-11.885 0,-5.142 0.795,-9.11 2.385,-11.903 1.604,-2.793 4.39,-4.189 8.357,-4.189 3.968,0 6.754,1.396 8.358,4.189 1.59,2.793 2.385,6.761 2.385,11.903 0,5.145 -0.803,9.105 -2.407,11.885 -1.59,2.77 -4.368,4.16 -8.336,4.16 z m 3.588,-7.84 c 0.559,-1.89 0.838,-4.62 0.838,-8.205 0,-3.753 -0.286,-6.532 -0.859,-8.336 -0.559,-1.805 -1.748,-2.707 -3.567,-2.707 -1.819,0 -3.022,0.902 -3.609,2.707 -0.587,1.804 -0.881,4.583 -0.881,8.336 0,3.585 0.294,6.325 0.881,8.225 0.587,1.89 1.79,2.84 3.609,2.84 1.819,0 3.015,-0.95 3.588,-2.86 z m 25.438,7.07 h -6.274 v -21.484 h -7.326 v -4.168 c 1.934,-0.086 3.287,-0.215 4.061,-0.387 1.231,-0.272 2.234,-0.816 3.007,-1.633 0.53,-0.558 0.931,-1.303 1.204,-2.234 0.157,-0.559 0.236,-0.974 0.236,-1.246 h 5.092 z m 5.435,0 12.268,-32.635 h 5.092 L 955.412,1014 Z m 29.949,-24.814 c -0.73,-0.874 -1.776,-1.311 -3.136,-1.311 -1.862,0 -3.13,0.695 -3.803,2.084 -0.387,0.802 -0.616,2.077 -0.687,3.824 h -5.952 c 0.101,-2.65 0.58,-4.791 1.44,-6.424 1.633,-3.108 4.533,-4.662 8.701,-4.662 3.294,0 5.915,0.917 7.863,2.75 1.948,1.819 2.922,4.233 2.922,7.241 0,2.305 -0.687,4.354 -2.062,6.144 -0.903,1.188 -2.385,2.518 -4.448,3.978 l -2.449,1.74 c -1.532,1.09 -2.585,1.87 -3.158,2.36 -0.559,0.49 -1.031,1.05 -1.418,1.7 h 13.6 v 5.39 h -21.334 c 0.057,-2.23 0.537,-4.28 1.439,-6.12 0.874,-2.08 2.936,-4.28 6.188,-6.6 2.821,-2.018 4.647,-3.465 5.478,-4.339 1.275,-1.36 1.912,-2.85 1.912,-4.468 0,-1.318 -0.365,-2.414 -1.096,-3.287 z M 1006.16,1014 h -6.275 v -21.484 h -7.326 v -4.168 c 1.933,-0.086 3.287,-0.215 4.06,-0.387 1.232,-0.272 2.235,-0.816 3.008,-1.633 0.533,-0.558 0.933,-1.303 1.203,-2.234 0.16,-0.559 0.24,-0.974 0.24,-1.246 h 5.09 z"
       fill="#f0f0f0"
       id="path156" />
  </g>
  <defs
     id="defs302">
    <clipPath
       id="clip0_0_1">
      <rect
         width="1024"
         height="1024"
         fill="#ffffff"
         id="rect290"
         x="0"
         y="0" />
    </clipPath>
    <clipPath
       id="clip1_0_1">
      <rect
         width="1024"
         height="1024"
         fill="#ffffff"
         transform="translate(1088)"
         id="rect293"
         x="0"
         y="0" />
    </clipPath>
    <clipPath
       id="clip2_0_1">
      <rect
         width="1024"
         height="1024"
         fill="#ffffff"
         transform="translate(2176)"
         id="rect296"
         x="0"
         y="0" />
    </clipPath>
    <clipPath
       id="clip3_0_1">
      <rect
         width="1024"
         height="1024"
         fill="#ffffff"
         transform="translate(3264)"
         id="rect299"
         x="0"
         y="0" />
    </clipPath>
  </defs>
  <metadata
     id="metadata521">
    <rdf:RDF>
      <cc:Work
         rdf:about="">
        <dc:creator>
          <cc:Agent>
            <dc:title>Alwyn T</dc:title>
          </cc:Agent>
        </dc:creator>
        <dc:rights>
          <cc:Agent>
            <dc:title>Required to disclose source and state changes as per AGPL-3.0 license</dc:title>
          </cc:Agent>
        </dc:rights>
        <dc:language>English</dc:language>
        <dc:title>Circle Serenity</dc:title>
        <dc:date>Dec 28, 2023</dc:date>
        <dc:identifier>Circle Serenity SVG</dc:identifier>
        <cc:license
           rdf:resource="https://www.gnu.org/licenses/agpl-3.0.en.html#license-text" />
      </cc:Work>
    </rdf:RDF>
  </metadata>
</svg>
