<?xml version="1.0" encoding="UTF-8" standalone="no"?>
<svg
   height="40"
   width="40"
   version="1.1"
   id="svg4"
   sodipodi:docname="brightness_5_FILL1_wght400_GRAD0_opsz40.svg"
   xmlns:inkscape="http://www.inkscape.org/namespaces/inkscape"
   xmlns:sodipodi="http://sodipodi.sourceforge.net/DTD/sodipodi-0.dtd"
   xmlns="http://www.w3.org/2000/svg"
   xmlns:svg="http://www.w3.org/2000/svg">
  <defs
     id="defs8" />
  <sodipodi:namedview
     id="namedview6"
     pagecolor="#ffffff"
     bordercolor="#111111"
     borderopacity="1"
     inkscape:showpageshadow="0"
     inkscape:pageopacity="0"
     inkscape:pagecheckerboard="1"
     inkscape:deskcolor="#d1d1d1"
     showgrid="false" />
  <path
     d="m 20.042,38.792 -5.625,-5.459 h -7.75 v -7.75 L 1.125,20 6.667,14.417 v -7.75 h 7.75 l 5.625,-5.542 5.541,5.542 h 7.75 v 7.75 L 38.875,20 33.333,25.583 v 7.75 h -7.75 z m 0,-8.25 q 4.375,0 7.437,-3.084 3.063,-3.083 3.063,-7.5 0,-4.375 -3.063,-7.437 -3.062,-3.063 -7.437,-3.063 -4.417,0 -7.5,3.063 -3.084,3.062 -3.084,7.437 0,4.417 3.084,7.5 3.083,3.084 7.5,3.084 z"
     id="path2"
     style="fill:#000000;fill-opacity:1" />
</svg>
