<?xml version="1.0" encoding="UTF-8" standalone="no"?>
<svg
   height="40"
   width="40"
   version="1.1"
   id="svg4"
   sodipodi:docname="dark_mode_FILL1_wght400_GRAD0_opsz40.svg"
   xmlns:inkscape="http://www.inkscape.org/namespaces/inkscape"
   xmlns:sodipodi="http://sodipodi.sourceforge.net/DTD/sodipodi-0.dtd"
   xmlns="http://www.w3.org/2000/svg"
   xmlns:svg="http://www.w3.org/2000/svg">
  <defs
     id="defs8" />
  <sodipodi:namedview
     id="namedview6"
     pagecolor="#ffffff"
     bordercolor="#111111"
     borderopacity="1"
     inkscape:showpageshadow="0"
     inkscape:pageopacity="0"
     inkscape:pagecheckerboard="1"
     inkscape:deskcolor="#d1d1d1"
     showgrid="false" />
  <path
     d="M 20,35 Q 13.75,35 9.375,30.625 5,26.25 5,20 5,13.75 9.375,9.375 13.75,5 20,5 q 0.417,0 0.854,0.021 0.438,0.021 1.021,0.104 -1.583,1.292 -2.479,3.229 -0.896,1.938 -0.896,4.146 0,3.75 2.625,6.375 2.625,2.625 6.375,2.625 2.208,0 4.146,-0.854 1.937,-0.854 3.229,-2.354 0.083,0.541 0.104,0.937 Q 35,19.625 35,20 35,26.25 30.625,30.625 26.25,35 20,35 Z"
     id="path2"
     style="fill:#ffffff;fill-opacity:1" />
</svg>
