<?xml version="1.0" encoding="UTF-8" standalone="no"?>
<svg
   width="1024"
   height="1024"
   version="1.1"
   id="svg192"
   sodipodi:docname="github-mark-black.svg"
   inkscape:export-filename="github-mark-black.png"
   inkscape:export-xdpi="96"
   inkscape:export-ydpi="96"
   inkscape:version="1.2.2 (b0a84865, 2022-12-01)"
   xmlns:inkscape="http://www.inkscape.org/namespaces/inkscape"
   xmlns:sodipodi="http://sodipodi.sourceforge.net/DTD/sodipodi-0.dtd"
   xmlns="http://www.w3.org/2000/svg"
   xmlns:svg="http://www.w3.org/2000/svg">
  <defs
     id="defs196" />
  <sodipodi:namedview
     id="namedview194"
     pagecolor="#ffffff"
     bordercolor="#111111"
     borderopacity="1"
     inkscape:showpageshadow="0"
     inkscape:pageopacity="0"
     inkscape:pagecheckerboard="1"
     inkscape:deskcolor="#d1d1d1"
     showgrid="false"
     inkscape:zoom="0.56456472"
     inkscape:cx="549.09559"
     inkscape:cy="675.74183"
     inkscape:window-width="1390"
     inkscape:window-height="1205"
     inkscape:window-x="0"
     inkscape:window-y="25"
     inkscape:window-maximized="0"
     inkscape:current-layer="svg192" />
  <rect
     x="1216"
     width="896"
     height="896"
     rx="204"
     fill="#f0f0f0"
     id="rect162"
     y="0"
     style="mix-blend-mode:exclusion"
     transform="matrix(1.1428571,0,0,1.1428571,-1389.7142,0)" />
  <g
     id="g1314"
     transform="matrix(0.74945919,0,0,0.74945916,128.25005,128.25006)">
    <rect
       style="display:none;fill:#000000;fill-rule:evenodd;stroke:#000000;stroke-width:1.143;stroke-linecap:round;stroke-linejoin:round;stroke-miterlimit:8.1;stroke-dasharray:none"
       id="rect1309"
       width="1024.2142"
       height="1024.2142"
       x="-0.21426892"
       y="-0.21430252" />
    <path
       fill-rule="evenodd"
       clip-rule="evenodd"
       d="M 512.00001,2 C 228.87723,2 -1.9999997e-6,232.56455 -1.9999997e-6,517.80433 -1.9999997e-6,745.8117 146.64953,938.81519 350.0913,1007.1252 c 25.43546,5.1353 34.75237,-11.0986 34.75237,-24.75427 0,-11.95792 -0.83842,-52.94601 -0.83842,-95.65285 -142.42601,30.74893 -172.08499,-61.48737 -172.08499,-61.48737 -22.88877,-59.7791 -56.80272,-75.14308 -56.80272,-75.14308 -46.61596,-31.59782 3.39559,-31.59782 3.39559,-31.59782 51.70933,3.41654 78.84259,52.946 78.84259,52.946 45.76706,78.55963 119.51628,56.36255 149.18574,42.69636 4.234,-33.30609 17.80587,-56.36255 32.21616,-69.16936 -113.59496,-11.95792 -233.11124,-56.36255 -233.11124,-254.49086 0,-56.36255 20.3316,-102.47546 52.54776,-138.33873 -5.0829,-12.80681 -22.88878,-65.76329 5.09338,-136.64093 0,0 43.23085,-13.66619 140.70725,52.946 a 492.25531,492.25531 0 0 1 128.00524,-17.08273 c 43.23086,0 87.30013,5.98419 127.99477,17.08273 97.48688,-66.61219 140.71773,-52.946 140.71773,-52.946 27.98215,70.87764 10.1658,123.83412 5.0829,136.64093 33.06505,35.86327 52.55824,81.97618 52.55824,138.33873 0,198.12831 -119.51628,241.67357 -233.96013,254.49086 18.65476,16.22336 34.75236,46.9618 34.75236,95.64236 0,69.16937 -0.83842,124.68302 -0.83842,141.75528 0,13.66615 9.32739,29.90005 34.75237,24.77525 C 876.5016,938.80471 1023.1511,745.8117 1023.1511,517.80433 1023.9895,232.56455 794.2739,2 512.00001,2 Z"
       fill="#24292f"
       id="path190"
       style="display:inline;fill:#000000;fill-opacity:1;stroke-width:10.4802" />
  </g>
  <rect
     style="display:none;fill:#000000;fill-rule:evenodd;stroke:#000000;stroke-width:0.143214;stroke-linecap:round;stroke-linejoin:round;stroke-miterlimit:8.1"
     id="rect1199"
     width="128.30373"
     height="128.30376"
     x="-0.21426892"
     y="-0.21430252" />
  <rect
     style="display:none;fill:#000000;fill-rule:evenodd;stroke:#000000;stroke-width:0.143134;stroke-linecap:round;stroke-linejoin:round;stroke-miterlimit:8.1"
     id="rect1199-5"
     width="128.23215"
     height="128.23219"
     x="128.08946"
     y="128.08945" />
  <rect
     style="display:none;fill:#000000;fill-rule:evenodd;stroke:#000000;stroke-width:0.142974;stroke-linecap:round;stroke-linejoin:round;stroke-miterlimit:8.1"
     id="rect1199-54"
     width="128.08917"
     height="128.08917"
     x="256.46469"
     y="256.46469" />
  <rect
     style="display:none;fill:#000000;fill-rule:evenodd;stroke:#000000;stroke-width:0.142895;stroke-linecap:round;stroke-linejoin:round;stroke-miterlimit:8.1"
     id="rect1199-5-1"
     width="128.01772"
     height="128.01773"
     x="384.55386"
     y="384.55383" />
  <rect
     style="display:none;fill:#000000;fill-rule:evenodd;stroke:#000000;stroke-width:0.142915;stroke-linecap:round;stroke-linejoin:round;stroke-miterlimit:8.1"
     id="rect1199-8"
     width="128.03561"
     height="128.03561"
     x="512.71448"
     y="512.71448" />
  <rect
     style="display:none;fill:#000000;fill-rule:evenodd;stroke:#000000;stroke-width:0.142835;stroke-linecap:round;stroke-linejoin:round;stroke-miterlimit:8.1"
     id="rect1199-5-8"
     width="127.96419"
     height="127.9642"
     x="640.75012"
     y="640.75006" />
  <rect
     style="display:none;fill:#000000;fill-rule:evenodd;stroke:#000000;stroke-width:0.142676;stroke-linecap:round;stroke-linejoin:round;stroke-miterlimit:8.1"
     id="rect1199-54-3"
     width="127.8215"
     height="127.82148"
     x="768.85706"
     y="768.85706" />
  <rect
     style="display:none;fill:#000000;fill-rule:evenodd;stroke:#000000;stroke-width:0.142596;stroke-linecap:round;stroke-linejoin:round;stroke-miterlimit:8.1"
     id="rect1199-5-1-5"
     width="127.7502"
     height="127.75019"
     x="896.67853"
     y="896.67853" />
</svg>
