<?xml version="1.0" encoding="UTF-8" standalone="no"?>
<svg
   width="1024"
   height="1024"
   version="1.1"
   id="svg192"
   sodipodi:docname="instagram-glyph-black copy.svg"
   inkscape:export-filename="github-mark-black.png"
   inkscape:export-xdpi="96"
   inkscape:export-ydpi="96"
   inkscape:version="1.2.2 (b0a84865, 2022-12-01)"
   xmlns:inkscape="http://www.inkscape.org/namespaces/inkscape"
   xmlns:sodipodi="http://sodipodi.sourceforge.net/DTD/sodipodi-0.dtd"
   xmlns="http://www.w3.org/2000/svg"
   xmlns:svg="http://www.w3.org/2000/svg">
  <defs
     id="defs196" />
  <sodipodi:namedview
     id="namedview194"
     pagecolor="#ffffff"
     bordercolor="#111111"
     borderopacity="1"
     inkscape:showpageshadow="0"
     inkscape:pageopacity="0"
     inkscape:pagecheckerboard="1"
     inkscape:deskcolor="#d1d1d1"
     showgrid="false"
     inkscape:zoom="0.44951529"
     inkscape:cx="607.32083"
     inkscape:cy="294.76194"
     inkscape:window-width="1390"
     inkscape:window-height="1205"
     inkscape:window-x="0"
     inkscape:window-y="25"
     inkscape:window-maximized="0"
     inkscape:current-layer="svg192" />
  <rect
     x="1216"
     width="896"
     height="896"
     rx="204"
     fill="#f0f0f0"
     id="rect162"
     y="0"
     style="mix-blend-mode:exclusion"
     transform="matrix(1.1428571,0,0,1.1428571,-1389.7142,0)" />
  <g
     id="g1314"
     transform="matrix(0.74945919,0,0,0.74945916,128.3036,128.35722)">
    <rect
       style="display:none;fill:#000000;fill-rule:evenodd;stroke:#000000;stroke-width:1.143;stroke-linecap:round;stroke-linejoin:round;stroke-miterlimit:8.1;stroke-dasharray:none"
       id="rect1309"
       width="1024.2142"
       height="1024.2142"
       x="-0.21426892"
       y="-0.21430252" />
    <path
       d="M 133.03647,56.396541 C 88.311113,82.95271 0.19279915,184.18384 -0.64281568,210.73167 v 43.94412 c 0,55.70321 52.06767068,104.66189 99.34215368,104.66189 56.764842,0 104.060172,-47.04478 104.064582,-102.88173 0,55.83695 45.67401,102.88173 102.44297,102.88173 56.77277,0 100.9802,-47.04478 100.9802,-102.88173 0,55.83695 48.56578,102.88173 105.33474,102.88173 h 1.02793 c 56.77307,0 105.33885,-47.04478 105.33885,-102.88173 0,55.83695 44.21154,102.88173 100.97639,102.88173 56.76867,0 102.44268,-47.04478 102.44268,-102.88173 0,55.83695 47.30414,102.88173 104.06458,102.88173 47.27448,0 99.34224,-48.95031 99.34224,-104.66189 V 210.73167 C 1023.8788,184.17964 935.76049,82.944371 891.04335,56.396541 752.0318,51.515711 655.66069,50.671581 512.03154,50.692486 368.40679,50.704231 172.59722,52.949028 133.02825,56.396541 Z M 405.46833,333.10326 a 117.1105,117.1105 0 0 1 -19.9746,25.72042 c -21.42885,20.95244 -50.80133,33.94009 -83.18302,33.94009 a 119.02021,119.02021 0 0 1 -83.3583,-33.95682 c -7.76423,-7.60539 -13.66462,-15.73729 -19.06793,-25.20643 l -0.0294,0.0176 c -5.39891,9.48584 -12.92091,17.61355 -20.70158,25.2273 a 119.09542,119.09542 0 0 1 -83.358595,33.93175 c -3.902961,0 -7.964766,-1.07811 -11.249384,-2.2064 -4.562997,47.52118 -6.489374,92.93623 -7.17055,126.04892 v 0.18791 c -0.08221,16.81544 -0.167358,30.64305 -0.249568,49.85294 0.877601,99.70585 -9.874407,323.16229 43.960797,378.06738 83.42554,19.45224 236.93732,28.31128 390.94647,28.3656 h 0.0294 c 154.00505,-0.0543 307.51713,-8.91336 390.94237,-28.3656 53.83521,-54.90926 43.0832,-278.36573 43.9608,-378.07158 -0.091,-19.20569 -0.16736,-33.0333 -0.24957,-49.85291 v -0.18791 c -0.67677,-33.12106 -2.60315,-78.53194 -7.16644,-126.05309 -3.28462,1.12826 -7.34231,2.2064 -11.24938,2.2064 a 119.09542,119.09542 0 0 1 -83.35831,-33.93175 c -7.78096,-7.61375 -15.30267,-15.73732 -20.70598,-25.22733 l -0.0294,-0.0176 c -5.40742,9.46914 -11.3037,17.60521 -19.06793,25.20643 a 119.01185,119.01185 0 0 1 -83.3542,33.95262 c -32.37728,0 -61.75416,-12.99601 -83.18302,-33.94428 a 117.1105,117.1105 0 0 1 -19.9746,-25.72039 116.96424,116.96424 0 0 1 -19.7908,25.72039 119.05364,119.05364 0 0 1 -83.36682,33.94848 c -1.12805,0 -2.25639,-0.0502 -3.38473,-0.0837 h -0.0294 c -1.12834,0.0335 -2.25668,0.0837 -3.39736,0.0837 a 119.05364,119.05364 0 0 1 -83.36675,-33.94428 116.9726,116.9726 0 0 1 -19.7908,-25.72042 z m -85.60647,110.69605 v 0.0417 h 0.0616 c 33.9023,0.0711 64.01879,0 101.33548,40.72645 29.36866,-3.07977 60.05768,-4.61755 90.77167,-4.57157 h 0.0294 c 30.71428,-0.0417 61.4033,1.4918 90.77578,4.57157 37.31669,-40.73062 67.43318,-40.65959 101.33577,-40.72645 h 0.0587 v -0.0417 c 16.01732,0 80.09072,0 124.7368,125.39284 l 47.95598,172.01977 C 912.45928,869.1831 865.54418,872.31299 807.02442,872.42582 720.23939,869.19564 672.18743,806.17114 672.18743,743.15504 624.14809,751.02787 568.1064,754.9643 512.06472,754.96847 h -0.0294 c -56.04609,0 -112.08778,-3.9406 -160.12301,-11.81343 0,63.0161 -48.05578,126.0406 -134.83669,129.27078 -58.51976,-0.11274 -105.43075,-3.23855 -69.89452,-131.2139 l 47.96833,-172.0156 C 239.79551,443.80348 303.8689,443.80348 319.88622,443.80348 Z m 192.16146,98.54415 v 0.0264 c -0.0852,0.0837 -91.36095,83.91002 -107.77083,113.72568 l 59.77318,-2.39445 v 52.12618 c 0,2.44041 23.9862,1.44586 47.99765,0.33431 h 0.0294 c 24.00293,1.11155 47.99353,2.1061 47.99353,-0.33431 v -52.12615 l 59.77318,2.39445 C 603.40511,626.27991 512.04857,542.36989 512.04857,542.36989 v -0.0264 0.009 z"
       color="#000000"
       id="path3959"
       style="stroke-width:4.17878" />
  </g>
  <rect
     style="display:none;fill:#000000;fill-rule:evenodd;stroke:#000000;stroke-width:0.143214;stroke-linecap:round;stroke-linejoin:round;stroke-miterlimit:8.1"
     id="rect1199"
     width="128.30373"
     height="128.30376"
     x="-0.21426892"
     y="-0.21430252" />
  <rect
     style="display:none;fill:#000000;fill-rule:evenodd;stroke:#000000;stroke-width:0.143134;stroke-linecap:round;stroke-linejoin:round;stroke-miterlimit:8.1"
     id="rect1199-5"
     width="128.23215"
     height="128.23219"
     x="128.08946"
     y="128.08945" />
  <rect
     style="display:none;fill:#000000;fill-rule:evenodd;stroke:#000000;stroke-width:0.142974;stroke-linecap:round;stroke-linejoin:round;stroke-miterlimit:8.1"
     id="rect1199-54"
     width="128.08917"
     height="128.08917"
     x="256.46469"
     y="256.46469" />
  <rect
     style="display:none;fill:#000000;fill-rule:evenodd;stroke:#000000;stroke-width:0.142895;stroke-linecap:round;stroke-linejoin:round;stroke-miterlimit:8.1"
     id="rect1199-5-1"
     width="128.01772"
     height="128.01773"
     x="384.55386"
     y="384.55383" />
  <rect
     style="display:none;fill:#000000;fill-rule:evenodd;stroke:#000000;stroke-width:0.142915;stroke-linecap:round;stroke-linejoin:round;stroke-miterlimit:8.1"
     id="rect1199-8"
     width="128.03561"
     height="128.03561"
     x="512.71448"
     y="512.71448" />
  <rect
     style="display:none;fill:#000000;fill-rule:evenodd;stroke:#000000;stroke-width:0.142835;stroke-linecap:round;stroke-linejoin:round;stroke-miterlimit:8.1"
     id="rect1199-5-8"
     width="127.96419"
     height="127.9642"
     x="640.75012"
     y="640.75006" />
  <rect
     style="display:none;fill:#000000;fill-rule:evenodd;stroke:#000000;stroke-width:0.142676;stroke-linecap:round;stroke-linejoin:round;stroke-miterlimit:8.1"
     id="rect1199-54-3"
     width="127.8215"
     height="127.82148"
     x="768.85706"
     y="768.85706" />
  <rect
     style="display:none;fill:#000000;fill-rule:evenodd;stroke:#000000;stroke-width:0.142596;stroke-linecap:round;stroke-linejoin:round;stroke-miterlimit:8.1"
     id="rect1199-5-1-5"
     width="127.7502"
     height="127.75019"
     x="896.67853"
     y="896.67853" />
</svg>
