<?xml version="1.0" standalone="no"?>
<!DOCTYPE svg PUBLIC "-//W3C//DTD SVG 20010904//EN"
 "http://www.w3.org/TR/2001/REC-SVG-20010904/DTD/svg10.dtd">
<svg version="1.0" xmlns="http://www.w3.org/2000/svg"
 width="700.000000pt" height="700.000000pt" viewBox="0 0 700.000000 700.000000"
 preserveAspectRatio="xMidYMid meet">
<metadata>
Created by potrace 1.14, written by Peter Selinger 2001-2017
</metadata>
<g transform="translate(0.000000,700.000000) scale(0.100000,-0.100000)"
fill="#000000" stroke="none">
<path d="M0 3500 l0 -3500 3500 0 3500 0 0 3500 0 3500 -3500 0 -3500 0 0
-3500z m3187 2099 c24 -12 51 -32 59 -45 31 -46 1594 -3970 1594 -3999 0 -37
-30 -104 -58 -128 -48 -43 -77 -46 -497 -47 -250 0 -414 4 -438 11 -92 25 -59
-47 -613 1340 -349 872 -511 1267 -518 1257 -4 -8 -236 -583 -515 -1278 l-506
-1265 -43 -30 -44 -30 -406 -3 c-272 -2 -424 0 -458 8 -51 11 -97 47 -123 97
-32 63 -47 23 775 2080 433 1083 796 1979 808 1992 12 13 39 32 61 42 37 17
73 19 459 19 407 0 421 -1 463 -21z m3078 10 c44 -12 89 -49 111 -91 11 -22
14 -108 14 -466 0 -439 0 -439 -22 -472 -30 -44 -66 -69 -114 -80 -21 -5 -348
-10 -726 -10 l-688 0 -2 -1214 -3 -1214 -712 1779 -711 1779 1406 0 c982 0
1419 -3 1447 -11z"/>
</g>
</svg>
