<?xml version="1.0" encoding="UTF-8" standalone="no"?>
<svg
   viewBox="0 0 1024 1024"
   fill="none"
   version="1.1"
   id="svg304"
   sodipodi:docname="TTC NAVIGATOR.svg"
   inkscape:version="1.2.2 (b0a84865, 2022-12-01)"
   xml:space="preserve"
   xmlns:inkscape="http://www.inkscape.org/namespaces/inkscape"
   xmlns:sodipodi="http://sodipodi.sourceforge.net/DTD/sodipodi-0.dtd"
   xmlns="http://www.w3.org/2000/svg"
   xmlns:svg="http://www.w3.org/2000/svg"
   xmlns:rdf="http://www.w3.org/1999/02/22-rdf-syntax-ns#"
   xmlns:cc="http://creativecommons.org/ns#"
   xmlns:dc="http://purl.org/dc/elements/1.1/"><title
     id="title2779">TTC Navigator</title><sodipodi:namedview
     id="namedview306"
     pagecolor="#ffffff"
     bordercolor="#111111"
     borderopacity="1"
     inkscape:showpageshadow="0"
     inkscape:pageopacity="0"
     inkscape:pagecheckerboard="1"
     inkscape:deskcolor="#d1d1d1"
     showgrid="false"
     inkscape:zoom="0.32558818"
     inkscape:cx="-514.45357"
     inkscape:cy="634.23678"
     inkscape:window-width="1470"
     inkscape:window-height="835"
     inkscape:window-x="739"
     inkscape:window-y="25"
     inkscape:window-maximized="0"
     inkscape:current-layer="svg304" /><g
     clip-path="url(#clip3_0_1)"
     id="g288"
     transform="translate(-3264)"><rect
       x="3264"
       width="1024"
       height="1024"
       rx="32"
       fill="#0f0f0f"
       id="rect258"
       y="0" /><g
       style="mix-blend-mode:exclusion"
       id="g278"><rect
         x="3392"
         width="896"
         height="896"
         rx="204"
         fill="#c8212b"
         id="rect260"
         y="0" /><path
         d="M 3968,836 V 580 L 3712,324 V 68"
         stroke="#f8c300"
         stroke-width="48"
         stroke-linecap="round"
         stroke-linejoin="round"
         id="path262" /><path
         d="M 4224,580 H 3456"
         stroke="#00923f"
         stroke-width="48"
         stroke-linecap="round"
         stroke-linejoin="round"
         id="path264" /><circle
         cx="3956"
         cy="568"
         r="46"
         fill="#f0f0f0"
         stroke="#000000"
         stroke-width="20"
         id="circle266" /><circle
         cx="3700"
         cy="312"
         r="46"
         fill="#ffffff"
         stroke="#000000"
         stroke-width="20"
         id="circle268" /><circle
         cx="3700"
         cy="568"
         r="46"
         fill="#ffffff"
         stroke="#000000"
         stroke-width="20"
         id="circle270" /><rect
         x="3678"
         y="322"
         width="44"
         height="236"
         fill="#f0f0f0"
         stroke="#000000"
         stroke-width="20"
         id="rect272" /><circle
         cx="3700"
         cy="568"
         r="36"
         fill="#f0f0f0"
         id="circle274" /><circle
         cx="3700"
         cy="312"
         r="36"
         fill="#f0f0f0"
         id="circle276" /></g><path
       d="m 3355.09,111.516 h -12.23 V 90.8438 H 3286 V 76.3125 h 56.86 V 55.5469 h 12.23 z m 0,58.687 h -12.23 V 149.531 H 3286 V 135 h 56.86 v -20.766 h 12.23 z m -63.93,57.235 c -4.72,-5.157 -7.08,-11.75 -7.08,-19.782 0,-9.937 3.19,-17.75 9.56,-23.437 6.41,-5.688 15.19,-8.531 26.34,-8.531 12.07,0 21.36,3.234 27.9,9.703 5.68,5.625 8.53,12.781 8.53,21.468 0,11.625 -3.82,20.125 -11.44,25.5 -4.28,2.969 -8.58,4.563 -12.89,4.782 v -14.438 c 3.31,-0.937 5.81,-2.141 7.5,-3.609 3,-2.625 4.5,-6.516 4.5,-11.672 0,-5.25 -2.13,-9.391 -6.38,-12.422 -4.22,-3.031 -10.2,-4.547 -17.95,-4.547 -7.75,0 -13.56,1.594 -17.44,4.781 -3.84,3.219 -5.76,7.297 -5.76,12.235 0,5.062 1.65,8.922 4.97,11.578 1.78,1.469 4.45,2.687 8.01,3.656 V 237 c -7.53,-1.25 -13.65,-4.438 -18.37,-9.562 z M 3286,330.656 V 316.219 L 3335.08,288 H 3286 v -13.453 h 69.09 v 15.141 l -48.23,27.515 h 48.23 v 13.453 z m 14.2,53.953 v -25.453 l -14.2,-4.781 v -15.094 l 69.09,24.657 V 380.25 L 3286,404.719 v -15.657 z m 11.91,-4.031 27.19,-8.625 -27.19,-8.906 z m 42.98,20.719 v 15.422 l -52.45,15 52.45,15.14 v 15 L 3286,438.281 v -13.64 z m 0,68.015 v 14.344 H 3286 v -14.344 z m -67.4,70.219 c -2.35,-3.812 -3.52,-8.5 -3.52,-14.062 0,-9.157 3.17,-16.657 9.52,-22.5 6.37,-6.094 15.09,-9.141 26.15,-9.141 11.19,0 20.16,3.078 26.91,9.234 6.75,6.157 10.13,14.297 10.13,24.422 0,8.782 -2.24,15.828 -6.71,21.141 -4.44,5.344 -9.98,8.406 -16.64,9.187 v -14.203 c 4.72,-1.093 8.02,-3.765 9.89,-8.015 1.03,-2.375 1.55,-5.016 1.55,-7.922 0,-5.563 -2.11,-10.141 -6.33,-13.734 -4.19,-3.563 -10.5,-5.344 -18.94,-5.344 -8.5,0 -14.51,1.937 -18.04,5.812 -3.54,3.875 -5.3,8.282 -5.3,13.219 0,4.844 1.39,8.813 4.17,11.906 2.81,3.094 6.49,5 11.02,5.719 v -15.984 h 11.53 v 28.781 H 3286 v -9.563 l 8.62,-1.453 c -3.28,-2.781 -5.59,-5.281 -6.93,-7.5 z m 12.51,72.797 V 586.875 L 3286,582.094 V 567 l 69.09,24.656 v 16.313 L 3286,632.438 v -15.657 z m 11.91,-4.031 27.19,-8.625 -27.19,-8.906 z m 42.98,76.031 h -12.23 V 663.656 H 3286 v -14.531 h 56.86 v -20.766 h 12.23 z m -71.01,37.36 c 0,-9.876 2.69,-17.422 8.06,-22.641 6.59,-7 16.09,-10.5 28.5,-10.5 12.66,0 22.16,3.5 28.5,10.5 5.38,5.219 8.06,12.765 8.06,22.641 0,9.874 -2.68,17.421 -8.06,22.64 -6.34,6.969 -15.84,10.453 -28.5,10.453 -12.41,0 -21.91,-3.484 -28.5,-10.453 -5.37,-5.219 -8.06,-12.766 -8.06,-22.64 z m 18.56,13.64 c 4.22,3.344 10.22,5.016 18,5.016 7.75,0 13.74,-1.688 17.95,-5.063 4.25,-3.343 6.38,-7.875 6.38,-13.593 0,-5.719 -2.11,-10.282 -6.33,-13.688 -4.22,-3.406 -10.22,-5.109 -18,-5.109 -7.78,0 -13.78,1.703 -18,5.109 -4.22,3.406 -6.33,7.969 -6.33,13.688 0,5.718 2.11,10.265 6.33,13.64 z m 10.45,59.86 V 780.281 H 3286 v -14.109 h 69.09 v 33.89 c -0.09,4.844 -0.68,8.563 -1.78,11.157 -1.09,2.625 -2.7,4.843 -4.83,6.656 -1.75,1.5 -3.68,2.687 -5.81,3.563 -2.12,0.874 -4.55,1.312 -7.26,1.312 -3.29,0 -6.52,-0.828 -9.71,-2.484 -3.15,-1.657 -5.39,-4.391 -6.7,-8.204 -1.28,3.188 -3.11,5.438 -5.48,6.75 -2.35,1.344 -5.94,2.016 -10.79,2.016 h -4.64 c -3.15,0 -5.29,0.125 -6.42,0.375 -1.78,0.375 -3.09,1.25 -3.94,2.625 H 3286 v -15.89 c 1.53,-0.438 2.77,-0.75 3.7,-0.938 1.94,-0.375 3.92,-0.578 5.96,-0.609 l 6.42,-0.094 c 4.4,-0.063 7.34,-0.875 8.81,-2.438 1.47,-1.531 2.2,-4.421 2.2,-8.671 z m 12.57,8.765 c 1.31,2.875 3.9,4.313 7.78,4.313 4.18,0 7,-1.391 8.44,-4.172 0.81,-1.563 1.21,-3.906 1.21,-7.032 v -16.781 h -18.56 v 16.36 c 0,3.25 0.38,5.687 1.13,7.312 z"
       fill="#f0f0f0"
       id="path280" /><path
       d="m 3564,904 c -4.42,0 -8,3.582 -8,8 0,4.418 3.58,8 8,8 z m 724,0 h -724 v 16 h 724 z"
       fill="#f0f0f0"
       id="path282" /><path
       d="m 3368,846 c 0,4.418 3.58,8 8,8 4.42,0 8,-3.582 8,-8 z M 3368,-3.49691e-7 V 846 h 16 V 3.49691e-7 Z"
       fill="#f0f0f0"
       id="path284" /><path
       d="m 3886.49,963 h -13.64 v -31.668 h 13.64 c 1.96,0.029 3.6,0.258 4.9,0.688 2.22,0.73 4.02,2.069 5.39,4.017 1.1,1.576 1.86,3.28 2.26,5.113 0.4,1.834 0.6,3.581 0.6,5.243 0,4.211 -0.85,7.777 -2.54,10.699 -2.29,3.939 -5.83,5.908 -10.61,5.908 z m 4.92,-23.59 c -1.02,-1.719 -3.03,-2.578 -6.04,-2.578 h -6.1 V 957.5 h 6.1 c 3.13,0 5.3,-1.54 6.53,-4.619 0.68,-1.69 1.01,-3.703 1.01,-6.037 0,-3.223 -0.5,-5.701 -1.5,-7.434 z m 32.27,3.137 c 1.98,2.478 2.96,5.407 2.96,8.787 0,3.437 -0.98,6.381 -2.96,8.83 -1.98,2.435 -4.98,3.652 -9,3.652 -4.03,0 -7.03,-1.217 -9,-3.652 -1.98,-2.449 -2.97,-5.393 -2.97,-8.83 0,-3.38 0.99,-6.309 2.97,-8.787 1.97,-2.478 4.97,-3.717 9,-3.717 4.02,0 7.02,1.239 9,3.717 z m -9.02,1.461 c -1.79,0 -3.18,0.637 -4.15,1.912 -0.96,1.26 -1.44,3.065 -1.44,5.414 0,2.349 0.48,4.161 1.44,5.436 0.97,1.274 2.36,1.912 4.15,1.912 1.79,0 3.16,-0.638 4.12,-1.912 0.96,-1.275 1.44,-3.087 1.44,-5.436 0,-2.349 -0.48,-4.154 -1.44,-5.414 -0.96,-1.275 -2.33,-1.912 -4.12,-1.912 z m 31.41,15.683 c -0.06,0.072 -0.2,0.287 -0.43,0.645 -0.23,0.358 -0.5,0.673 -0.82,0.945 -0.96,0.86 -1.89,1.447 -2.79,1.762 -0.89,0.315 -1.94,0.473 -3.14,0.473 -3.47,0 -5.8,-1.246 -7,-3.739 -0.68,-1.375 -1.01,-3.401 -1.01,-6.08 v -14.115 h 6.27 v 14.115 c 0,1.332 0.16,2.335 0.47,3.008 0.56,1.189 1.66,1.783 3.29,1.783 2.09,0 3.52,-0.845 4.3,-2.535 0.4,-0.917 0.6,-2.127 0.6,-3.631 v -12.74 h 6.21 V 963 h -5.95 z m 24.6,3.932 c -1.94,0 -3.49,-0.387 -4.67,-1.16 -0.7,-0.458 -1.46,-1.261 -2.27,-2.406 V 963 h -6 v -31.625 h 6.1 v 11.258 c 0.78,-1.089 1.63,-1.919 2.56,-2.492 1.1,-0.717 2.51,-1.075 4.21,-1.075 3.08,0 5.49,1.11 7.22,3.33 1.75,2.221 2.62,5.085 2.62,8.594 0,3.638 -0.86,6.653 -2.58,9.045 -1.72,2.392 -4.11,3.588 -7.19,3.588 z m 3.35,-11.988 c 0,-1.662 -0.22,-3.037 -0.65,-4.125 -0.81,-2.063 -2.32,-3.094 -4.51,-3.094 -2.22,0 -3.74,1.01 -4.57,3.029 -0.43,1.075 -0.65,2.464 -0.65,4.168 0,2.005 0.44,3.667 1.33,4.985 0.89,1.317 2.24,1.976 4.06,1.976 1.58,0 2.8,-0.637 3.68,-1.912 0.87,-1.275 1.31,-2.95 1.31,-5.027 z m 10.95,-20.303 h 6.13 V 963 h -6.13 z m 32.17,24.793 c -0.16,1.389 -0.88,2.8 -2.17,4.232 -2.01,2.278 -4.82,3.416 -8.43,3.416 -2.97,0 -5.6,-0.959 -7.88,-2.878 -2.28,-1.92 -3.42,-5.042 -3.42,-9.368 0,-4.053 1.03,-7.161 3.08,-9.324 2.06,-2.163 4.73,-3.244 8.01,-3.244 1.95,0 3.7,0.365 5.26,1.096 1.56,0.73 2.85,1.883 3.87,3.459 0.92,1.389 1.51,3 1.78,4.834 0.16,1.074 0.23,2.621 0.2,4.64 h -16.03 c 0.09,2.349 0.82,3.996 2.21,4.942 0.85,0.587 1.87,0.881 3.05,0.881 1.26,0 2.29,-0.359 3.08,-1.075 0.43,-0.386 0.81,-0.924 1.13,-1.611 z m -6.06,-7.176 c -0.1,-1.618 -0.6,-2.843 -1.48,-3.674 -0.88,-0.845 -1.97,-1.267 -3.27,-1.267 -1.42,0 -2.52,0.444 -3.31,1.332 -0.77,0.888 -1.26,2.091 -1.46,3.609 z M 4047.97,963 h -13.65 v -31.668 h 13.65 c 1.96,0.029 3.59,0.258 4.9,0.688 2.22,0.73 4.01,2.069 5.39,4.017 1.1,1.576 1.85,3.28 2.25,5.113 0.4,1.834 0.61,3.581 0.61,5.243 0,4.211 -0.85,7.777 -2.54,10.699 -2.29,3.939 -5.83,5.908 -10.61,5.908 z m 4.92,-23.59 c -1.02,-1.719 -3.03,-2.578 -6.04,-2.578 h -6.1 V 957.5 h 6.1 c 3.12,0 5.3,-1.54 6.53,-4.619 0.67,-1.69 1.01,-3.703 1.01,-6.037 0,-3.223 -0.5,-5.701 -1.5,-7.434 z m 19.03,0.172 V 963 h -6.21 v -23.418 z m 0,-8.443 v 5.65 h -6.21 v -5.65 z m 12.57,35.965 c 0.66,0.558 1.77,0.837 3.33,0.837 2.21,0 3.68,-0.737 4.43,-2.212 0.48,-0.946 0.73,-2.536 0.73,-4.77 v -1.504 c -0.59,1.003 -1.22,1.755 -1.89,2.256 -1.22,0.931 -2.8,1.396 -4.75,1.396 -3.01,0 -5.42,-1.052 -7.22,-3.158 -1.79,-2.12 -2.69,-4.984 -2.69,-8.594 0,-3.48 0.87,-6.402 2.6,-8.765 1.74,-2.378 4.19,-3.567 7.37,-3.567 1.18,0 2.2,0.179 3.07,0.538 1.49,0.615 2.7,1.747 3.61,3.394 v -3.373 h 5.96 v 22.215 c 0,3.022 -0.51,5.299 -1.53,6.832 -1.75,2.635 -5.1,3.953 -10.05,3.953 -3,0 -5.44,-0.587 -7.33,-1.762 -1.89,-1.174 -2.94,-2.929 -3.14,-5.263 h 6.66 c 0.17,0.716 0.45,1.231 0.84,1.547 z m -1.03,-12.096 c 0.83,1.976 2.32,2.965 4.47,2.965 1.43,0 2.64,-0.537 3.63,-1.612 0.99,-1.088 1.48,-2.814 1.48,-5.177 0,-2.22 -0.47,-3.911 -1.42,-5.071 -0.93,-1.16 -2.18,-1.74 -3.76,-1.74 -2.15,0 -3.63,1.01 -4.44,3.029 -0.43,1.075 -0.65,2.399 -0.65,3.975 0,1.361 0.23,2.571 0.69,3.631 z m 27.61,-15.426 V 963 h -6.21 v -23.418 z m 0,-8.443 v 5.65 h -6.21 v -5.65 z m 16.67,27.5 v 4.576 l -2.9,0.107 c -2.9,0.101 -4.87,-0.401 -5.93,-1.504 -0.69,-0.701 -1.03,-1.783 -1.03,-3.244 v -14.416 h -3.27 v -4.361 h 3.27 v -6.531 h 6.06 v 6.531 h 3.8 v 4.361 h -3.8 v 12.375 c 0,0.96 0.12,1.561 0.36,1.805 0.24,0.229 0.99,0.344 2.24,0.344 0.18,0 0.37,0 0.58,0 0.21,-0.015 0.42,-0.029 0.62,-0.043 z m 28.16,-0.215 c 1.57,0 2.83,-0.172 3.81,-0.516 1.84,-0.659 2.77,-1.883 2.77,-3.674 0,-1.045 -0.46,-1.854 -1.38,-2.427 -0.91,-0.559 -2.35,-1.053 -4.31,-1.483 l -3.36,-0.752 c -3.29,-0.745 -5.57,-1.554 -6.83,-2.427 -2.13,-1.461 -3.2,-3.746 -3.2,-6.854 0,-2.836 1.03,-5.192 3.09,-7.068 2.07,-1.877 5.1,-2.815 9.09,-2.815 3.34,0 6.18,0.888 8.53,2.664 2.36,1.762 3.6,4.326 3.72,7.692 h -6.36 c -0.12,-1.905 -0.95,-3.259 -2.49,-4.061 -1.03,-0.53 -2.32,-0.795 -3.85,-0.795 -1.7,0 -3.06,0.344 -4.08,1.031 -1.02,0.688 -1.53,1.648 -1.53,2.879 0,1.132 0.5,1.977 1.51,2.536 0.64,0.372 2.02,0.809 4.12,1.31 l 5.46,1.311 c 2.39,0.573 4.2,1.339 5.41,2.298 1.89,1.49 2.84,3.646 2.84,6.467 0,2.893 -1.11,5.3 -3.33,7.219 -2.21,1.905 -5.33,2.857 -9.37,2.857 -4.12,0 -7.37,-0.938 -9.73,-2.814 -2.36,-1.891 -3.55,-4.483 -3.55,-7.777 h 6.32 c 0.2,1.446 0.6,2.528 1.18,3.244 1.08,1.303 2.92,1.955 5.52,1.955 z m 28.08,0.215 v 4.576 l -2.9,0.107 c -2.89,0.101 -4.87,-0.401 -5.93,-1.504 -0.68,-0.701 -1.03,-1.783 -1.03,-3.244 v -14.416 h -3.26 v -4.361 h 3.26 v -6.531 h 6.06 v 6.531 h 3.8 v 4.361 h -3.8 v 12.375 c 0,0.96 0.12,1.561 0.37,1.805 0.24,0.229 0.99,0.344 2.23,0.344 0.19,0 0.38,0 0.58,0 0.22,-0.015 0.42,-0.029 0.62,-0.043 z m 18.95,1.052 c -0.05,0.072 -0.2,0.287 -0.43,0.645 -0.23,0.358 -0.5,0.673 -0.81,0.945 -0.96,0.86 -1.89,1.447 -2.8,1.762 -0.88,0.315 -1.93,0.473 -3.13,0.473 -3.47,0 -5.8,-1.246 -7.01,-3.739 -0.67,-1.375 -1.01,-3.401 -1.01,-6.08 v -14.115 h 6.28 v 14.115 c 0,1.332 0.16,2.335 0.47,3.008 0.56,1.189 1.65,1.783 3.29,1.783 2.09,0 3.52,-0.845 4.29,-2.535 0.41,-0.917 0.61,-2.127 0.61,-3.631 v -12.74 h 6.2 V 963 h -5.95 z m 33.2,-28.316 V 963 h -5.95 v -3.244 c -0.88,1.389 -1.87,2.399 -2.99,3.029 -1.12,0.63 -2.51,0.945 -4.17,0.945 -2.73,0 -5.04,-1.102 -6.92,-3.308 -1.86,-2.22 -2.79,-5.063 -2.79,-8.529 0,-3.997 0.92,-7.14 2.75,-9.432 1.85,-2.292 4.31,-3.438 7.39,-3.438 1.42,0 2.68,0.316 3.78,0.946 1.11,0.616 2,1.475 2.69,2.578 v -11.172 z m -16.5,20.066 c 0,2.163 0.43,3.889 1.29,5.178 0.84,1.304 2.13,1.955 3.86,1.955 1.74,0 3.05,-0.644 3.96,-1.933 0.9,-1.289 1.35,-2.958 1.35,-5.006 0,-2.865 -0.72,-4.913 -2.17,-6.145 -0.89,-0.745 -1.92,-1.117 -3.09,-1.117 -1.79,0 -3.11,0.68 -3.96,2.041 -0.83,1.346 -1.24,3.022 -1.24,5.027 z m 28.38,-11.859 V 963 h -6.21 v -23.418 z m 0,-8.443 v 5.65 h -6.21 v -5.65 z m 25.48,11.408 c 1.97,2.478 2.96,5.407 2.96,8.787 0,3.437 -0.99,6.381 -2.96,8.83 -1.98,2.435 -4.98,3.652 -9,3.652 -4.03,0 -7.03,-1.217 -9.01,-3.652 -1.97,-2.449 -2.96,-5.393 -2.96,-8.83 0,-3.38 0.99,-6.309 2.96,-8.787 1.98,-2.478 4.98,-3.717 9.01,-3.717 4.02,0 7.02,1.239 9,3.717 z m -9.03,1.461 c -1.79,0 -3.17,0.637 -4.14,1.912 -0.96,1.26 -1.44,3.065 -1.44,5.414 0,2.349 0.48,4.161 1.44,5.436 0.97,1.274 2.35,1.912 4.14,1.912 1.8,0 3.17,-0.638 4.13,-1.912 0.96,-1.275 1.44,-3.087 1.44,-5.436 0,-2.349 -0.48,-4.154 -1.44,-5.414 -0.96,-1.275 -2.33,-1.912 -4.13,-1.912 z m -191.59,45.178 c -0.73,-0.874 -1.78,-1.311 -3.14,-1.311 -1.86,0 -3.13,0.695 -3.8,2.084 -0.39,0.802 -0.62,2.077 -0.69,3.824 h -5.95 c 0.1,-2.65 0.58,-4.791 1.44,-6.424 1.63,-3.108 4.53,-4.662 8.7,-4.662 3.29,0 5.92,0.917 7.86,2.75 1.95,1.819 2.92,4.233 2.92,7.241 0,2.305 -0.68,4.354 -2.06,6.144 -0.9,1.188 -2.38,2.518 -4.44,3.978 l -2.45,1.74 c -1.54,1.09 -2.59,1.87 -3.16,2.36 -0.56,0.49 -1.03,1.05 -1.42,1.7 h 13.6 v 5.39 h -21.33 c 0.05,-2.23 0.53,-4.28 1.43,-6.12 0.88,-2.08 2.94,-4.28 6.19,-6.6 2.82,-2.018 4.65,-3.465 5.48,-4.339 1.28,-1.36 1.91,-2.85 1.91,-4.468 0,-1.318 -0.36,-2.414 -1.09,-3.287 z m 21.31,25.584 c -3.97,0 -6.75,-1.39 -8.36,-4.16 -1.59,-2.78 -2.38,-6.74 -2.38,-11.885 0,-5.142 0.79,-9.11 2.38,-11.903 1.61,-2.793 4.39,-4.189 8.36,-4.189 3.97,0 6.75,1.396 8.36,4.189 1.59,2.793 2.38,6.761 2.38,11.903 0,5.145 -0.8,9.105 -2.4,11.885 -1.59,2.77 -4.37,4.16 -8.34,4.16 z m 3.59,-7.84 c 0.56,-1.89 0.84,-4.62 0.84,-8.205 0,-3.753 -0.29,-6.532 -0.86,-8.336 -0.56,-1.805 -1.75,-2.707 -3.57,-2.707 -1.82,0 -3.02,0.902 -3.61,2.707 -0.59,1.804 -0.88,4.583 -0.88,8.336 0,3.585 0.29,6.325 0.88,8.225 0.59,1.89 1.79,2.84 3.61,2.84 1.82,0 3.01,-0.95 3.59,-2.86 z m 24.08,-17.744 c -0.73,-0.874 -1.77,-1.311 -3.14,-1.311 -1.86,0 -3.12,0.695 -3.8,2.084 -0.38,0.802 -0.61,2.077 -0.69,3.824 h -5.95 c 0.1,-2.65 0.58,-4.791 1.44,-6.424 1.64,-3.108 4.54,-4.662 8.7,-4.662 3.3,0 5.92,0.917 7.87,2.75 1.95,1.819 2.92,4.233 2.92,7.241 0,2.305 -0.69,4.354 -2.06,6.144 -0.91,1.188 -2.39,2.518 -4.45,3.978 l -2.45,1.74 c -1.53,1.09 -2.59,1.87 -3.16,2.36 -0.56,0.49 -1.03,1.05 -1.42,1.7 h 13.6 v 5.39 h -21.33 c 0.06,-2.23 0.54,-4.28 1.44,-6.12 0.87,-2.08 2.94,-4.28 6.19,-6.6 2.82,-2.018 4.64,-3.465 5.48,-4.339 1.27,-1.36 1.91,-2.85 1.91,-4.468 0,-1.318 -0.37,-2.414 -1.1,-3.287 z m 17.62,-0.129 c -0.69,0.916 -1.02,2.141 -0.99,3.673 h -5.71 c 0.05,-1.546 0.32,-3.015 0.79,-4.404 0.5,-1.217 1.29,-2.342 2.36,-3.373 0.81,-0.73 1.76,-1.289 2.86,-1.676 1.1,-0.386 2.46,-0.58 4.06,-0.58 2.98,0 5.38,0.774 7.2,2.321 1.83,1.532 2.75,3.595 2.75,6.187 0,1.833 -0.55,3.38 -1.63,4.641 -0.69,0.787 -1.41,1.325 -2.15,1.611 0.56,0 1.36,0.48 2.4,1.439 1.57,1.444 2.35,3.424 2.35,5.934 0,2.63 -0.92,4.95 -2.75,6.96 -1.82,1.99 -4.52,2.98 -8.1,2.98 -4.42,0 -7.48,-1.44 -9.2,-4.31 -0.9,-1.54 -1.4,-3.54 -1.5,-6.02 h 6.01 c 0,1.25 0.2,2.28 0.6,3.09 0.75,1.51 2.1,2.26 4.06,2.26 1.21,0 2.25,-0.41 3.14,-1.23 0.9,-0.83 1.36,-2.02 1.36,-3.56 0,-2.05 -0.84,-3.42 -2.5,-4.11 -0.94,-0.38 -2.43,-0.58 -4.47,-0.58 v -4.378 c 1.99,-0.029 3.38,-0.222 4.17,-0.58 1.36,-0.602 2.04,-1.819 2.04,-3.653 0,-1.189 -0.35,-2.155 -1.05,-2.9 -0.69,-0.745 -1.66,-1.117 -2.92,-1.117 -1.45,0 -2.51,0.458 -3.18,1.375 z m 13.66,24.943 12.27,-32.635 h 5.09 L 4158.18,1014 Z m 31.31,0 h -6.28 v -21.484 h -7.32 v -4.168 c 1.93,-0.086 3.28,-0.215 4.06,-0.387 1.23,-0.272 2.23,-0.816 3,-1.633 0.53,-0.558 0.94,-1.303 1.21,-2.234 0.15,-0.559 0.23,-0.974 0.23,-1.246 h 5.1 z m 19.95,0.77 c -3.96,0 -6.75,-1.39 -8.35,-4.16 -1.59,-2.78 -2.39,-6.74 -2.39,-11.885 0,-5.142 0.8,-9.11 2.39,-11.903 1.6,-2.793 4.39,-4.189 8.35,-4.189 3.97,0 6.76,1.396 8.36,4.189 1.59,2.793 2.39,6.761 2.39,11.903 0,5.145 -0.81,9.105 -2.41,11.885 -1.59,2.77 -4.37,4.16 -8.34,4.16 z m 3.59,-7.84 c 0.56,-1.89 0.84,-4.62 0.84,-8.205 0,-3.753 -0.29,-6.532 -0.86,-8.336 -0.56,-1.805 -1.75,-2.707 -3.57,-2.707 -1.81,0 -3.02,0.902 -3.6,2.707 -0.59,1.804 -0.89,4.583 -0.89,8.336 0,3.585 0.3,6.325 0.89,8.225 0.58,1.89 1.79,2.84 3.6,2.84 1.82,0 3.02,-0.95 3.59,-2.86 z m 6.38,7.07 12.27,-32.635 h 5.09 L 4219.41,1014 Z m 29.95,-24.814 c -0.73,-0.874 -1.77,-1.311 -3.13,-1.311 -1.87,0 -3.13,0.695 -3.81,2.084 -0.38,0.802 -0.61,2.077 -0.68,3.824 h -5.96 c 0.1,-2.65 0.58,-4.791 1.44,-6.424 1.64,-3.108 4.54,-4.662 8.71,-4.662 3.29,0 5.91,0.917 7.86,2.75 1.95,1.819 2.92,4.233 2.92,7.241 0,2.305 -0.69,4.354 -2.06,6.144 -0.9,1.188 -2.39,2.518 -4.45,3.978 l -2.45,1.74 c -1.53,1.09 -2.58,1.87 -3.16,2.36 -0.56,0.49 -1.03,1.05 -1.42,1.7 h 13.6 v 5.39 h -21.33 c 0.06,-2.23 0.54,-4.28 1.44,-6.12 0.87,-2.08 2.94,-4.28 6.19,-6.6 2.82,-2.018 4.65,-3.465 5.48,-4.339 1.27,-1.36 1.91,-2.85 1.91,-4.468 0,-1.318 -0.37,-2.414 -1.1,-3.287 z m 20.93,9.345 c -0.75,0 -1.39,0.093 -1.94,0.28 -0.95,0.343 -1.68,0.981 -2.17,1.909 l -5.5,-0.26 2.2,-17.204 h 17.16 v 5.199 h -12.74 l -1.12,6.811 c 0.95,-0.616 1.69,-1.024 2.22,-1.225 0.89,-0.329 1.97,-0.494 3.24,-0.494 2.58,0 4.83,0.866 6.75,2.599 1.92,1.734 2.88,4.254 2.88,7.564 0,2.88 -0.93,5.45 -2.77,7.71 -1.85,2.26 -4.62,3.4 -8.3,3.4 -2.96,0 -5.4,-0.8 -7.3,-2.39 -1.91,-1.59 -2.97,-3.84 -3.18,-6.77 h 6.1 c 0.24,1.34 0.71,2.37 1.4,3.1 0.68,0.71 1.69,1.07 3,1.07 1.52,0 2.68,-0.53 3.46,-1.59 0.8,-1.07 1.21,-2.42 1.21,-4.04 0,-1.59 -0.38,-2.93 -1.12,-4.01 -0.75,-1.107 -1.91,-1.659 -3.48,-1.659 z"
       fill="#f0f0f0"
       id="path286" /></g><defs
     id="defs302"><clipPath
       id="clip0_0_1"><rect
         width="1024"
         height="1024"
         fill="#ffffff"
         id="rect290"
         x="0"
         y="0" /></clipPath><clipPath
       id="clip1_0_1"><rect
         width="1024"
         height="1024"
         fill="#ffffff"
         transform="translate(1088)"
         id="rect293"
         x="0"
         y="0" /></clipPath><clipPath
       id="clip2_0_1"><rect
         width="1024"
         height="1024"
         fill="#ffffff"
         transform="translate(2176)"
         id="rect296"
         x="0"
         y="0" /></clipPath><clipPath
       id="clip3_0_1"><rect
         width="1024"
         height="1024"
         fill="#ffffff"
         transform="translate(3264)"
         id="rect299"
         x="0"
         y="0" /></clipPath></defs><metadata
     id="metadata2777"><rdf:RDF><cc:Work
         rdf:about=""><dc:creator><cc:Agent><dc:title>Alwyn T</dc:title></cc:Agent></dc:creator><dc:rights><cc:Agent><dc:title>Required to disclose source and state changes as per AGPL-3.0 license</dc:title></cc:Agent></dc:rights><dc:language>English</dc:language><dc:title>TTC Navigator</dc:title><dc:identifier>TTC Navigator SVG</dc:identifier><cc:license
           rdf:resource="https://www.gnu.org/licenses/agpl-3.0.en.html#license-text" /></cc:Work></rdf:RDF></metadata></svg>
