<svg width="1024" height="1024" viewBox="0 0 1024 1024" fill="none" xmlns="http://www.w3.org/2000/svg">
<g clip-path="url(#clip0_603_2)">
<rect width="1024" height="1024" rx="32" fill="#0F0F0F"/>
<g style="mix-blend-mode:exclusion">
<rect x="128" width="896" height="896" rx="204" fill="#F0F0F0"/>
<path d="M757.5 395.5C760.5 405 760.875 417.564 756 427L734 418C746.279 413.497 751.702 405.354 757.5 395.5Z" fill="#0F0F0F"/>
<path d="M772 397C772.688 386.131 771.441 375.323 765 365.5L787.5 370C789.086 379.965 780.04 389.443 772 397Z" fill="#0F0F0F"/>
<path d="M737.5 385.5C737.5 385.5 731.724 364.756 721.5 356.682L745.5 359C746.62 368.368 737.5 385.5 737.5 385.5Z" fill="#0F0F0F"/>
<path d="M683.5 405C694.713 401.103 703.629 392.905 709 382.5C713.405 391.29 716.341 401.126 711 412.5L683.5 405Z" fill="#0F0F0F"/>
<path d="M757.5 395.5C760.5 405 760.875 417.564 756 427L734 418C746.279 413.497 751.702 405.354 757.5 395.5Z" stroke="#0F0F0F"/>
<path d="M772 397C772.688 386.131 771.441 375.323 765 365.5L787.5 370C789.086 379.965 780.04 389.443 772 397Z" stroke="#0F0F0F"/>
<path d="M737.5 385.5C737.5 385.5 731.724 364.756 721.5 356.682L745.5 359C746.62 368.368 737.5 385.5 737.5 385.5Z" stroke="#0F0F0F"/>
<path d="M683.5 405C694.713 401.103 703.629 392.905 709 382.5C713.405 391.29 716.341 401.126 711 412.5L683.5 405Z" stroke="#0F0F0F"/>
<path d="M711.5 523.503C695 538.431 683 502.003 647 500.503V465.003C647 465.003 674.988 464.533 687.5 476.003C699.5 487.003 725.316 511.003 711.5 523.503Z" fill="#494949" stroke="#494949"/>
<path d="M568.706 615.949C560 606.5 557.795 598.606 546.5 599.949C554.25 578.435 545.954 581.557 594.066 564.375C610.103 558.647 626.707 596.614 617.105 612.227C581.737 656.627 642.443 667.962 614.105 697.911C590.701 689.122 572.524 679.376 560 667C568.785 652.14 574.887 629.718 568.706 615.949Z" fill="#494949"/>
<path d="M311 497.5C311 422 345 399 422 399C366.5 442 362 508.5 413 508.5C464 508.5 482.5 477.83 482.5 442C485.296 272.521 552.5 211.517 628 209C703.239 206.492 878.282 276.512 787.457 375.962C786.905 376.566 785.973 376.796 785.209 376.503C698.615 343.285 672 358.202 672 399C786.5 413.5 776.5 437 766 454.5C755.5 472 649 409 649 454.5V527C649 582 576.5 613.5 422 613.5C349.5 613.5 311 573 311 497.5Z" fill="#0F0F0F" stroke="#0F0F0F"/>
<path d="M504.5 622C495.5 611.5 487.728 609.602 482.5 599.5C505.366 599.192 509.5 583 542.5 622C553.5 635 542.992 669.501 525 666C471 648.5 490.5 690 452.5 674C452.5 649 465.318 630.575 472.5 614.5C489.5 617.5 493.783 632.627 504.5 622Z" fill="#0F0F0F" stroke="#0F0F0F"/>
<path d="M700.5 535C684 549.929 672 513.5 636 512V476.5C636 476.5 663.988 476.031 676.5 487.5C688.5 498.5 714.316 522.5 700.5 535Z" fill="#0F0F0F" stroke="#0F0F0F"/>
<path d="M640.5 271.5C666 271.5 670.5 288 670.5 318C646.5 318 640.5 302.5 640.5 271.5Z" fill="#F0F0F0" stroke="#F0F0F0"/>
</g>
<path d="M78.8594 110.297V75.6562H62.9688V105.984H50.9688V75.6562H22V61.3125L91 61.3125V110.297H78.8594ZM46.8438 149.344V134.672H22V120.328H91.0938V150.422C91.0938 157.359 89.3125 162.891 85.75 167.016C82.1875 171.141 76.6719 173.203 69.2031 173.203C61.0469 173.203 55.2813 171.141 51.9063 167.016C48.5313 162.891 46.8438 157 46.8438 149.344ZM61.2344 156.094C62.8906 157.969 65.5156 158.906 69.1094 158.906C72.7031 158.906 75.2656 157.953 76.7969 156.047C78.3281 154.172 79.0938 151.531 79.0938 148.125V134.672H58.75V148.125C58.75 151.531 59.5781 154.188 61.2344 156.094ZM23.6875 226.406C21.3438 222.594 20.1719 217.906 20.1719 212.344C20.1719 203.188 23.3438 195.688 29.6875 189.844C36.0625 183.75 44.7813 180.703 55.8438 180.703C67.0312 180.703 76 183.781 82.75 189.938C89.5 196.094 92.875 204.234 92.875 214.359C92.875 223.141 90.6406 230.188 86.1719 235.5C81.7344 240.844 76.1875 243.906 69.5313 244.688V230.484C74.25 229.391 77.5469 226.719 79.4219 222.469C80.4531 220.094 80.9688 217.453 80.9688 214.547C80.9688 208.984 78.8594 204.406 74.6406 200.812C70.4531 197.25 64.1406 195.469 55.7031 195.469C47.2031 195.469 41.1875 197.406 37.6563 201.281C34.125 205.156 32.3594 209.562 32.3594 214.5C32.3594 219.344 33.75 223.312 36.5313 226.406C39.3438 229.5 43.0156 231.406 47.5469 232.125L47.5469 216.141H59.0781L59.0781 244.922H22V235.359L30.625 233.906C27.3438 231.125 25.0313 228.625 23.6875 226.406ZM36.2031 299.203V273.75L22 268.969V253.875L91.0938 278.531V294.844L22 319.312V303.656L36.2031 299.203ZM48.1094 295.172L75.2969 286.547L48.1094 277.641V295.172ZM49.0938 380.625V365.719H22V351.609H91.0938L91.0938 385.5C91 390.344 90.4063 394.062 89.3125 396.656C88.2188 399.281 86.6094 401.5 84.4844 403.312C82.7344 404.812 80.7969 406 78.6719 406.875C76.5469 407.75 74.125 408.188 71.4063 408.188C68.125 408.188 64.8906 407.359 61.7031 405.703C58.5469 404.047 56.3125 401.312 55 397.5C53.7188 400.688 51.8906 402.938 49.5156 404.25C47.1719 405.594 43.5781 406.266 38.7344 406.266H34.0938C30.9375 406.266 28.7969 406.391 27.6719 406.641C25.8906 407.016 24.5781 407.891 23.7344 409.266H22L22 393.375C23.5313 392.938 24.7656 392.625 25.7031 392.438C27.6406 392.062 29.625 391.859 31.6563 391.828L38.0781 391.734C42.4844 391.672 45.4219 390.859 46.8906 389.297C48.3594 387.766 49.0938 384.875 49.0938 380.625ZM61.6563 389.391C62.9688 392.266 65.5625 393.703 69.4375 393.703C73.625 393.703 76.4375 392.312 77.875 389.531C78.6875 387.969 79.0938 385.625 79.0938 382.5L79.0938 365.719H60.5313V382.078C60.5313 385.328 60.9063 387.766 61.6563 389.391ZM52.1875 468.75L52.1875 435.188H34.4219V473.438H22V421.078H91.0938V471.75H78.8594V435.188H64.1875V468.75H52.1875ZM91.0938 534.891H78.8594V514.219H22V499.688H78.8594V478.922H91.0938V534.891ZM49.0938 572.719V557.812H22V543.703H91.0938V577.594C91 582.438 90.4063 586.156 89.3125 588.75C88.2188 591.375 86.6094 593.594 84.4844 595.406C82.7344 596.906 80.7969 598.094 78.6719 598.969C76.5469 599.844 74.125 600.281 71.4063 600.281C68.125 600.281 64.8906 599.453 61.7031 597.797C58.5469 596.141 56.3125 593.406 55 589.594C53.7188 592.781 51.8906 595.031 49.5156 596.344C47.1719 597.688 43.5781 598.359 38.7344 598.359H34.0938C30.9375 598.359 28.7969 598.484 27.6719 598.734C25.8906 599.109 24.5781 599.984 23.7344 601.359H22V585.469C23.5313 585.031 24.7656 584.719 25.7031 584.531C27.6406 584.156 29.625 583.953 31.6563 583.922L38.0781 583.828C42.4844 583.766 45.4219 582.953 46.8906 581.391C48.3594 579.859 49.0938 576.969 49.0938 572.719ZM61.6563 581.484C62.9688 584.359 65.5625 585.797 69.4375 585.797C73.625 585.797 76.4375 584.406 77.875 581.625C78.6875 580.062 79.0938 577.719 79.0938 574.594V557.812H60.5313V574.172C60.5313 577.422 60.9063 579.859 61.6563 581.484ZM20.0781 643.312C20.0781 633.438 22.7656 625.891 28.1406 620.672C34.7344 613.672 44.2344 610.172 56.6406 610.172C69.2969 610.172 78.7969 613.672 85.1406 620.672C90.5156 625.891 93.2031 633.438 93.2031 643.312C93.2031 653.188 90.5156 660.734 85.1406 665.953C78.7969 672.922 69.2969 676.406 56.6406 676.406C44.2344 676.406 34.7344 672.922 28.1406 665.953C22.7656 660.734 20.0781 653.188 20.0781 643.312ZM38.6406 656.953C42.8594 660.297 48.8594 661.969 56.6406 661.969C64.3906 661.969 70.375 660.281 74.5938 656.906C78.8438 653.562 80.9688 649.031 80.9688 643.312C80.9688 637.594 78.8594 633.031 74.6406 629.625C70.4219 626.219 64.4219 624.516 56.6406 624.516C48.8594 624.516 42.8594 626.219 38.6406 629.625C34.4219 633.031 32.3125 637.594 32.3125 643.312C32.3125 649.031 34.4219 653.578 38.6406 656.953ZM27.1563 762.938C22.4375 757.781 20.0781 751.188 20.0781 743.156C20.0781 733.219 23.2656 725.406 29.6406 719.719C36.0469 714.031 44.8281 711.188 55.9844 711.188C68.0469 711.188 77.3438 714.422 83.875 720.891C89.5625 726.516 92.4063 733.672 92.4063 742.359C92.4063 753.984 88.5938 762.484 80.9688 767.859C76.6875 770.828 72.3906 772.422 68.0781 772.641V758.203C71.3906 757.266 73.8906 756.062 75.5781 754.594C78.5781 751.969 80.0781 748.078 80.0781 742.922C80.0781 737.672 77.9531 733.531 73.7031 730.5C69.4844 727.469 63.5 725.953 55.75 725.953C48 725.953 42.1875 727.547 38.3125 730.734C34.4688 733.953 32.5469 738.031 32.5469 742.969C32.5469 748.031 34.2031 751.891 37.5156 754.547C39.2969 756.016 41.9688 757.234 45.5313 758.203V772.5C38 771.25 31.875 768.062 27.1563 762.938ZM20.0781 814.125C20.0781 804.25 22.7656 796.703 28.1406 791.484C34.7344 784.484 44.2344 780.984 56.6406 780.984C69.2969 780.984 78.7969 784.484 85.1406 791.484C90.5156 796.703 93.2031 804.25 93.2031 814.125C93.2031 824 90.5156 831.547 85.1406 836.766C78.7969 843.734 69.2969 847.219 56.6406 847.219C44.2344 847.219 34.7344 843.734 28.1406 836.766C22.7656 831.547 20.0781 824 20.0781 814.125ZM38.6406 827.766C42.8594 831.109 48.8594 832.781 56.6406 832.781C64.3906 832.781 70.375 831.094 74.5938 827.719C78.8438 824.375 80.9688 819.844 80.9688 814.125C80.9688 808.406 78.8594 803.844 74.6406 800.438C70.4219 797.031 64.4219 795.328 56.6406 795.328C48.8594 795.328 42.8594 797.031 38.6406 800.438C34.4219 803.844 32.3125 808.406 32.3125 814.125C32.3125 819.844 34.4219 824.391 38.6406 827.766ZM22 914.156V899.719L71.0781 871.5H22L22 858.047H91.0938V873.188L42.8594 900.703H91.0938V914.156H22ZM31.9844 952.734C31.9844 956.141 32.3594 958.906 33.1094 961.031C34.5469 965.062 37.2188 967.078 41.125 967.078C43.4063 967.078 45.1719 966.078 46.4219 964.078C47.6406 962.078 48.7188 958.938 49.6563 954.656L51.2969 947.344C52.9219 940.156 54.6875 935.188 56.5938 932.438C59.7813 927.781 64.7656 925.453 71.5469 925.453C77.7344 925.453 82.875 927.703 86.9688 932.203C91.0625 936.703 93.1094 943.312 93.1094 952.031C93.1094 959.312 91.1719 965.516 87.2969 970.641C83.4531 975.797 77.8594 978.5 70.5156 978.75V964.875C74.6719 964.625 77.625 962.812 79.375 959.438C80.5313 957.188 81.1094 954.391 81.1094 951.047C81.1094 947.328 80.3594 944.359 78.8594 942.141C77.3594 939.922 75.2656 938.812 72.5781 938.812C70.1094 938.812 68.2656 939.906 67.0469 942.094C66.2344 943.5 65.2813 946.5 64.1875 951.094L61.3281 963C60.0781 968.219 58.4063 972.156 56.3125 974.812C53.0625 978.938 48.3594 981 42.2031 981C35.8906 981 30.6406 978.578 26.4531 973.734C22.2969 968.922 20.2188 962.109 20.2188 953.297C20.2188 944.297 22.2656 937.219 26.3594 932.062C30.4844 926.906 36.1406 924.328 43.3281 924.328V938.109C40.1719 938.547 37.8125 939.406 36.25 940.688C33.4063 943.031 31.9844 947.047 31.9844 952.734ZM35.9688 990.375V1004.58H22V990.375H35.9688Z" fill="#F0F0F0"/>
<path d="M300 904C295.582 904 292 907.582 292 912C292 916.418 295.582 920 300 920L300 904ZM1024 904L300 904L300 920L1024 920L1024 904Z" fill="#F0F0F0"/>
<path d="M104 846C104 850.418 107.582 854 112 854C116.418 854 120 850.418 120 846L104 846ZM104 -3.49691e-07L104 846L120 846L120 3.49691e-07L104 -3.49691e-07Z" fill="#F0F0F0"/>
<path d="M866.059 942.117C867.677 940.055 870.456 939.023 874.395 939.023C876.958 939.023 879.236 939.532 881.227 940.549C883.217 941.566 884.213 943.485 884.213 946.307V957.049C884.213 957.794 884.227 958.696 884.256 959.756C884.299 960.558 884.421 961.102 884.621 961.389C884.822 961.675 885.122 961.911 885.523 962.098V963H878.863C878.677 962.527 878.548 962.083 878.477 961.668C878.405 961.253 878.348 960.78 878.305 960.25C877.46 961.167 876.486 961.947 875.383 962.592C874.065 963.351 872.576 963.73 870.914 963.73C868.794 963.73 867.04 963.129 865.65 961.926C864.275 960.708 863.588 958.99 863.588 956.77C863.588 953.891 864.698 951.807 866.918 950.518C868.135 949.816 869.926 949.314 872.289 949.014L874.373 948.756C875.505 948.613 876.314 948.434 876.801 948.219C877.674 947.846 878.111 947.266 878.111 946.479C878.111 945.519 877.775 944.86 877.102 944.502C876.443 944.13 875.469 943.943 874.18 943.943C872.733 943.943 871.709 944.301 871.107 945.018C870.678 945.548 870.391 946.264 870.248 947.166H864.34C864.469 945.118 865.042 943.435 866.059 942.117ZM870.613 958.574C871.186 959.047 871.888 959.283 872.719 959.283C874.036 959.283 875.247 958.896 876.35 958.123C877.467 957.35 878.047 955.939 878.09 953.891V951.613C877.703 951.857 877.309 952.057 876.908 952.215C876.521 952.358 875.984 952.494 875.297 952.623L873.922 952.881C872.633 953.11 871.709 953.389 871.15 953.719C870.205 954.277 869.732 955.144 869.732 956.318C869.732 957.364 870.026 958.116 870.613 958.574ZM889.799 931.332H895.922V963H889.799V931.332ZM919.684 963L916.01 945.941L912.293 963H905.934L899.359 939.582H905.934L909.586 956.383L912.959 939.582H919.168L922.734 956.447L926.387 939.582H932.768L925.979 963H919.684ZM945.68 956.855L950.514 939.582H957.023L948.988 962.613C947.441 967.053 946.217 969.803 945.314 970.863C944.412 971.938 942.607 972.475 939.9 972.475C939.356 972.475 938.919 972.467 938.59 972.453C938.26 972.453 937.766 972.432 937.107 972.389V967.49L937.881 967.533C938.482 967.562 939.055 967.54 939.6 967.469C940.144 967.397 940.602 967.232 940.975 966.975C941.333 966.731 941.662 966.223 941.963 965.449C942.278 964.676 942.407 964.203 942.35 964.031L933.756 939.582H940.566L945.68 956.855ZM971.676 944.115C969.599 944.115 968.174 944.996 967.4 946.758C966.999 947.689 966.799 948.878 966.799 950.324V963H960.697V939.625H966.605V943.041C967.393 941.838 968.138 940.971 968.84 940.441C970.1 939.496 971.697 939.023 973.631 939.023C976.051 939.023 978.028 939.661 979.561 940.936C981.107 942.196 981.881 944.294 981.881 947.23V963H975.607V948.756C975.607 947.524 975.443 946.579 975.113 945.92C974.512 944.717 973.366 944.115 971.676 944.115ZM985.705 947.832H998.037V953.633H985.705V947.832ZM1012.93 958.639V963.215L1010.03 963.322C1007.13 963.423 1005.16 962.921 1004.1 961.818C1003.41 961.117 1003.06 960.035 1003.06 958.574V944.158H999.799V939.797H1003.06V933.266H1009.12V939.797H1012.93V944.158H1009.12V956.533C1009.12 957.493 1009.24 958.094 1009.49 958.338C1009.73 958.567 1010.48 958.682 1011.72 958.682C1011.91 958.682 1012.1 958.682 1012.3 958.682C1012.52 958.667 1012.73 958.653 1012.93 958.639ZM808.867 989.186C808.137 988.312 807.091 987.875 805.73 987.875C803.868 987.875 802.601 988.57 801.928 989.959C801.541 990.761 801.312 992.036 801.24 993.783H795.289C795.389 991.133 795.869 988.992 796.729 987.359C798.361 984.251 801.262 982.697 805.43 982.697C808.724 982.697 811.345 983.614 813.293 985.447C815.241 987.266 816.215 989.68 816.215 992.688C816.215 994.993 815.527 997.042 814.152 998.832C813.25 1000.02 811.768 1001.35 809.705 1002.81L807.256 1004.55C805.723 1005.64 804.671 1006.42 804.098 1006.91C803.539 1007.4 803.066 1007.96 802.68 1008.61H816.279V1014H794.945C795.003 1011.77 795.482 1009.72 796.385 1007.88C797.258 1005.8 799.321 1003.6 802.572 1001.28C805.394 999.262 807.22 997.815 808.051 996.941C809.326 995.581 809.963 994.091 809.963 992.473C809.963 991.155 809.598 990.059 808.867 989.186ZM830.18 1014.77C826.212 1014.77 823.426 1013.38 821.822 1010.61C820.232 1007.83 819.438 1003.87 819.438 998.725C819.438 993.583 820.232 989.615 821.822 986.822C823.426 984.029 826.212 982.633 830.18 982.633C834.147 982.633 836.933 984.029 838.537 986.822C840.127 989.615 840.922 993.583 840.922 998.725C840.922 1003.87 840.12 1007.83 838.516 1010.61C836.926 1013.38 834.147 1014.77 830.18 1014.77ZM833.768 1006.93C834.326 1005.04 834.605 1002.31 834.605 998.725C834.605 994.972 834.319 992.193 833.746 990.389C833.188 988.584 831.999 987.682 830.18 987.682C828.361 987.682 827.158 988.584 826.57 990.389C825.983 992.193 825.689 994.972 825.689 998.725C825.689 1002.31 825.983 1005.05 826.57 1006.95C827.158 1008.84 828.361 1009.79 830.18 1009.79C831.999 1009.79 833.195 1008.84 833.768 1006.93ZM857.852 989.186C857.121 988.312 856.076 987.875 854.715 987.875C852.853 987.875 851.585 988.57 850.912 989.959C850.525 990.761 850.296 992.036 850.225 993.783H844.273C844.374 991.133 844.854 988.992 845.713 987.359C847.346 984.251 850.246 982.697 854.414 982.697C857.708 982.697 860.329 983.614 862.277 985.447C864.225 987.266 865.199 989.68 865.199 992.688C865.199 994.993 864.512 997.042 863.137 998.832C862.234 1000.02 860.752 1001.35 858.689 1002.81L856.24 1004.55C854.708 1005.64 853.655 1006.42 853.082 1006.91C852.523 1007.4 852.051 1007.96 851.664 1008.61H865.264V1014H843.93C843.987 1011.77 844.467 1009.72 845.369 1007.88C846.243 1005.8 848.305 1003.6 851.557 1001.28C854.378 999.262 856.204 997.815 857.035 996.941C858.31 995.581 858.947 994.091 858.947 992.473C858.947 991.155 858.582 990.059 857.852 989.186ZM875.469 989.057C874.781 989.973 874.452 991.198 874.48 992.73H868.766C868.823 991.184 869.088 989.715 869.561 988.326C870.062 987.109 870.85 985.984 871.924 984.953C872.726 984.223 873.678 983.664 874.781 983.277C875.884 982.891 877.238 982.697 878.842 982.697C881.821 982.697 884.22 983.471 886.039 985.018C887.872 986.55 888.789 988.613 888.789 991.205C888.789 993.038 888.245 994.585 887.156 995.846C886.469 996.633 885.753 997.171 885.008 997.457C885.566 997.457 886.368 997.937 887.414 998.896C888.975 1000.34 889.756 1002.32 889.756 1004.83C889.756 1007.46 888.839 1009.78 887.006 1011.79C885.187 1013.78 882.487 1014.77 878.906 1014.77C874.495 1014.77 871.43 1013.33 869.711 1010.46C868.809 1008.92 868.307 1006.92 868.207 1004.44H874.223C874.223 1005.69 874.423 1006.72 874.824 1007.53C875.569 1009.04 876.923 1009.79 878.885 1009.79C880.088 1009.79 881.133 1009.38 882.021 1008.56C882.924 1007.73 883.375 1006.54 883.375 1005C883.375 1002.95 882.544 1001.58 880.883 1000.89C879.938 1000.51 878.448 1000.31 876.414 1000.31V995.932C878.405 995.903 879.794 995.71 880.582 995.352C881.943 994.75 882.623 993.533 882.623 991.699C882.623 990.51 882.272 989.544 881.57 988.799C880.883 988.054 879.909 987.682 878.648 987.682C877.202 987.682 876.142 988.14 875.469 989.057ZM889.133 1014L901.4 981.365H906.492L894.182 1014H889.133ZM920.436 1014H914.162V992.516H906.836V988.348C908.77 988.262 910.123 988.133 910.896 987.961C912.128 987.689 913.131 987.145 913.904 986.328C914.434 985.77 914.835 985.025 915.107 984.094C915.265 983.535 915.344 983.12 915.344 982.848H920.436V1014ZM943.574 989.186C942.844 988.312 941.798 987.875 940.438 987.875C938.576 987.875 937.308 988.57 936.635 989.959C936.248 990.761 936.019 992.036 935.947 993.783H929.996C930.096 991.133 930.576 988.992 931.436 987.359C933.068 984.251 935.969 982.697 940.137 982.697C943.431 982.697 946.052 983.614 948 985.447C949.948 987.266 950.922 989.68 950.922 992.688C950.922 994.993 950.234 997.042 948.859 998.832C947.957 1000.02 946.475 1001.35 944.412 1002.81L941.963 1004.55C940.43 1005.64 939.378 1006.42 938.805 1006.91C938.246 1007.4 937.773 1007.96 937.387 1008.61H950.986V1014H929.652C929.71 1011.77 930.189 1009.72 931.092 1007.88C931.965 1005.8 934.028 1003.6 937.279 1001.28C940.101 999.262 941.927 997.815 942.758 996.941C944.033 995.581 944.67 994.091 944.67 992.473C944.67 991.155 944.305 990.059 943.574 989.186ZM950.363 1014L962.631 981.365H967.723L955.412 1014H950.363ZM980.312 989.186C979.582 988.312 978.536 987.875 977.176 987.875C975.314 987.875 974.046 988.57 973.373 989.959C972.986 990.761 972.757 992.036 972.686 993.783H966.734C966.835 991.133 967.314 988.992 968.174 987.359C969.807 984.251 972.707 982.697 976.875 982.697C980.169 982.697 982.79 983.614 984.738 985.447C986.686 987.266 987.66 989.68 987.66 992.688C987.66 994.993 986.973 997.042 985.598 998.832C984.695 1000.02 983.213 1001.35 981.15 1002.81L978.701 1004.55C977.169 1005.64 976.116 1006.42 975.543 1006.91C974.984 1007.4 974.512 1007.96 974.125 1008.61H987.725V1014H966.391C966.448 1011.77 966.928 1009.72 967.83 1007.88C968.704 1005.8 970.766 1003.6 974.018 1001.28C976.839 999.262 978.665 997.815 979.496 996.941C980.771 995.581 981.408 994.091 981.408 992.473C981.408 991.155 981.043 990.059 980.312 989.186ZM1006.16 1014H999.885V992.516H992.559V988.348C994.492 988.262 995.846 988.133 996.619 987.961C997.851 987.689 998.854 987.145 999.627 986.328C1000.16 985.77 1000.56 985.025 1000.83 984.094C1000.99 983.535 1001.07 983.12 1001.07 982.848H1006.16V1014Z" fill="#F0F0F0"/>
</g>
<defs>
<clipPath id="clip0_603_2">
<rect width="1024" height="1024" fill="white"/>
</clipPath>
</defs>
</svg>
