<svg width="896" height="896" viewBox="0 0 896 896" fill="none" xmlns="http://www.w3.org/2000/svg">
<g style="mix-blend-mode:exclusion">
<rect width="896" height="896" rx="204" fill="#F0F0F0"/>
<path d="M629.5 395.5C632.5 405 632.875 417.564 628 427L606 418C618.279 413.497 623.702 405.354 629.5 395.5Z" fill="#0F0F0F"/>
<path d="M644 397C644.688 386.131 643.441 375.323 637 365.5L659.5 370C661.086 379.965 652.04 389.443 644 397Z" fill="#0F0F0F"/>
<path d="M609.5 385.5C609.5 385.5 603.724 364.756 593.5 356.682L617.5 359C618.62 368.368 609.5 385.5 609.5 385.5Z" fill="#0F0F0F"/>
<path d="M555.5 405C566.713 401.103 575.629 392.905 581 382.5C585.405 391.29 588.341 401.126 583 412.5L555.5 405Z" fill="#0F0F0F"/>
<path d="M629.5 395.5C632.5 405 632.875 417.564 628 427L606 418C618.279 413.497 623.702 405.354 629.5 395.5Z" stroke="#0F0F0F"/>
<path d="M644 397C644.688 386.131 643.441 375.323 637 365.5L659.5 370C661.086 379.965 652.04 389.443 644 397Z" stroke="#0F0F0F"/>
<path d="M609.5 385.5C609.5 385.5 603.724 364.756 593.5 356.682L617.5 359C618.62 368.368 609.5 385.5 609.5 385.5Z" stroke="#0F0F0F"/>
<path d="M555.5 405C566.713 401.103 575.629 392.905 581 382.5C585.405 391.29 588.341 401.126 583 412.5L555.5 405Z" stroke="#0F0F0F"/>
<path d="M583.5 523.503C567 538.431 555 502.003 519 500.503V465.003C519 465.003 546.988 464.533 559.5 476.003C571.5 487.003 597.316 511.003 583.5 523.503Z" fill="#494949" stroke="#494949"/>
<path d="M440.706 615.949C432 606.5 429.795 598.606 418.5 599.949C426.25 578.435 417.954 581.557 466.066 564.375C482.103 558.647 498.707 596.614 489.105 612.227C453.737 656.627 514.443 667.962 486.105 697.911C462.701 689.122 444.524 679.376 432 667C440.785 652.14 446.887 629.718 440.706 615.949Z" fill="#494949"/>
<path d="M183 497.5C183 422 217 399 294 399C238.5 442 234 508.5 285 508.5C336 508.5 354.5 477.83 354.5 442C357.296 272.521 424.5 211.517 500 209C575.239 206.492 750.282 276.512 659.457 375.962C658.905 376.566 657.973 376.796 657.209 376.503C570.615 343.285 544 358.202 544 399C658.5 413.5 648.5 437 638 454.5C627.5 472 521 409 521 454.5V527C521 582 448.5 613.5 294 613.5C221.5 613.5 183 573 183 497.5Z" fill="#0F0F0F" stroke="#0F0F0F"/>
<path d="M376.5 622C367.5 611.5 359.728 609.602 354.5 599.5C377.366 599.192 381.5 583 414.5 622C425.5 635 414.992 669.501 397 666C343 648.5 362.5 690 324.5 674C324.5 649 337.318 630.575 344.5 614.5C361.5 617.5 365.783 632.627 376.5 622Z" fill="#0F0F0F" stroke="#0F0F0F"/>
<path d="M572.5 535C556 549.929 544 513.5 508 512V476.5C508 476.5 535.988 476.031 548.5 487.5C560.5 498.5 586.316 522.5 572.5 535Z" fill="#0F0F0F" stroke="#0F0F0F"/>
<path d="M512.5 271.5C538 271.5 542.5 288 542.5 318C518.5 318 512.5 302.5 512.5 271.5Z" fill="#F0F0F0" stroke="#F0F0F0"/>
</g>
</svg>
