<?xml version="1.0" encoding="UTF-8" standalone="no"?>
<svg
   viewBox="0 0 1024 1024"
   fill="none"
   version="1.1"
   id="svg304"
   sodipodi:docname="DYNAMIC PADDLE.svg"
   inkscape:version="1.2.2 (b0a84865, 2022-12-01)"
   xmlns:inkscape="http://www.inkscape.org/namespaces/inkscape"
   xmlns:sodipodi="http://sodipodi.sourceforge.net/DTD/sodipodi-0.dtd"
   xmlns="http://www.w3.org/2000/svg"
   xmlns:svg="http://www.w3.org/2000/svg"
   xmlns:rdf="http://www.w3.org/1999/02/22-rdf-syntax-ns#"
   xmlns:cc="http://creativecommons.org/ns#"
   xmlns:dc="http://purl.org/dc/elements/1.1/">
  <title
     id="title1002">Dynamic Paddle</title>
  <sodipodi:namedview
     id="namedview306"
     pagecolor="#ffffff"
     bordercolor="#111111"
     borderopacity="1"
     inkscape:showpageshadow="0"
     inkscape:pageopacity="0"
     inkscape:pagecheckerboard="1"
     inkscape:deskcolor="#d1d1d1"
     showgrid="false"
     inkscape:zoom="0.23046875"
     inkscape:cx="-488.13559"
     inkscape:cy="453.42373"
     inkscape:window-width="1390"
     inkscape:window-height="1205"
     inkscape:window-x="252"
     inkscape:window-y="25"
     inkscape:window-maximized="0"
     inkscape:current-layer="svg304" />
  <g
     clip-path="url(#clip1_0_1)"
     id="g180"
     transform="translate(-1088)">
    <rect
       x="1088"
       width="1024"
       height="1024"
       rx="32"
       fill="#0f0f0f"
       id="rect160"
       y="0" />
    <g
       style="mix-blend-mode:exclusion"
       id="g170">
      <rect
         x="1216"
         width="896"
         height="896"
         rx="204"
         fill="#f0f0f0"
         id="rect162"
         y="0" />
      <rect
         x="1396"
         y="504"
         width="512"
         height="128"
         rx="64"
         fill="#0f0f0f"
         id="rect164" />
      <rect
         x="1600"
         y="260"
         width="128"
         height="160"
         rx="64"
         fill="#aeaeae"
         id="rect166" />
      <circle
         cx="1664"
         cy="324"
         r="64"
         fill="#0f0f0f"
         id="circle168" />
    </g>
    <path
       d="M 1110,91.0781 V 61.3125 h 69.09 v 29.7656 c -0.06,4.2813 -0.56,7.8438 -1.5,10.6879 -1.59,4.843 -4.51,8.765 -8.76,11.765 -3.44,2.407 -7.16,4.047 -11.16,4.922 -4,0.875 -7.81,1.313 -11.44,1.313 -9.18,0 -16.96,-1.844 -23.34,-5.532 -8.59,-5 -12.89,-12.718 -12.89,-23.1559 z m 51.47,10.7339 c 3.75,-2.2182 5.62,-6.6089 5.62,-13.1714 V 75.3281 H 1122 v 13.3125 c 0,6.8125 3.36,11.5624 10.08,14.2504 3.69,1.468 8.08,2.203 13.17,2.203 7.03,0 12.44,-1.094 16.22,-3.282 z m 17.62,84.657 -43.12,-23.11 H 1110 v -14.437 h 25.97 l 43.12,-23.906 v 17.015 l -30.09,14.344 30.09,13.734 z M 1110,250.594 v -14.438 l 49.08,-28.218 H 1110 v -13.454 h 69.09 v 15.141 l -48.23,27.516 h 48.23 v 13.453 z m 14.2,53.953 v -25.453 l -14.2,-4.782 v -15.093 l 69.09,24.656 v 16.313 L 1110,324.656 V 309 Z m 11.91,-4.031 27.19,-8.625 -27.19,-8.907 z M 1110,346.688 v -13.454 h 69.09 v 21 l -54.32,12.563 54.32,12.469 v 20.765 H 1110 v -13.453 h 46.73 c 1.35,0 3.22,0.016 5.63,0.047 2.44,0.031 4.31,0.047 5.62,0.047 L 1110,373.594 v -14.016 l 57.98,-12.984 c -1.31,0 -3.18,0.015 -5.62,0.047 -2.41,0.031 -4.28,0.047 -5.63,0.047 z m 69.09,65.624 v 14.344 H 1110 v -14.344 z m -63.93,76.594 c -4.72,-5.156 -7.08,-11.75 -7.08,-19.781 0,-9.937 3.19,-17.75 9.56,-23.437 6.41,-5.688 15.19,-8.532 26.34,-8.532 12.07,0 21.36,3.235 27.9,9.703 5.68,5.625 8.53,12.782 8.53,21.469 0,11.625 -3.82,20.125 -11.44,25.5 -4.28,2.969 -8.58,4.563 -12.89,4.781 v -14.437 c 3.31,-0.938 5.81,-2.141 7.5,-3.61 3,-2.624 4.5,-6.515 4.5,-11.671 0,-5.25 -2.13,-9.391 -6.38,-12.422 -4.22,-3.031 -10.2,-4.547 -17.95,-4.547 -7.75,0 -13.56,1.594 -17.44,4.781 -3.84,3.219 -5.76,7.297 -5.76,12.235 0,5.062 1.65,8.921 4.97,11.578 1.78,1.468 4.45,2.687 8.01,3.656 v 14.297 c -7.53,-1.25 -13.65,-4.438 -18.37,-9.563 z m 19.68,76.688 V 550.922 H 1110 v -14.344 h 69.09 v 30.094 c 0,6.937 -1.78,12.469 -5.34,16.594 -3.56,4.125 -9.08,6.187 -16.55,6.187 -8.15,0 -13.92,-2.062 -17.29,-6.187 -3.38,-4.125 -5.07,-10.016 -5.07,-17.672 z m 14.39,6.75 c 1.66,1.875 4.29,2.812 7.88,2.812 3.59,0 6.16,-0.953 7.69,-2.859 1.53,-1.875 2.29,-4.516 2.29,-7.922 v -13.453 h -20.34 v 13.453 c 0,3.406 0.83,6.063 2.48,7.969 z m -25.03,61.265 v -25.453 l -14.2,-4.781 v -15.094 l 69.09,24.657 V 629.25 L 1110,653.719 v -15.657 z m 11.91,-4.031 27.19,-8.625 -27.19,-8.906 z M 1110,692.297 v -29.766 h 69.09 v 29.766 c -0.06,4.281 -0.56,7.844 -1.5,10.687 -1.59,4.844 -4.51,8.766 -8.76,11.766 -3.44,2.406 -7.16,4.047 -11.16,4.922 -4,0.875 -7.81,1.312 -11.44,1.312 -9.18,0 -16.96,-1.843 -23.34,-5.531 -8.59,-5 -12.89,-12.719 -12.89,-23.156 z m 51.47,10.734 c 3.75,-2.219 5.62,-6.609 5.62,-13.172 V 676.547 H 1122 v 13.312 c 0,6.813 3.36,11.563 10.08,14.25 3.69,1.469 8.08,2.203 13.17,2.203 7.03,0 12.44,-1.093 16.22,-3.281 z M 1110,761.672 v -29.766 h 69.09 v 29.766 c -0.06,4.281 -0.56,7.844 -1.5,10.687 -1.59,4.844 -4.51,8.766 -8.76,11.766 -3.44,2.406 -7.16,4.047 -11.16,4.922 -4,0.875 -7.81,1.312 -11.44,1.312 -9.18,0 -16.96,-1.843 -23.34,-5.531 -8.59,-5 -12.89,-12.719 -12.89,-23.156 z m 51.47,10.734 c 3.75,-2.218 5.62,-6.609 5.62,-13.172 V 745.922 H 1122 v 13.312 c 0,6.813 3.36,11.563 10.08,14.25 3.69,1.469 8.08,2.204 13.17,2.204 7.03,0 12.44,-1.094 16.22,-3.282 z m 17.62,28.875 v 14.438 h -56.67 v 34.219 H 1110 v -48.657 z m -38.9,106.781 V 874.5 h -17.77 v 38.25 H 1110 v -52.359 h 69.09 v 50.671 h -12.23 V 874.5 h -14.67 v 33.562 z"
       fill="#f0f0f0"
       id="path172" />
    <path
       d="m 1388,904 c -4.42,0 -8,3.582 -8,8 0,4.418 3.58,8 8,8 z m 724,0 h -724 v 16 h 724 z"
       fill="#f0f0f0"
       id="path174" />
    <path
       d="m 1192,846 c 0,4.418 3.58,8 8,8 4.42,0 8,-3.582 8,-8 z M 1192,-3.49691e-7 V 846 h 16 V 3.49691e-7 Z"
       fill="#f0f0f0"
       id="path176" />
    <path
       d="m 1954.06,942.117 c 1.62,-2.062 4.4,-3.094 8.33,-3.094 2.57,0 4.85,0.509 6.84,1.526 1.99,1.017 2.98,2.936 2.98,5.758 v 10.742 c 0,0.745 0.02,1.647 0.05,2.707 0.04,0.802 0.16,1.346 0.36,1.633 0.2,0.286 0.5,0.522 0.9,0.709 V 963 h -6.66 c -0.18,-0.473 -0.31,-0.917 -0.38,-1.332 -0.08,-0.415 -0.13,-0.888 -0.18,-1.418 -0.84,0.917 -1.81,1.697 -2.92,2.342 -1.31,0.759 -2.8,1.138 -4.47,1.138 -2.12,0 -3.87,-0.601 -5.26,-1.804 -1.37,-1.218 -2.06,-2.936 -2.06,-5.156 0,-2.879 1.11,-4.963 3.33,-6.252 1.22,-0.702 3.01,-1.204 5.37,-1.504 l 2.08,-0.258 c 1.13,-0.143 1.94,-0.322 2.43,-0.537 0.87,-0.373 1.31,-0.953 1.31,-1.74 0,-0.96 -0.34,-1.619 -1.01,-1.977 -0.66,-0.372 -1.63,-0.559 -2.92,-0.559 -1.45,0 -2.47,0.358 -3.07,1.075 -0.43,0.53 -0.72,1.246 -0.86,2.148 h -5.91 c 0.13,-2.048 0.7,-3.731 1.72,-5.049 z m 4.55,16.457 c 0.58,0.473 1.28,0.709 2.11,0.709 1.32,0 2.53,-0.387 3.63,-1.16 1.12,-0.773 1.7,-2.184 1.74,-4.232 v -2.278 c -0.39,0.244 -0.78,0.444 -1.18,0.602 -0.39,0.143 -0.93,0.279 -1.61,0.408 l -1.38,0.258 c -1.29,0.229 -2.21,0.508 -2.77,0.838 -0.94,0.558 -1.42,1.425 -1.42,2.599 0,1.046 0.3,1.798 0.88,2.256 z m 19.19,-27.242 h 6.12 V 963 h -6.12 z m 29.88,31.668 -3.67,-17.059 -3.72,17.059 h -6.36 l -6.57,-23.418 h 6.57 l 3.66,16.801 3.37,-16.801 h 6.21 l 3.56,16.865 3.66,-16.865 h 6.38 L 2013.98,963 Z m 26,-6.145 4.83,-17.273 h 6.51 l -8.03,23.031 c -1.55,4.44 -2.77,7.19 -3.68,8.25 -0.9,1.075 -2.7,1.612 -5.41,1.612 -0.54,0 -0.98,-0.008 -1.31,-0.022 -0.33,0 -0.82,-0.021 -1.48,-0.064 v -4.899 l 0.77,0.043 c 0.6,0.029 1.18,0.007 1.72,-0.064 0.54,-0.072 1,-0.237 1.37,-0.494 0.36,-0.244 0.69,-0.752 0.99,-1.526 0.32,-0.773 0.45,-1.246 0.39,-1.418 l -8.59,-24.449 h 6.81 z m 26,-12.74 c -2.08,0 -3.51,0.881 -4.28,2.643 -0.4,0.931 -0.6,2.12 -0.6,3.566 V 963 h -6.1 v -23.375 h 5.91 v 3.416 c 0.78,-1.203 1.53,-2.07 2.23,-2.6 1.26,-0.945 2.86,-1.418 4.79,-1.418 2.42,0 4.4,0.638 5.93,1.913 1.55,1.26 2.32,3.358 2.32,6.294 V 963 h -6.27 v -14.244 c 0,-1.232 -0.17,-2.177 -0.5,-2.836 -0.6,-1.203 -1.74,-1.805 -3.43,-1.805 z m 14.03,3.717 h 12.33 v 5.801 h -12.33 z m 27.22,10.807 v 4.576 l -2.9,0.107 c -2.9,0.101 -4.87,-0.401 -5.93,-1.504 -0.69,-0.701 -1.04,-1.783 -1.04,-3.244 v -14.416 h -3.26 v -4.361 h 3.26 v -6.531 h 6.06 v 6.531 h 3.81 v 4.361 h -3.81 v 12.375 c 0,0.96 0.12,1.561 0.37,1.805 0.24,0.229 0.99,0.344 2.23,0.344 0.19,0 0.38,0 0.58,0 0.22,-0.015 0.43,-0.029 0.63,-0.043 z m -204.06,30.547 c -0.73,-0.874 -1.78,-1.311 -3.14,-1.311 -1.86,0 -3.13,0.695 -3.8,2.084 -0.39,0.802 -0.62,2.077 -0.69,3.824 h -5.95 c 0.1,-2.65 0.58,-4.791 1.44,-6.424 1.63,-3.108 4.53,-4.662 8.7,-4.662 3.29,0 5.92,0.917 7.86,2.75 1.95,1.819 2.92,4.233 2.92,7.241 0,2.305 -0.68,4.354 -2.06,6.144 -0.9,1.188 -2.38,2.518 -4.44,3.978 l -2.45,1.74 c -1.54,1.09 -2.59,1.87 -3.16,2.36 -0.56,0.49 -1.03,1.05 -1.42,1.7 h 13.6 v 5.39 h -21.33 c 0.05,-2.23 0.53,-4.28 1.43,-6.12 0.88,-2.08 2.94,-4.28 6.19,-6.6 2.82,-2.018 4.65,-3.465 5.48,-4.339 1.28,-1.36 1.91,-2.85 1.91,-4.468 0,-1.318 -0.36,-2.414 -1.09,-3.287 z m 21.31,25.584 c -3.97,0 -6.75,-1.39 -8.36,-4.16 -1.59,-2.78 -2.38,-6.74 -2.38,-11.885 0,-5.142 0.79,-9.11 2.38,-11.903 1.61,-2.793 4.39,-4.189 8.36,-4.189 3.97,0 6.75,1.396 8.36,4.189 1.59,2.793 2.38,6.761 2.38,11.903 0,5.145 -0.8,9.105 -2.4,11.885 -1.59,2.77 -4.37,4.16 -8.34,4.16 z m 3.59,-7.84 c 0.56,-1.89 0.84,-4.62 0.84,-8.205 0,-3.753 -0.29,-6.532 -0.86,-8.336 -0.56,-1.805 -1.75,-2.707 -3.57,-2.707 -1.82,0 -3.02,0.902 -3.61,2.707 -0.59,1.804 -0.88,4.583 -0.88,8.336 0,3.585 0.29,6.325 0.88,8.225 0.59,1.89 1.79,2.84 3.61,2.84 1.82,0 3.01,-0.95 3.59,-2.86 z m 24.08,-17.744 c -0.73,-0.874 -1.77,-1.311 -3.14,-1.311 -1.86,0 -3.12,0.695 -3.8,2.084 -0.38,0.802 -0.61,2.077 -0.69,3.824 h -5.95 c 0.1,-2.65 0.58,-4.791 1.44,-6.424 1.64,-3.108 4.54,-4.662 8.7,-4.662 3.3,0 5.92,0.917 7.87,2.75 1.95,1.819 2.92,4.233 2.92,7.241 0,2.305 -0.69,4.354 -2.06,6.144 -0.91,1.188 -2.39,2.518 -4.45,3.978 l -2.45,1.74 c -1.53,1.09 -2.59,1.87 -3.16,2.36 -0.56,0.49 -1.03,1.05 -1.42,1.7 h 13.6 v 5.39 h -21.33 c 0.06,-2.23 0.54,-4.28 1.44,-6.12 0.87,-2.08 2.94,-4.28 6.19,-6.6 2.82,-2.018 4.64,-3.465 5.48,-4.339 1.27,-1.36 1.91,-2.85 1.91,-4.468 0,-1.318 -0.37,-2.414 -1.1,-3.287 z m 17.62,-0.129 c -0.69,0.916 -1.02,2.141 -0.99,3.673 h -5.71 c 0.05,-1.546 0.32,-3.015 0.79,-4.404 0.5,-1.217 1.29,-2.342 2.36,-3.373 0.81,-0.73 1.76,-1.289 2.86,-1.676 1.1,-0.386 2.46,-0.58 4.06,-0.58 2.98,0 5.38,0.774 7.2,2.321 1.83,1.532 2.75,3.595 2.75,6.187 0,1.833 -0.55,3.38 -1.63,4.641 -0.69,0.787 -1.41,1.325 -2.15,1.611 0.56,0 1.36,0.48 2.4,1.439 1.57,1.444 2.35,3.424 2.35,5.934 0,2.63 -0.92,4.95 -2.75,6.96 -1.82,1.99 -4.52,2.98 -8.1,2.98 -4.42,0 -7.48,-1.44 -9.2,-4.31 -0.9,-1.54 -1.4,-3.54 -1.5,-6.02 h 6.01 c 0,1.25 0.2,2.28 0.6,3.09 0.75,1.51 2.1,2.26 4.06,2.26 1.21,0 2.25,-0.41 3.14,-1.23 0.9,-0.83 1.36,-2.02 1.36,-3.56 0,-2.05 -0.84,-3.42 -2.5,-4.11 -0.94,-0.38 -2.43,-0.58 -4.47,-0.58 v -4.378 c 1.99,-0.029 3.38,-0.222 4.17,-0.58 1.36,-0.602 2.04,-1.819 2.04,-3.653 0,-1.189 -0.35,-2.155 -1.05,-2.9 -0.69,-0.745 -1.66,-1.117 -2.92,-1.117 -1.45,0 -2.51,0.458 -3.18,1.375 z m 13.66,24.943 12.27,-32.635 h 5.09 L 1982.18,1014 Z m 26.77,0.77 c -3.97,0 -6.75,-1.39 -8.36,-4.16 -1.58,-2.78 -2.38,-6.74 -2.38,-11.885 0,-5.142 0.8,-9.11 2.38,-11.903 1.61,-2.793 4.39,-4.189 8.36,-4.189 3.97,0 6.76,1.396 8.36,4.189 1.59,2.793 2.38,6.761 2.38,11.903 0,5.145 -0.8,9.105 -2.4,11.885 -1.59,2.77 -4.37,4.16 -8.34,4.16 z m 3.59,-7.84 c 0.56,-1.89 0.84,-4.62 0.84,-8.205 0,-3.753 -0.29,-6.532 -0.86,-8.336 -0.56,-1.805 -1.75,-2.707 -3.57,-2.707 -1.82,0 -3.02,0.902 -3.61,2.707 -0.58,1.804 -0.88,4.583 -0.88,8.336 0,3.585 0.3,6.325 0.88,8.225 0.59,1.89 1.79,2.84 3.61,2.84 1.82,0 3.02,-0.95 3.59,-2.86 z m 22.24,-13.147 c 2.76,0 5.02,0.938 6.79,2.815 1.77,1.876 2.66,4.272 2.66,7.192 0,2.91 -0.87,5.48 -2.6,7.7 -1.73,2.22 -4.43,3.33 -8.08,3.33 -3.92,0 -6.82,-1.64 -8.68,-4.92 -1.44,-2.57 -2.17,-5.88 -2.17,-9.929 0,-2.378 0.1,-4.311 0.3,-5.801 0.36,-2.65 1.06,-4.856 2.09,-6.617 0.89,-1.504 2.05,-2.714 3.48,-3.631 1.44,-0.917 3.17,-1.375 5.18,-1.375 2.89,0 5.19,0.745 6.91,2.234 1.72,1.476 2.69,3.445 2.9,5.908 h -6.1 c 0,-0.501 -0.19,-1.052 -0.58,-1.654 -0.66,-0.974 -1.65,-1.461 -2.98,-1.461 -2,0 -3.41,1.117 -4.26,3.352 -0.46,1.232 -0.77,3.051 -0.94,5.457 0.76,-0.903 1.64,-1.561 2.64,-1.977 1,-0.415 2.15,-0.623 3.44,-0.623 z m -4.13,5.844 c -1.2,0.933 -1.8,2.433 -1.8,4.513 0,1.67 0.45,3.04 1.35,4.1 0.9,1.06 2.05,1.59 3.44,1.59 1.36,0 2.43,-0.51 3.2,-1.52 0.79,-1.03 1.18,-2.37 1.18,-4 0,-1.82 -0.44,-3.21 -1.33,-4.17 -0.89,-0.971 -1.98,-1.458 -3.27,-1.458 -1.04,0 -1.97,0.315 -2.77,0.945 z m 12.76,14.373 12.27,-32.635 h 5.09 L 2043.41,1014 Z m 29.95,-24.814 c -0.73,-0.874 -1.77,-1.311 -3.13,-1.311 -1.87,0 -3.13,0.695 -3.81,2.084 -0.38,0.802 -0.61,2.077 -0.68,3.824 h -5.96 c 0.1,-2.65 0.58,-4.791 1.44,-6.424 1.64,-3.108 4.54,-4.662 8.71,-4.662 3.29,0 5.91,0.917 7.86,2.75 1.95,1.819 2.92,4.233 2.92,7.241 0,2.305 -0.69,4.354 -2.06,6.144 -0.9,1.188 -2.39,2.518 -4.45,3.978 l -2.45,1.74 c -1.53,1.09 -2.58,1.87 -3.16,2.36 -0.56,0.49 -1.03,1.05 -1.42,1.7 h 13.6 v 5.39 h -21.33 c 0.06,-2.23 0.54,-4.28 1.44,-6.12 0.87,-2.08 2.94,-4.28 6.19,-6.6 2.82,-2.018 4.65,-3.465 5.48,-4.339 1.27,-1.36 1.91,-2.85 1.91,-4.468 0,-1.318 -0.37,-2.414 -1.1,-3.287 z m 20.93,9.345 c -0.75,0 -1.39,0.093 -1.94,0.28 -0.95,0.343 -1.68,0.981 -2.17,1.909 l -5.5,-0.26 2.2,-17.204 h 17.16 v 5.199 h -12.74 l -1.12,6.811 c 0.95,-0.616 1.69,-1.024 2.22,-1.225 0.89,-0.329 1.97,-0.494 3.24,-0.494 2.58,0 4.83,0.866 6.75,2.599 1.92,1.734 2.88,4.254 2.88,7.564 0,2.88 -0.93,5.45 -2.77,7.71 -1.85,2.26 -4.62,3.4 -8.3,3.4 -2.96,0 -5.4,-0.8 -7.3,-2.39 -1.91,-1.59 -2.97,-3.84 -3.18,-6.77 h 6.1 c 0.24,1.34 0.71,2.37 1.4,3.1 0.68,0.71 1.69,1.07 3,1.07 1.52,0 2.68,-0.53 3.46,-1.59 0.8,-1.07 1.21,-2.42 1.21,-4.04 0,-1.59 -0.38,-2.93 -1.12,-4.01 -0.75,-1.107 -1.91,-1.659 -3.48,-1.659 z"
       fill="#f0f0f0"
       id="path178" />
  </g>
  <defs
     id="defs302">
    <clipPath
       id="clip0_0_1">
      <rect
         width="1024"
         height="1024"
         fill="#ffffff"
         id="rect290"
         x="0"
         y="0" />
    </clipPath>
    <clipPath
       id="clip1_0_1">
      <rect
         width="1024"
         height="1024"
         fill="#ffffff"
         transform="translate(1088)"
         id="rect293"
         x="0"
         y="0" />
    </clipPath>
    <clipPath
       id="clip2_0_1">
      <rect
         width="1024"
         height="1024"
         fill="#ffffff"
         transform="translate(2176)"
         id="rect296"
         x="0"
         y="0" />
    </clipPath>
    <clipPath
       id="clip3_0_1">
      <rect
         width="1024"
         height="1024"
         fill="#ffffff"
         transform="translate(3264)"
         id="rect299"
         x="0"
         y="0" />
    </clipPath>
  </defs>
  <metadata
     id="metadata1000">
    <rdf:RDF>
      <cc:Work
         rdf:about="">
        <dc:creator>
          <cc:Agent>
            <dc:title>Alwyn T</dc:title>
          </cc:Agent>
        </dc:creator>
        <dc:rights>
          <cc:Agent>
            <dc:title>Required to disclose source and state changes as per AGPL-3.0 license</dc:title>
          </cc:Agent>
        </dc:rights>
        <dc:language>English</dc:language>
        <dc:title>Dynamic Paddle</dc:title>
        <dc:identifier>Dynamic Paddle SVG</dc:identifier>
        <cc:license
           rdf:resource="https://www.gnu.org/licenses/agpl-3.0.en.html#license-text" />
      </cc:Work>
    </rdf:RDF>
  </metadata>
</svg>
