<svg width="64" height="64" viewBox="0 0 64 64" fill="none" xmlns="http://www.w3.org/2000/svg">
<rect x="12" y="12" width="40" height="40" rx="8" fill="#4C5AA3"/>
<path d="M19.6025 37H17.1465L20.3365 27.5455H23.3787L26.5687 37H24.1127L21.8922 29.9276H21.8184L19.6025 37ZM19.2747 33.2791H24.4082V35.0149H19.2747V33.2791ZM32.4051 30.38C32.3743 30.0414 32.2374 29.7783 31.9942 29.5906C31.7542 29.3997 31.411 29.3043 30.9648 29.3043C30.6693 29.3043 30.4231 29.3428 30.2261 29.4197C30.0291 29.4967 29.8814 29.6029 29.7829 29.7383C29.6845 29.8706 29.6337 30.023 29.6306 30.1953C29.6244 30.3369 29.6521 30.4615 29.7137 30.5692C29.7783 30.677 29.8706 30.7724 29.9907 30.8555C30.1138 30.9355 30.2615 31.0063 30.4339 31.0678C30.6062 31.1294 30.8001 31.1832 31.0155 31.2294L31.828 31.4141C32.2958 31.5156 32.7082 31.651 33.0653 31.8203C33.4253 31.9896 33.7269 32.1912 33.9701 32.4251C34.2163 32.659 34.4025 32.9283 34.5287 33.233C34.6549 33.5376 34.7195 33.8793 34.7226 34.2578C34.7195 34.8549 34.5687 35.3673 34.2702 35.7951C33.9716 36.2229 33.5423 36.5507 32.9822 36.7784C32.4251 37.0062 31.7526 37.12 30.9648 37.12C30.1738 37.12 29.4844 37.0015 28.8966 36.7646C28.3087 36.5276 27.8517 36.1675 27.5255 35.6843C27.1992 35.2011 27.0315 34.5902 27.0223 33.8516H29.2105C29.229 34.1562 29.3105 34.4102 29.4552 34.6133C29.5998 34.8164 29.7983 34.9703 30.0507 35.0749C30.3061 35.1796 30.6016 35.2319 30.9371 35.2319C31.2448 35.2319 31.5064 35.1903 31.7219 35.1072C31.9404 35.0241 32.1081 34.9087 32.2251 34.761C32.342 34.6133 32.402 34.444 32.4051 34.2532C32.402 34.0747 32.3466 33.9223 32.2389 33.7962C32.1312 33.6669 31.965 33.5561 31.7403 33.4638C31.5187 33.3684 31.2356 33.2807 30.8909 33.2006L29.903 32.9698C29.0843 32.7821 28.4395 32.4789 27.9687 32.0604C27.4978 31.6387 27.2639 31.0694 27.267 30.3523C27.2639 29.7675 27.4208 29.2551 27.7378 28.815C28.0548 28.3749 28.4934 28.0317 29.0535 27.7855C29.6137 27.5393 30.2523 27.4162 30.9694 27.4162C31.7019 27.4162 32.3374 27.5408 32.876 27.7901C33.4176 28.0363 33.8377 28.3826 34.1363 28.8288C34.4348 29.2751 34.5872 29.7921 34.5933 30.38H32.4051ZM35.8767 27.5455H38.7066L41.1072 33.3991H41.218L43.6185 27.5455H46.4484V37H44.2233V31.1925H44.1448L41.8735 36.94H40.4516L38.1803 31.1602H38.1018V37H35.8767V27.5455Z" fill="white"/>
</svg>
