<svg width="64" height="64" viewBox="0 0 64 64" fill="none" xmlns="http://www.w3.org/2000/svg">
<path fill-rule="evenodd" clip-rule="evenodd" d="M31.9999 32L12.1263 43.4741C12.8145 44.63 13.7946 45.6134 15 46.3094L27.7846 53.6906C30.2598 55.1196 33.3094 55.1196 35.7846 53.6906L48.5692 46.3094C49.839 45.5763 50.8586 44.5243 51.5506 43.2876L31.9999 32Z" fill="#3F5DA7"/>
<path fill-rule="evenodd" clip-rule="evenodd" d="M35.7846 10.3094C33.3094 8.88034 30.2598 8.88034 27.7846 10.3094L15 17.6906C12.5248 19.1197 11 21.7607 11 24.6188V39.3812C11 40.8474 11.4013 42.2565 12.1263 43.4741L51.5507 20.7124C50.8587 19.4758 49.839 18.4237 48.5692 17.6906L35.7846 10.3094Z" fill="#769CFF"/>
<circle cx="32" cy="32" r="10" stroke="white" stroke-width="6"/>
<path fill-rule="evenodd" clip-rule="evenodd" d="M51.5506 43.2876C52.2076 42.1135 52.5692 40.7731 52.5692 39.3812V24.6188C52.5692 23.2269 52.2076 21.8865 51.5507 20.7125L32 32L51.5506 43.2876Z" fill="#597EDA"/>
</svg>
