<svg width="64" height="64" viewBox="0 0 64 64" fill="none" xmlns="http://www.w3.org/2000/svg">
<path d="M38 27C39 26 35.5 25 32 25C28.5 25 25.5 26 26.5 27C27 27.5 29.5 27.4906 32 27.5C34.5 27.5094 37.5 27.5 38 27Z" fill="#F39914"/>
<path d="M42.5001 31.9998C40.5001 28.9995 38.5 28.4997 32.0001 28.4998C25.5001 28.4998 23.5001 28.9995 21.5001 31.9998C19.5 35 23.5001 48.9998 32.0001 48.9998C40.5 48.9998 44.5 35 42.5001 31.9998Z" fill="#F39914"/>
<path d="M23 17.5C23 19 21.5 20 20 21C18.5 22 17 23 17 25.5C17 28 18.5 29 21.5 31.5M42.5 31.5C45.5 30 47 28 47 25.5C47 23 46.5 22 44.5 21C42.5 20 41.5 19 41.5 17.5" stroke="#F39914" stroke-width="1.5" stroke-linecap="round"/>
<path d="M43 36.5039C44 36.0033 46 34.501 47 35.5008C48 36.5006 44 43.5039 44 43.5039M21.25 36.5039C20.75 36.0033 18.5 34.4997 17.5 35.5008C16.5 36.5019 20 43.5039 20 43.5039" stroke="#F39914" stroke-width="1.5" stroke-linecap="round"/>
<path d="M40.5 43.5C41.5 45 42 45 42 47C42 49 35.5 52 35.5 52M23.5 43.5C22.75 45 22.5 45 22.5 47C22.5 49 28.75 52 28.75 52" stroke="#F39914" stroke-width="1.5" stroke-linecap="round"/>
<circle cx="32" cy="17.5" r="6" stroke="#162284"/>
<path d="M31 14.5H29.5C29.2239 14.5 29 14.7239 29 15V16.5M31 14.5V20.5M31 14.5H33M31 20.5H29.5C29.2239 20.5 29 20.2761 29 20V18.5M31 20.5H33M33 14.5H34.5C34.7761 14.5 35 14.7239 35 15V16.5M33 14.5V20.5M33 20.5H34.5C34.7761 20.5 35 20.2761 35 20V18.5M35 16.5H29M35 16.5V18.5M29 16.5V18.5M29 18.5H35" stroke="#162284" stroke-width="0.75"/>
</svg>
