<svg width="64" height="64" viewBox="0 0 64 64" fill="none" xmlns="http://www.w3.org/2000/svg">
<path fill-rule="evenodd" clip-rule="evenodd" d="M31.9999 32L12.1263 43.4741C12.8145 44.63 13.7946 45.6134 15 46.3094L27.7846 53.6906C30.2598 55.1196 33.3094 55.1196 35.7846 53.6906L48.5692 46.3094C49.839 45.5763 50.8586 44.5243 51.5506 43.2876L31.9999 32Z" fill="#3F5DA7"/>
<path fill-rule="evenodd" clip-rule="evenodd" d="M35.7846 10.3093C33.3094 8.88028 30.2598 8.88028 27.7846 10.3093L15 17.6905C12.5248 19.1196 11 21.7606 11 24.6187V39.3811C11 40.8474 11.4013 42.2564 12.1263 43.4741L51.5507 20.7124C50.8587 19.4757 49.839 18.4236 48.5692 17.6905L35.7846 10.3093Z" fill="#769CFF"/>
<circle cx="32" cy="32" r="10" stroke="white" stroke-width="6"/>
<path fill-rule="evenodd" clip-rule="evenodd" d="M51.5506 43.2875C52.2076 42.1135 52.5692 40.7731 52.5692 39.3811V24.6187C52.5692 23.2268 52.2076 21.8864 51.5507 20.7124L32 32L51.5506 43.2875Z" fill="#597EDA"/>
<path d="M38 31H40V29H42V31H44V33H42V35H40V33H38V31Z" fill="white"/>
<path d="M45.5 31H47.5V29H49.5V31H51.5V33H49.5V35H47.5V33H45.5V31Z" fill="white"/>
</svg>
