<svg width="64" height="64" viewBox="0 0 64 64" fill="none" xmlns="http://www.w3.org/2000/svg">
<path d="M29.2467 12.3622H27.4711C27.4475 12.1799 27.3989 12.0154 27.3256 11.8686C27.2522 11.7218 27.1551 11.5964 27.0344 11.4922C26.9136 11.388 26.7704 11.3087 26.6047 11.2543C26.4413 11.1974 26.2602 11.169 26.0613 11.169C25.7086 11.169 25.4044 11.2554 25.1487 11.4283C24.8954 11.6011 24.7001 11.8509 24.5628 12.1776C24.4278 12.5043 24.3604 12.8996 24.3604 13.3636C24.3604 13.8466 24.429 14.2514 24.5663 14.5781C24.706 14.9025 24.9013 15.1475 25.1523 15.3132C25.4056 15.4766 25.705 15.5582 26.0507 15.5582C26.2448 15.5582 26.4212 15.5334 26.5798 15.4837C26.7408 15.4339 26.8817 15.3617 27.0024 15.267C27.1255 15.17 27.2261 15.0528 27.3042 14.9155C27.3847 14.7758 27.4404 14.6184 27.4711 14.4432L29.2467 14.4538C29.2159 14.7758 29.1224 15.093 28.9662 15.4055C28.8123 15.718 28.6004 16.0033 28.3305 16.2614C28.0606 16.517 27.7316 16.7206 27.3433 16.8722C26.9574 17.0237 26.5147 17.0994 26.0152 17.0994C25.357 17.0994 24.7675 16.955 24.2467 16.6662C23.7282 16.375 23.3187 15.9512 23.018 15.3949C22.7174 14.8385 22.567 14.1615 22.567 13.3636C22.567 12.5634 22.7197 11.8852 23.0251 11.3288C23.3305 10.7725 23.7436 10.3499 24.2645 10.0611C24.7853 9.77225 25.3689 9.62784 26.0152 9.62784C26.4555 9.62784 26.8627 9.68939 27.2368 9.8125C27.6108 9.93324 27.9399 10.1108 28.224 10.3452C28.5081 10.5772 28.7389 10.8625 28.9165 11.201C29.094 11.5395 29.2041 11.9266 29.2467 12.3622ZM34.1837 11.9077C34.16 11.6473 34.0547 11.4448 33.8676 11.3004C33.683 11.1536 33.419 11.0803 33.0757 11.0803C32.8485 11.0803 32.6591 11.1098 32.5075 11.169C32.356 11.2282 32.2424 11.3099 32.1666 11.4141C32.0909 11.5159 32.0518 11.633 32.0494 11.7656C32.0447 11.8745 32.066 11.9704 32.1134 12.0533C32.1631 12.1361 32.2341 12.2095 32.3264 12.2734C32.4211 12.335 32.5348 12.3894 32.6673 12.4368C32.7999 12.4841 32.9491 12.5256 33.1148 12.5611L33.7398 12.7031C34.0996 12.7812 34.4169 12.8854 34.6915 13.0156C34.9685 13.1458 35.2005 13.3009 35.3875 13.4808C35.5769 13.6607 35.7201 13.8679 35.8172 14.1023C35.9143 14.3366 35.964 14.5994 35.9664 14.8906C35.964 15.3499 35.848 15.7441 35.6183 16.0732C35.3887 16.4022 35.0584 16.6544 34.6276 16.8295C34.1991 17.0047 33.6818 17.0923 33.0757 17.0923C32.4673 17.0923 31.937 17.0012 31.4848 16.8189C31.0326 16.6366 30.6811 16.3596 30.4301 15.9879C30.1792 15.6162 30.0502 15.1463 30.0431 14.5781H31.7263C31.7405 14.8125 31.8032 15.0078 31.9145 15.1641C32.0258 15.3203 32.1785 15.4387 32.3726 15.5192C32.5691 15.5997 32.7964 15.6399 33.0544 15.6399C33.2912 15.6399 33.4924 15.608 33.6581 15.544C33.8262 15.4801 33.9552 15.3913 34.0452 15.2777C34.1352 15.1641 34.1813 15.0339 34.1837 14.8871C34.1813 14.7498 34.1387 14.6326 34.0558 14.5355C33.973 14.4361 33.8451 14.3509 33.6723 14.2798C33.5019 14.2064 33.2841 14.139 33.0189 14.0774L32.259 13.8999C31.6292 13.7554 31.1333 13.5223 30.771 13.2003C30.4088 12.8759 30.2289 12.438 30.2313 11.8864C30.2289 11.4366 30.3496 11.0424 30.5935 10.7038C30.8373 10.3653 31.1747 10.1013 31.6056 9.91193C32.0364 9.72254 32.5277 9.62784 33.0793 9.62784C33.6427 9.62784 34.1316 9.72372 34.5459 9.91548C34.9626 10.1049 35.2857 10.3712 35.5154 10.7145C35.745 11.0578 35.8622 11.4555 35.8669 11.9077H34.1837ZM40.7852 11.9077C40.7616 11.6473 40.6562 11.4448 40.4692 11.3004C40.2845 11.1536 40.0206 11.0803 39.6773 11.0803C39.45 11.0803 39.2606 11.1098 39.1091 11.169C38.9576 11.2282 38.844 11.3099 38.7682 11.4141C38.6924 11.5159 38.6534 11.633 38.651 11.7656C38.6463 11.8745 38.6676 11.9704 38.7149 12.0533C38.7646 12.1361 38.8357 12.2095 38.928 12.2734C39.0227 12.335 39.1363 12.3894 39.2689 12.4368C39.4015 12.4841 39.5506 12.5256 39.7164 12.5611L40.3414 12.7031C40.7012 12.7812 41.0184 12.8854 41.2931 13.0156C41.57 13.1458 41.8021 13.3009 41.9891 13.4808C42.1785 13.6607 42.3217 13.8679 42.4188 14.1023C42.5158 14.3366 42.5655 14.5994 42.5679 14.8906C42.5655 15.3499 42.4495 15.7441 42.2199 16.0732C41.9903 16.4022 41.66 16.6544 41.2291 16.8295C40.8006 17.0047 40.2834 17.0923 39.6773 17.0923C39.0689 17.0923 38.5386 17.0012 38.0864 16.8189C37.6342 16.6366 37.2826 16.3596 37.0317 15.9879C36.7807 15.6162 36.6517 15.1463 36.6446 14.5781H38.3279C38.3421 14.8125 38.4048 15.0078 38.5161 15.1641C38.6273 15.3203 38.78 15.4387 38.9742 15.5192C39.1707 15.5997 39.3979 15.6399 39.656 15.6399C39.8927 15.6399 40.094 15.608 40.2597 15.544C40.4278 15.4801 40.5568 15.3913 40.6468 15.2777C40.7367 15.1641 40.7829 15.0339 40.7852 14.8871C40.7829 14.7498 40.7403 14.6326 40.6574 14.5355C40.5745 14.4361 40.4467 14.3509 40.2739 14.2798C40.1034 14.2064 39.8856 14.139 39.6205 14.0774L38.8605 13.8999C38.2308 13.7554 37.7348 13.5223 37.3726 13.2003C37.0104 12.8759 36.8305 12.438 36.8328 11.8864C36.8305 11.4366 36.9512 11.0424 37.195 10.7038C37.4389 10.3653 37.7762 10.1013 38.2071 9.91193C38.638 9.72254 39.1292 9.62784 39.6808 9.62784C40.2443 9.62784 40.7332 9.72372 41.1475 9.91548C41.5641 10.1049 41.8873 10.3712 42.1169 10.7145C42.3466 11.0578 42.4637 11.4555 42.4685 11.9077H40.7852Z" fill="#838383"/>
<path d="M45.6477 19.5H19.3523C17.0103 19.5 15.1693 21.5031 15.3665 23.8368L17.7653 52.2222C17.9063 53.8914 19.0725 55.2959 20.6873 55.7413L31.4363 58.7066C32.1324 58.8986 32.8676 58.8986 33.5637 58.7066L44.3127 55.7413C45.9275 55.2959 47.0937 53.8914 47.2347 52.2222L49.6335 23.8368C49.8307 21.5031 47.9897 19.5 45.6477 19.5Z" fill="#264DE4"/>
<path d="M42.4093 27H22.6173C22.0213 27 21.5576 27.5181 21.6234 28.1104L21.9012 30.6104C21.9574 31.1169 22.3855 31.5 22.895 31.5H37.3827C37.9787 31.5 38.4424 32.0181 38.3766 32.6104L38.0988 35.1104C38.0426 35.6169 37.6145 36 37.105 36H23.1173C22.5213 36 22.0576 36.5181 22.1234 37.1104L22.4012 39.6104C22.4574 40.1169 22.8855 40.5 23.395 40.5H36.9132C37.4982 40.5 37.9583 41 37.9097 41.583L37.5566 45.821C37.5224 46.2306 37.2411 46.5777 36.8474 46.6958L32.7873 47.9138C32.5999 47.97 32.4001 47.97 32.2127 47.9138L28.1609 46.6983C27.7631 46.5789 27.4804 46.226 27.4508 45.8117L27.3163 43.9288C27.279 43.4054 26.8435 43 26.3189 43H24.074C23.4936 43 23.0352 43.4924 23.0765 44.0712L23.4497 49.2965C23.4799 49.7183 23.7721 50.0756 24.1796 50.1888L32.2324 52.4257C32.4075 52.4743 32.5925 52.4743 32.7676 52.4257L40.8315 50.1857C41.2335 50.074 41.524 49.7245 41.5601 49.3088L43.4055 28.0866C43.4563 27.5024 42.9957 27 42.4093 27Z" fill="#EBEBEB"/>
<path d="M44.3294 22.5H33.5C32.9477 22.5 32.5 22.9477 32.5 23.5V54.7057C32.5 55.3605 33.1188 55.8386 33.7524 55.6733L42.6274 53.3581C43.4496 53.1436 44.0465 52.4331 44.1159 51.5862L46.3227 24.6634C46.4182 23.4983 45.4984 22.5 44.3294 22.5Z" fill="#2965F1"/>
<path fill-rule="evenodd" clip-rule="evenodd" d="M32.5 52.4621C32.59 52.4621 32.6801 52.45 32.7676 52.4257L40.8315 50.1857C41.2335 50.074 41.524 49.7245 41.5601 49.3088L43.4055 28.0866C43.4563 27.5024 42.9957 27 42.4093 27H32.5V31.5H37.3827C37.9787 31.5 38.4424 32.0181 38.3766 32.6104L38.0988 35.1104C38.0426 35.6169 37.6145 36 37.105 36H32.5V40.5H36.9132C37.4982 40.5 37.9583 41 37.9097 41.583L37.5566 45.821C37.5224 46.2306 37.2411 46.5777 36.8474 46.6958L32.7873 47.9138C32.6936 47.9419 32.5968 47.956 32.5 47.956V52.4621Z" fill="white"/>
</svg>
