<svg width="64" height="64" viewBox="0 0 64 64" fill="none" xmlns="http://www.w3.org/2000/svg">
<rect x="12" y="12" width="40" height="40" rx="8" stroke="#FCFCF7" stroke-width="1.5"/>
<path d="M35.8767 27.0454H35.3767V27.5454V37V37.5H35.8767H38.1018H38.6018V37V33.5998L39.9863 37.1228L40.1109 37.4399H40.4516H41.8735H42.2135L42.3385 37.1237L43.7233 33.6195V37V37.5H44.2233H46.4484H46.9484V37V27.5454V27.0454H46.4484H43.6185H43.2832L43.1559 27.3557L41.1626 32.2164L39.1692 27.3557L39.042 27.0454H38.7066H35.8767Z" stroke="#FCFCF7"/>
<path d="M31.9072 30.4252L31.9485 30.8799H32.4051H34.5933H35.0986L35.0933 30.3747C35.0862 29.6993 34.9095 29.0854 34.5519 28.5508C34.1964 28.0194 33.7006 27.616 33.0844 27.3356C32.4668 27.0501 31.7571 26.9161 30.9694 26.9161C30.1948 26.9161 29.4858 27.0493 28.8523 27.3277C28.2212 27.6052 27.7077 28.0012 27.3321 28.5227C26.9488 29.0549 26.7638 29.6716 26.767 30.3525C26.7639 31.1901 27.0434 31.903 27.6351 32.4328L27.6365 32.434C28.1001 32.8461 28.6898 33.147 29.3859 33.3515H29.2105H27.0223H26.516L26.5223 33.8578C26.5325 34.668 26.7173 35.3809 27.1111 35.964C27.498 36.5371 28.0378 36.9574 28.7096 37.2282C29.3696 37.4943 30.1251 37.62 30.9648 37.62C31.7983 37.62 32.5386 37.4998 33.1711 37.2413C33.8059 36.9831 34.3182 36.6 34.6802 36.0812C35.0449 35.5586 35.219 34.9437 35.2226 34.2603L35.2226 34.2603L35.2226 34.2537C35.219 33.8203 35.1448 33.4138 34.9906 33.0416C34.8371 32.6708 34.6104 32.344 34.3156 32.0636C34.0272 31.7864 33.6787 31.5562 33.2787 31.3681C32.8817 31.1799 32.4328 31.0338 31.9365 30.9259L31.1263 30.7418L31.1264 30.7417L31.1203 30.7404C30.9222 30.698 30.75 30.6497 30.602 30.5969C30.4614 30.5467 30.3524 30.4933 30.2695 30.4403C30.2054 30.3949 30.1681 30.3528 30.1457 30.3173C30.1376 30.3017 30.1277 30.273 30.1301 30.217L30.1303 30.217L30.1305 30.2042C30.1318 30.1313 30.1509 30.0813 30.1841 30.0367L30.1841 30.0367L30.1873 30.0323C30.2165 29.9922 30.2768 29.9367 30.408 29.8854C30.529 29.8382 30.7086 29.8043 30.9648 29.8043C31.3478 29.8043 31.5639 29.8872 31.6831 29.9819L31.6831 29.9819L31.6887 29.9863C31.8093 30.0794 31.8875 30.2087 31.9072 30.4252ZM29.7096 33.8213L29.686 33.4322C29.7205 33.4406 29.7552 33.4489 29.7902 33.4569C29.7905 33.457 29.7909 33.457 29.7912 33.4571L30.7771 33.6875L30.7778 33.6876C31.1056 33.7637 31.3578 33.8434 31.5426 33.923L31.5426 33.923L31.5503 33.9262C31.7308 34.0004 31.8172 34.0711 31.8548 34.1162L31.8548 34.1162L31.8586 34.1207C31.884 34.1505 31.9025 34.1868 31.9049 34.2535C31.9022 34.3318 31.8792 34.3923 31.833 34.4506C31.7841 34.5124 31.6985 34.5811 31.5441 34.6398L31.5441 34.6398L31.5419 34.6407C31.3995 34.6956 31.2026 34.7318 30.9371 34.7318C30.6535 34.7318 30.4249 34.6877 30.2412 34.6126C30.0674 34.5404 29.9474 34.4425 29.8625 34.3232C29.7832 34.2118 29.7237 34.0535 29.7096 33.8213Z" stroke="#FCFCF7"/>
<path d="M19.6025 37.5H19.9698L20.0796 37.1494L20.5917 35.5149H23.1224L23.6357 37.1497L23.7457 37.5H24.1127H26.5687H27.2651L27.0425 36.8401L23.8525 27.3856L23.7377 27.0454H23.3787H20.3365H19.9775L19.8627 27.3856L16.6727 36.8401L16.4501 37.5H17.1465H19.6025ZM22.2635 32.7791H21.4489L21.8557 31.4805L22.2635 32.7791Z" stroke="#FCFCF7"/>
</svg>
