<svg width="64" height="64" viewBox="0 0 64 64" fill="none" xmlns="http://www.w3.org/2000/svg">
<path d="M38.0632 35.5006L38.7123 35.8762L39.0883 35.2264L38.4382 34.8511L38.0632 35.5006ZM31.9999 32L32.3749 31.3505L31.9999 31.134L31.6249 31.3505L31.9999 32ZM25.9368 35.5006L25.5618 34.851L24.9117 35.2264L25.2876 35.8762L25.9368 35.5006ZM43.2602 38.5011L43.6352 37.8516L42.9863 37.4769L42.611 38.1255L43.2602 38.5011ZM20.7398 38.5011L21.389 38.1255L21.0137 37.4769L20.3648 37.8515L20.7398 38.5011ZM12.1263 43.4741L11.7513 42.8246L11.093 43.2046L11.4818 43.8578L12.1263 43.4741ZM15 46.3094L15.375 45.6599L15.375 45.6599L15 46.3094ZM27.7846 53.6906L28.1596 53.0411L28.1596 53.0411L27.7846 53.6906ZM35.7846 53.6906L36.1596 54.3401L36.1596 54.3401L35.7846 53.6906ZM48.5692 46.3094L48.1942 45.6599L48.1942 45.6599L48.5692 46.3094ZM51.5506 43.2876L52.2051 43.6538L52.5665 43.0081L51.9256 42.6381L51.5506 43.2876ZM38.4382 34.8511L32.3749 31.3505L31.6249 32.6495L37.6882 36.1501L38.4382 34.8511ZM31.6249 31.3505L25.5618 34.851L26.3118 36.1501L32.3749 32.6495L31.6249 31.3505ZM25.2876 35.8762C26.6266 38.1903 29.1307 39.75 32 39.75V38.25C29.6878 38.25 27.6678 36.9948 26.586 35.125L25.2876 35.8762ZM32 39.75C34.8693 39.75 37.3734 38.1904 38.7123 35.8762L37.414 35.125C36.3321 36.9948 34.3122 38.25 32 38.25V39.75ZM42.611 38.1255C40.4917 41.7884 36.5329 44.25 32 44.25V45.75C37.0899 45.75 41.5329 42.984 43.9094 38.8767L42.611 38.1255ZM32 44.25C27.4671 44.25 23.5083 41.7884 21.389 38.1255L20.0906 38.8767C22.4671 42.984 26.9101 45.75 32 45.75V44.25ZM20.3648 37.8515L11.7513 42.8246L12.5013 44.1236L21.1148 39.1506L20.3648 37.8515ZM11.4818 43.8578C12.2346 45.122 13.3066 46.1977 14.625 46.9589L15.375 45.6599C14.2825 45.0291 13.3945 44.1381 12.7707 43.0904L11.4818 43.8578ZM14.625 46.9589L27.4096 54.3401L28.1596 53.0411L15.375 45.6599L14.625 46.9589ZM27.4096 54.3401C30.1169 55.9031 33.4523 55.9031 36.1596 54.3401L35.4096 53.0411C33.1664 54.3361 30.4028 54.3361 28.1596 53.0411L27.4096 54.3401ZM36.1596 54.3401L48.9442 46.9589L48.1942 45.6599L35.4096 53.0411L36.1596 54.3401ZM48.9442 46.9589C50.333 46.1571 51.4483 45.0063 52.2051 43.6538L50.8961 42.9213C50.2689 44.0422 49.3449 44.9955 48.1942 45.6599L48.9442 46.9589ZM51.9256 42.6381L43.6352 37.8516L42.8852 39.1506L51.1756 43.9371L51.9256 42.6381Z" fill="#FCFCF7"/>
<path d="M35.7846 10.3093L35.4096 10.9589L35.4096 10.9589L35.7846 10.3093ZM27.7846 10.3093L28.1596 10.9589L28.1596 10.9589L27.7846 10.3093ZM48.5692 17.6905L48.1942 18.3401L48.1942 18.3401L48.5692 17.6905ZM51.5507 20.7124L51.9257 21.3619L52.5665 20.9919L52.2052 20.3462L51.5507 20.7124ZM43.2602 25.4989L42.611 25.8745L42.9863 26.523L43.6352 26.1484L43.2602 25.4989ZM20.7398 38.501L21.1148 39.1506L21.7649 38.7752L21.389 38.1254L20.7398 38.501ZM12.1263 43.4741L11.4819 43.8578L11.8604 44.4936L12.5013 44.1236L12.1263 43.4741ZM15 17.6905L14.625 17.041L14.625 17.041L15 17.6905ZM25.9368 35.5005L25.2877 35.8761L25.6629 36.5247L26.3118 36.1501L25.9368 35.5005ZM38.0632 28.4994L38.4382 29.1489L39.0883 28.7735L38.7124 28.1238L38.0632 28.4994ZM36.1596 9.65983C33.4524 8.09679 30.1169 8.09679 27.4096 9.65983L28.1596 10.9589C30.4028 9.66378 33.1665 9.66378 35.4096 10.9589L36.1596 9.65983ZM48.9442 17.041L36.1596 9.65983L35.4096 10.9589L48.1942 18.3401L48.9442 17.041ZM52.2052 20.3462C51.4484 18.9937 50.333 17.8428 48.9442 17.041L48.1942 18.3401C49.345 19.0044 50.2689 19.9577 50.8961 21.0786L52.2052 20.3462ZM43.6352 26.1484L51.9257 21.3619L51.1757 20.0629L42.8852 24.8494L43.6352 26.1484ZM32 19.7499C36.5329 19.7499 40.4917 22.2115 42.611 25.8745L43.9094 25.1233C41.5329 21.016 37.0899 18.2499 32 18.2499V19.7499ZM19.75 31.9999C19.75 25.2345 25.2345 19.7499 32 19.7499V18.2499C24.4061 18.2499 18.25 24.406 18.25 31.9999H19.75ZM21.389 38.1254C20.3468 36.3241 19.75 34.2329 19.75 31.9999H18.25C18.25 34.5036 18.9199 36.8532 20.0906 38.8766L21.389 38.1254ZM12.5013 44.1236L21.1148 39.1506L20.3648 37.8515L11.7513 42.8245L12.5013 44.1236ZM10.25 39.3811C10.25 40.9848 10.689 42.5261 11.4819 43.8578L12.7707 43.0904C12.1136 41.9867 11.75 40.7099 11.75 39.3811H10.25ZM10.25 24.6187V39.3811H11.75V24.6187H10.25ZM14.625 17.041C11.9177 18.6041 10.25 21.4927 10.25 24.6187H11.75C11.75 22.0286 13.1318 19.6351 15.375 18.3401L14.625 17.041ZM27.4096 9.65983L14.625 17.041L15.375 18.3401L28.1596 10.9589L27.4096 9.65983ZM26.3118 36.1501L38.4382 29.1489L37.6882 27.8499L25.5618 34.851L26.3118 36.1501ZM24.25 31.9999C24.25 33.4106 24.6276 34.7353 25.2877 35.8761L26.586 35.1249C26.0545 34.2063 25.75 33.1398 25.75 31.9999H24.25ZM32 24.2499C27.7198 24.2499 24.25 27.7197 24.25 31.9999H25.75C25.75 28.5482 28.5482 25.7499 32 25.7499V24.2499ZM38.7124 28.1238C37.3734 25.8096 34.8693 24.2499 32 24.2499V25.7499C34.3122 25.7499 36.3322 27.0052 37.414 28.875L38.7124 28.1238Z" fill="#FCFCF7"/>
<path fill-rule="evenodd" clip-rule="evenodd" d="M51.5506 43.2875C52.2076 42.1135 52.5692 40.7731 52.5692 39.3811V24.6187C52.5692 23.2268 52.2076 21.8864 51.5507 20.7124L32 32L51.5506 43.2875Z" stroke="#FCFCF7" stroke-width="1.5"/>
<path d="M38 31H40V29H42V31H44V33H42V35H40V33H38V31Z" stroke="#FCFCF7"/>
<path d="M45.5 31H47.5V29H49.5V31H51.5V33H49.5V35H47.5V33H45.5V31Z" stroke="#FCFCF7"/>
</svg>
