<svg width="64" height="64" viewBox="0 0 64 64" fill="none" xmlns="http://www.w3.org/2000/svg">
<path d="M45.6477 19.5H19.3523C17.0103 19.5 15.1693 21.5031 15.3665 23.8368L17.7653 52.2222C17.9063 53.8914 19.0725 55.2959 20.6873 55.7413L31.4363 58.7066C32.1324 58.8986 32.8676 58.8986 33.5637 58.7066L44.3127 55.7413C45.9275 55.2959 47.0937 53.8914 47.2347 52.2222L49.6335 23.8368C49.8307 21.5031 47.9897 19.5 45.6477 19.5Z" stroke="#FCFCF7" stroke-width="1.5"/>
<path d="M42.4093 27H22.6173C22.0213 27 21.5576 27.5181 21.6234 28.1104L21.9012 30.6104C21.9574 31.1169 22.3855 31.5 22.895 31.5H37.3827C37.9787 31.5 38.4424 32.0181 38.3766 32.6104L38.0988 35.1104C38.0426 35.6169 37.6145 36 37.105 36H23.1173C22.5213 36 22.0576 36.5181 22.1234 37.1104L22.4012 39.6104C22.4574 40.1169 22.8855 40.5 23.395 40.5H36.9132C37.4982 40.5 37.9583 41 37.9097 41.583L37.5566 45.821C37.5224 46.2306 37.2411 46.5777 36.8474 46.6958L32.7873 47.9138C32.5999 47.97 32.4001 47.97 32.2127 47.9138L28.1609 46.6983C27.7631 46.5789 27.4804 46.226 27.4508 45.8117L27.3163 43.9288C27.279 43.4054 26.8435 43 26.3189 43H24.074C23.4936 43 23.0352 43.4924 23.0765 44.0712L23.4497 49.2965C23.4799 49.7183 23.7721 50.0756 24.1796 50.1888L32.2324 52.4257C32.4075 52.4743 32.5925 52.4743 32.7676 52.4257L40.8315 50.1857C41.2335 50.074 41.524 49.7245 41.5601 49.3088L43.4055 28.0866C43.4563 27.5024 42.9957 27 42.4093 27Z" stroke="#FCFCF7"/>
<path fill-rule="evenodd" clip-rule="evenodd" d="M33.5 22C32.6716 22 32 22.6716 32 23.5V27H33V23.5C33 23.2239 33.2239 23 33.5 23H44.3294C45.2061 23 45.896 23.7487 45.8243 24.6225L43.6176 51.5454C43.5655 52.1805 43.1178 52.7134 42.5012 52.8743L33.6262 55.1895C33.3094 55.2721 33 55.0331 33 54.7057V52.3611L32.7677 52.4257C32.5925 52.4743 32.4075 52.4743 32.2324 52.4257L32 52.3611V54.7057C32 55.6878 32.9283 56.405 33.8786 56.1571L42.7536 53.8419C43.7813 53.5738 44.5274 52.6856 44.6142 51.6271L46.821 24.7042C46.9404 23.2479 45.7906 22 44.3294 22H33.5ZM32 47.85L32.2127 47.9138C32.4001 47.97 32.5999 47.97 32.7874 47.9138L33 47.85V40.5H32V47.85ZM32 36H33V31.5H32V36Z" fill="#FCFCF7"/>
<mask id="path-4-outside-1_360_140" maskUnits="userSpaceOnUse" x="21" y="8" width="23" height="10" fill="black">
<rect fill="white" x="21" y="8" width="23" height="10"/>
<path d="M29.2467 12.3622H27.4711C27.4475 12.1799 27.3989 12.0154 27.3256 11.8686C27.2522 11.7218 27.1551 11.5964 27.0344 11.4922C26.9136 11.388 26.7704 11.3087 26.6047 11.2543C26.4413 11.1974 26.2602 11.169 26.0613 11.169C25.7086 11.169 25.4044 11.2554 25.1487 11.4283C24.8954 11.6011 24.7001 11.8509 24.5628 12.1776C24.4278 12.5043 24.3604 12.8996 24.3604 13.3636C24.3604 13.8466 24.429 14.2514 24.5663 14.5781C24.706 14.9025 24.9013 15.1475 25.1523 15.3132C25.4056 15.4766 25.705 15.5582 26.0507 15.5582C26.2448 15.5582 26.4212 15.5334 26.5798 15.4837C26.7408 15.4339 26.8817 15.3617 27.0024 15.267C27.1255 15.17 27.2261 15.0528 27.3042 14.9155C27.3847 14.7758 27.4404 14.6184 27.4711 14.4432L29.2467 14.4538C29.2159 14.7758 29.1224 15.093 28.9662 15.4055C28.8123 15.718 28.6004 16.0033 28.3305 16.2614C28.0606 16.517 27.7316 16.7206 27.3433 16.8722C26.9574 17.0237 26.5147 17.0994 26.0152 17.0994C25.357 17.0994 24.7675 16.955 24.2467 16.6662C23.7282 16.375 23.3187 15.9512 23.018 15.3949C22.7174 14.8385 22.567 14.1615 22.567 13.3636C22.567 12.5634 22.7197 11.8852 23.0251 11.3288C23.3305 10.7725 23.7436 10.3499 24.2645 10.0611C24.7853 9.77225 25.3689 9.62784 26.0152 9.62784C26.4555 9.62784 26.8627 9.68939 27.2368 9.8125C27.6108 9.93324 27.9399 10.1108 28.224 10.3452C28.5081 10.5772 28.7389 10.8625 28.9165 11.201C29.094 11.5395 29.2041 11.9266 29.2467 12.3622ZM34.1837 11.9077C34.16 11.6473 34.0547 11.4448 33.8676 11.3004C33.683 11.1536 33.419 11.0803 33.0757 11.0803C32.8485 11.0803 32.6591 11.1098 32.5075 11.169C32.356 11.2282 32.2424 11.3099 32.1666 11.4141C32.0909 11.5159 32.0518 11.633 32.0494 11.7656C32.0447 11.8745 32.066 11.9704 32.1134 12.0533C32.1631 12.1361 32.2341 12.2095 32.3264 12.2734C32.4211 12.335 32.5348 12.3894 32.6673 12.4368C32.7999 12.4841 32.9491 12.5256 33.1148 12.5611L33.7398 12.7031C34.0996 12.7812 34.4169 12.8854 34.6915 13.0156C34.9685 13.1458 35.2005 13.3009 35.3875 13.4808C35.5769 13.6607 35.7201 13.8679 35.8172 14.1023C35.9143 14.3366 35.964 14.5994 35.9664 14.8906C35.964 15.3499 35.848 15.7441 35.6183 16.0732C35.3887 16.4022 35.0584 16.6544 34.6276 16.8295C34.1991 17.0047 33.6818 17.0923 33.0757 17.0923C32.4673 17.0923 31.937 17.0012 31.4848 16.8189C31.0326 16.6366 30.6811 16.3596 30.4301 15.9879C30.1792 15.6162 30.0502 15.1463 30.0431 14.5781H31.7263C31.7405 14.8125 31.8032 15.0078 31.9145 15.1641C32.0258 15.3203 32.1785 15.4387 32.3726 15.5192C32.5691 15.5997 32.7964 15.6399 33.0544 15.6399C33.2912 15.6399 33.4924 15.608 33.6581 15.544C33.8262 15.4801 33.9552 15.3913 34.0452 15.2777C34.1352 15.1641 34.1813 15.0339 34.1837 14.8871C34.1813 14.7498 34.1387 14.6326 34.0558 14.5355C33.973 14.4361 33.8451 14.3509 33.6723 14.2798C33.5019 14.2064 33.2841 14.139 33.0189 14.0774L32.259 13.8999C31.6292 13.7554 31.1333 13.5223 30.771 13.2003C30.4088 12.8759 30.2289 12.438 30.2313 11.8864C30.2289 11.4366 30.3496 11.0424 30.5935 10.7038C30.8373 10.3653 31.1747 10.1013 31.6056 9.91193C32.0364 9.72254 32.5277 9.62784 33.0793 9.62784C33.6427 9.62784 34.1316 9.72372 34.5459 9.91548C34.9626 10.1049 35.2857 10.3712 35.5154 10.7145C35.745 11.0578 35.8622 11.4555 35.8669 11.9077H34.1837ZM40.7852 11.9077C40.7616 11.6473 40.6562 11.4448 40.4692 11.3004C40.2845 11.1536 40.0206 11.0803 39.6773 11.0803C39.45 11.0803 39.2606 11.1098 39.1091 11.169C38.9576 11.2282 38.844 11.3099 38.7682 11.4141C38.6924 11.5159 38.6534 11.633 38.651 11.7656C38.6463 11.8745 38.6676 11.9704 38.7149 12.0533C38.7646 12.1361 38.8357 12.2095 38.928 12.2734C39.0227 12.335 39.1363 12.3894 39.2689 12.4368C39.4015 12.4841 39.5506 12.5256 39.7164 12.5611L40.3414 12.7031C40.7012 12.7812 41.0184 12.8854 41.2931 13.0156C41.57 13.1458 41.8021 13.3009 41.9891 13.4808C42.1785 13.6607 42.3217 13.8679 42.4188 14.1023C42.5158 14.3366 42.5655 14.5994 42.5679 14.8906C42.5655 15.3499 42.4495 15.7441 42.2199 16.0732C41.9903 16.4022 41.66 16.6544 41.2291 16.8295C40.8006 17.0047 40.2834 17.0923 39.6773 17.0923C39.0689 17.0923 38.5386 17.0012 38.0864 16.8189C37.6342 16.6366 37.2826 16.3596 37.0317 15.9879C36.7807 15.6162 36.6517 15.1463 36.6446 14.5781H38.3279C38.3421 14.8125 38.4048 15.0078 38.5161 15.1641C38.6273 15.3203 38.78 15.4387 38.9742 15.5192C39.1707 15.5997 39.3979 15.6399 39.656 15.6399C39.8927 15.6399 40.094 15.608 40.2597 15.544C40.4278 15.4801 40.5568 15.3913 40.6468 15.2777C40.7367 15.1641 40.7829 15.0339 40.7852 14.8871C40.7829 14.7498 40.7403 14.6326 40.6574 14.5355C40.5745 14.4361 40.4467 14.3509 40.2739 14.2798C40.1034 14.2064 39.8856 14.139 39.6205 14.0774L38.8605 13.8999C38.2308 13.7554 37.7348 13.5223 37.3726 13.2003C37.0104 12.8759 36.8305 12.438 36.8328 11.8864C36.8305 11.4366 36.9512 11.0424 37.195 10.7038C37.4389 10.3653 37.7762 10.1013 38.2071 9.91193C38.638 9.72254 39.1292 9.62784 39.6808 9.62784C40.2443 9.62784 40.7332 9.72372 41.1475 9.91548C41.5641 10.1049 41.8873 10.3712 42.1169 10.7145C42.3466 11.0578 42.4637 11.4555 42.4685 11.9077H40.7852Z"/>
</mask>
<path d="M29.2467 12.3622V13.1122H30.0737L29.9932 12.2892L29.2467 12.3622ZM27.4711 12.3622L26.7274 12.4588L26.8123 13.1122H27.4711V12.3622ZM27.3256 11.8686L26.6547 12.204L26.6547 12.204L27.3256 11.8686ZM27.0344 11.4922L27.5243 10.9243L27.5243 10.9243L27.0344 11.4922ZM26.6047 11.2543L26.3582 11.9627L26.3706 11.9668L26.6047 11.2543ZM25.1487 11.4283L24.7287 10.8069L24.726 10.8087L25.1487 11.4283ZM24.5628 12.1776L23.8713 11.887L23.8696 11.8912L24.5628 12.1776ZM24.5663 14.5781L23.8749 14.8687L23.8775 14.8748L24.5663 14.5781ZM25.1523 15.3132L24.7389 15.9391L24.7458 15.9435L25.1523 15.3132ZM26.5798 15.4837L26.3585 14.7671L26.3555 14.768L26.5798 15.4837ZM27.0024 15.267L27.4653 15.8572L27.4668 15.856L27.0024 15.267ZM27.3042 14.9155L26.6544 14.541L26.6524 14.5446L27.3042 14.9155ZM27.4711 14.4432L27.4756 13.6932L26.8421 13.6894L26.7325 14.3134L27.4711 14.4432ZM29.2467 14.4538L29.9933 14.5252L30.0714 13.7088L29.2512 13.7038L29.2467 14.4538ZM28.9662 15.4055L28.2953 15.0701L28.2933 15.0742L28.9662 15.4055ZM28.3305 16.2614L28.8463 16.8058L28.8488 16.8034L28.3305 16.2614ZM27.3433 16.8722L27.0706 16.1735L27.0692 16.174L27.3433 16.8722ZM24.2467 16.6662L23.8794 17.3201L23.883 17.3221L24.2467 16.6662ZM23.018 15.3949L23.6778 15.0383L23.018 15.3949ZM23.0251 11.3288L22.3677 10.9679L22.3677 10.9679L23.0251 11.3288ZM27.2368 9.8125L27.0023 10.5249L27.0064 10.5262L27.2368 9.8125ZM28.224 10.3452L27.7467 10.9237L27.7496 10.9261L28.224 10.3452ZM29.2467 11.6122H27.4711V13.1122H29.2467V11.6122ZM28.2149 12.2656C28.1817 12.0101 28.1115 11.7634 27.9964 11.5332L26.6547 12.204C26.6864 12.2674 26.7132 12.3497 26.7274 12.4588L28.2149 12.2656ZM27.9964 11.5332C27.88 11.3004 27.7223 11.0952 27.5243 10.9243L26.5444 12.0601C26.5879 12.0976 26.6244 12.1433 26.6547 12.204L27.9964 11.5332ZM27.5243 10.9243C27.3219 10.7497 27.0896 10.6242 26.8388 10.5417L26.3706 11.9668C26.4512 11.9933 26.5054 12.0263 26.5444 12.0601L27.5243 10.9243ZM26.8511 10.5459C26.5976 10.4577 26.3317 10.419 26.0613 10.419V11.919C26.1887 11.919 26.285 11.9372 26.3583 11.9626L26.8511 10.5459ZM26.0613 10.419C25.581 10.419 25.1255 10.5387 24.7287 10.8069L25.5687 12.0496C25.6832 11.9722 25.8362 11.919 26.0613 11.919V10.419ZM24.726 10.8087C24.3356 11.0751 24.0557 11.4482 23.8714 11.887L25.2542 12.4682C25.3444 12.2535 25.4552 12.1271 25.5714 12.0478L24.726 10.8087ZM23.8696 11.8912C23.6874 12.3323 23.6104 12.8306 23.6104 13.3636H25.1104C25.1104 12.9687 25.1683 12.6762 25.256 12.4639L23.8696 11.8912ZM23.6104 13.3636C23.6104 13.9124 23.6876 14.4231 23.8749 14.8687L25.2577 14.2875C25.1704 14.0797 25.1104 13.7808 25.1104 13.3636H23.6104ZM23.8775 14.8748C24.0647 15.3095 24.346 15.6796 24.739 15.9391L25.5656 14.6874C25.4566 14.6154 25.3473 14.4954 25.2552 14.2815L23.8775 14.8748ZM24.7458 15.9435C25.1373 16.196 25.5826 16.3082 26.0507 16.3082V14.8082C25.8275 14.8082 25.6738 14.7571 25.5587 14.6829L24.7458 15.9435ZM26.0507 16.3082C26.3084 16.3082 26.5619 16.2753 26.8041 16.1993L26.3555 14.768C26.2805 14.7915 26.1812 14.8082 26.0507 14.8082V16.3082ZM26.8011 16.2003C27.0411 16.1262 27.2657 16.0137 27.4653 15.8572L26.5395 14.6769C26.4977 14.7097 26.4405 14.7417 26.3585 14.7671L26.8011 16.2003ZM27.4668 15.856C27.6665 15.6985 27.8305 15.5071 27.9561 15.2864L26.6524 14.5446C26.6217 14.5985 26.5846 14.6414 26.538 14.6781L27.4668 15.856ZM27.9541 15.29C28.0825 15.0671 28.1655 14.8254 28.2098 14.573L26.7325 14.3134C26.7153 14.4113 26.687 14.4845 26.6544 14.541L27.9541 15.29ZM27.4666 15.1932L29.2422 15.2038L29.2512 13.7038L27.4756 13.6932L27.4666 15.1932ZM28.5001 14.3825C28.4788 14.6054 28.4136 14.8336 28.2954 15.0701L29.637 15.7409C29.8312 15.3525 29.9531 14.9462 29.9933 14.5252L28.5001 14.3825ZM28.2933 15.0742C28.1809 15.3025 28.0232 15.5175 27.8122 15.7193L28.8488 16.8034C29.1776 16.4891 29.4436 16.1336 29.639 15.7369L28.2933 15.0742ZM27.8147 15.7169C27.6232 15.8984 27.3796 16.0529 27.0706 16.1735L27.616 17.5708C28.0836 17.3884 28.4981 17.1357 28.8463 16.8058L27.8147 15.7169ZM27.0692 16.174C26.7865 16.285 26.4396 16.3494 26.0152 16.3494V17.8494C26.5898 17.8494 27.1283 17.7623 27.6174 17.5703L27.0692 16.174ZM26.0152 16.3494C25.4706 16.3494 25.0086 16.2311 24.6104 16.0103L23.883 17.3221C24.5265 17.6789 25.2434 17.8494 26.0152 17.8494V16.3494ZM24.614 16.0123C24.2271 15.795 23.9155 15.4782 23.6778 15.0383L22.3582 15.7515C22.7218 16.4243 23.2294 16.955 23.8794 17.3201L24.614 16.0123ZM23.6778 15.0383C23.4499 14.6165 23.317 14.0689 23.317 13.3636H21.817C21.817 14.2541 21.9848 15.0606 22.3582 15.7515L23.6778 15.0383ZM23.317 13.3636C23.317 12.6573 23.4517 12.1103 23.6826 11.6897L22.3677 10.9679C21.9877 11.6601 21.817 12.4696 21.817 13.3636H23.317ZM23.6826 11.6897C23.9245 11.249 24.2394 10.9326 24.6282 10.717L23.9007 9.40518C23.2479 9.76721 22.7365 10.296 22.3677 10.9679L23.6826 11.6897ZM24.6282 10.717C25.0284 10.4951 25.485 10.3778 26.0152 10.3778V8.87784C25.2528 8.87784 24.5422 9.04945 23.9007 9.40518L24.6282 10.717ZM26.0152 10.3778C26.3852 10.3778 26.7123 10.4295 27.0023 10.5249L27.4712 9.10009C27.0132 8.94933 26.5259 8.87784 26.0152 8.87784V10.3778ZM27.0064 10.5262C27.2965 10.6199 27.5404 10.7535 27.7467 10.9237L28.7013 9.76664C28.3394 9.46805 27.9252 9.24661 27.4672 9.09876L27.0064 10.5262ZM27.7496 10.9261C27.9521 11.0914 28.1196 11.2965 28.2523 11.5493L29.5807 10.8526C29.3582 10.4284 29.0641 10.0629 28.6984 9.76427L27.7496 10.9261ZM28.2523 11.5493C28.3789 11.7908 28.4657 12.082 28.5003 12.4352L29.9932 12.2892C29.9425 11.7712 29.8091 11.2883 29.5807 10.8526L28.2523 11.5493ZM34.1837 11.9077L33.4368 11.9756L33.4988 12.6577H34.1837V11.9077ZM33.8676 11.3004L33.4009 11.8876L33.4093 11.8941L33.8676 11.3004ZM32.5075 11.169L32.2347 10.4704L32.2347 10.4704L32.5075 11.169ZM32.1666 11.4141L32.7683 11.8618L32.7732 11.8552L32.1666 11.4141ZM32.0494 11.7656L32.7987 11.7982L32.7992 11.7886L32.7993 11.779L32.0494 11.7656ZM32.1134 12.0533L31.4622 12.4254L31.4661 12.4323L31.4703 12.4391L32.1134 12.0533ZM32.3264 12.2734L31.8995 12.8901L31.9085 12.8963L31.9177 12.9023L32.3264 12.2734ZM32.6673 12.4368L32.9196 11.7305L32.9196 11.7305L32.6673 12.4368ZM33.1148 12.5611L33.281 11.8297L33.2719 11.8277L33.1148 12.5611ZM33.7398 12.7031L33.5736 13.4345L33.5807 13.4361L33.7398 12.7031ZM34.6915 13.0156L34.3702 13.6933L34.3724 13.6944L34.6915 13.0156ZM35.3875 13.4808L34.8675 14.0213L34.871 14.0246L35.3875 13.4808ZM35.8172 14.1023L35.1243 14.3892L35.1243 14.3892L35.8172 14.1023ZM35.9664 14.8906L36.7164 14.8945L36.7163 14.8845L35.9664 14.8906ZM35.6183 16.0732L35.0033 15.6439L35.0033 15.6439L35.6183 16.0732ZM34.6276 16.8295L34.3451 16.1348L34.3437 16.1353L34.6276 16.8295ZM31.4848 16.8189L31.7652 16.1233L31.7652 16.1233L31.4848 16.8189ZM30.4301 15.9879L29.8085 16.4076L30.4301 15.9879ZM30.0431 14.5781V13.8281H29.2836L29.2931 14.5875L30.0431 14.5781ZM31.7263 14.5781L32.4749 14.5328L32.4322 13.8281H31.7263V14.5781ZM31.9145 15.1641L31.3036 15.5991L31.3036 15.5991L31.9145 15.1641ZM32.3726 15.5192L32.0853 16.212L32.0883 16.2132L32.3726 15.5192ZM33.6581 15.544L33.3915 14.843L33.3882 14.8443L33.6581 15.544ZM34.0452 15.2777L33.4572 14.8122L33.4572 14.8122L34.0452 15.2777ZM34.1837 14.8871L34.9336 14.8992L34.9338 14.8867L34.9336 14.8741L34.1837 14.8871ZM34.0558 14.5355L33.4796 15.0157L33.4854 15.0225L34.0558 14.5355ZM33.6723 14.2798L33.3757 14.9688L33.3872 14.9735L33.6723 14.2798ZM33.0189 14.0774L32.8483 14.8077L32.8493 14.808L33.0189 14.0774ZM32.259 13.8999L32.4296 13.1695L32.4266 13.1688L32.259 13.8999ZM30.771 13.2003L30.2707 13.759L30.2728 13.7608L30.771 13.2003ZM30.2313 11.8864L30.9813 11.8896L30.9813 11.8824L30.2313 11.8864ZM30.5935 10.7038L29.9849 10.2655L29.9849 10.2655L30.5935 10.7038ZM31.6056 9.91193L31.9074 10.5985L31.9074 10.5985L31.6056 9.91193ZM34.5459 9.91548L34.2309 10.5961L34.2355 10.5983L34.5459 9.91548ZM35.5154 10.7145L36.1387 10.2975L36.1387 10.2975L35.5154 10.7145ZM35.8669 11.9077V12.6577H36.6248L36.6169 11.8998L35.8669 11.9077ZM34.9306 11.8398C34.8903 11.3962 34.6967 10.993 34.326 10.7068L33.4093 11.8941C33.4156 11.899 33.4183 11.902 33.4192 11.903C33.4199 11.9039 33.4206 11.9049 33.4216 11.9068C33.4231 11.9097 33.4325 11.9285 33.4368 11.9756L34.9306 11.8398ZM34.3343 10.7133C33.9684 10.4224 33.5138 10.3303 33.0757 10.3303V11.8303C33.3242 11.8303 33.3976 11.8849 33.4009 11.8875L34.3343 10.7133ZM33.0757 10.3303C32.7895 10.3303 32.5003 10.3667 32.2347 10.4704L32.7804 11.8676C32.8179 11.853 32.9074 11.8303 33.0757 11.8303V10.3303ZM32.2347 10.4704C31.9845 10.5682 31.7398 10.7258 31.5601 10.9729L32.7732 11.8552C32.767 11.8637 32.7609 11.8705 32.7558 11.8755C32.7508 11.8804 32.7473 11.883 32.7464 11.8837C32.7448 11.8849 32.7539 11.878 32.7804 11.8676L32.2347 10.4704ZM31.565 10.9663C31.3912 11.1997 31.3046 11.4704 31.2996 11.7522L32.7993 11.779C32.7993 11.7833 32.7983 11.7967 32.792 11.8155C32.7857 11.8345 32.7767 11.8506 32.7683 11.8618L31.565 10.9663ZM31.3002 11.733C31.2902 11.9628 31.335 12.2028 31.4622 12.4254L32.7646 11.6812C32.7793 11.707 32.7888 11.7332 32.794 11.7565C32.7991 11.7792 32.7989 11.7942 32.7987 11.7982L31.3002 11.733ZM31.4703 12.4391C31.583 12.6271 31.7337 12.7752 31.8995 12.8901L32.7533 11.6568C32.7436 11.65 32.7411 11.647 32.7429 11.6489C32.7449 11.651 32.7503 11.6571 32.7565 11.6674L31.4703 12.4391ZM31.9177 12.9023C32.0716 13.0023 32.2404 13.0807 32.4151 13.1431L32.9196 11.7305C32.8292 11.6982 32.7706 11.6677 32.7352 11.6446L31.9177 12.9023ZM32.4151 13.1431C32.5842 13.2035 32.7659 13.2533 32.9576 13.2944L33.2719 11.8277C33.1322 11.7978 33.0156 11.7648 32.9196 11.7305L32.4151 13.1431ZM32.9486 13.2924L33.5736 13.4345L33.906 11.9718L33.281 11.8297L32.9486 13.2924ZM33.5807 13.4361C33.8959 13.5045 34.1569 13.5922 34.3702 13.6933L35.0128 12.3379C34.6769 12.1787 34.3034 12.058 33.8989 11.9702L33.5807 13.4361ZM34.3724 13.6944C34.5883 13.7959 34.749 13.9073 34.8675 14.0213L35.9075 12.9403C35.652 12.6945 35.3487 12.4958 35.0106 12.3369L34.3724 13.6944ZM34.871 14.0246C34.9866 14.1344 35.0686 14.2548 35.1243 14.3892L36.5101 13.8153C36.3717 13.481 36.1673 13.1871 35.9041 12.9371L34.871 14.0246ZM35.1243 14.3892C35.1794 14.5223 35.2147 14.6878 35.2164 14.8967L36.7163 14.8845C36.7133 14.511 36.6491 14.1509 36.5101 13.8153L35.1243 14.3892ZM35.2164 14.8868C35.2147 15.2166 35.1337 15.4571 35.0033 15.6439L36.2334 16.5024C36.5623 16.0311 36.7133 15.4832 36.7163 14.8945L35.2164 14.8868ZM35.0033 15.6439C34.8691 15.8363 34.6636 16.0053 34.3451 16.1348L34.9101 17.5243C35.4533 17.3034 35.9083 16.9682 36.2334 16.5024L35.0033 15.6439ZM34.3437 16.1353C34.0285 16.2642 33.6131 16.3423 33.0757 16.3423V17.8423C33.7505 17.8423 34.3697 17.7453 34.9114 17.5238L34.3437 16.1353ZM33.0757 16.3423C32.5404 16.3423 32.1092 16.262 31.7652 16.1233L31.2044 17.5145C31.7648 17.7404 32.3942 17.8423 33.0757 17.8423V16.3423ZM31.7652 16.1233C31.4391 15.9918 31.2117 15.8052 31.0517 15.5683L29.8085 16.4076C30.1505 16.914 30.6262 17.2814 31.2044 17.5145L31.7652 16.1233ZM31.0517 15.5683C30.902 15.3465 30.7988 15.0295 30.793 14.5688L29.2931 14.5875C29.3016 15.2631 29.4563 15.8859 29.8085 16.4076L31.0517 15.5683ZM30.0431 15.3281H31.7263V13.8281H30.0431V15.3281ZM30.9777 14.6235C30.9985 14.9666 31.0943 15.3052 31.3036 15.5991L32.5254 14.729C32.5122 14.7104 32.4825 14.6584 32.4749 14.5328L30.9777 14.6235ZM31.3036 15.5991C31.5042 15.8808 31.7742 16.083 32.0853 16.212L32.6599 14.8264C32.5828 14.7944 32.5474 14.7599 32.5254 14.729L31.3036 15.5991ZM32.0883 16.2132C32.3922 16.3377 32.7193 16.3899 33.0544 16.3899V14.8899C32.8734 14.8899 32.746 14.8617 32.6569 14.8251L32.0883 16.2132ZM33.0544 16.3899C33.3545 16.3899 33.6528 16.3499 33.928 16.2438L33.3882 14.8443C33.332 14.866 33.2278 14.8899 33.0544 14.8899V16.3899ZM33.9247 16.2451C34.189 16.1446 34.4413 15.9857 34.6332 15.7432L33.4572 14.8122C33.4692 14.797 33.4634 14.8157 33.3915 14.843L33.9247 16.2451ZM34.6332 15.7432C34.8269 15.4986 34.9286 15.2085 34.9336 14.8992L33.4338 14.875C33.4338 14.8722 33.4346 14.8604 33.4404 14.8442C33.4462 14.8279 33.4535 14.8168 33.4572 14.8122L34.6332 15.7432ZM34.9336 14.8741C34.9284 14.577 34.8311 14.2885 34.6263 14.0486L33.4854 15.0225C33.47 15.0044 33.4552 14.9802 33.4451 14.9525C33.4353 14.9255 33.4339 14.906 33.4338 14.9L34.9336 14.8741ZM34.632 14.0554C34.444 13.8297 34.1965 13.6844 33.9574 13.5861L33.3872 14.9735C33.4372 14.9941 33.4668 15.0111 33.4818 15.0211C33.4966 15.0309 33.4921 15.0306 33.4797 15.0156L34.632 14.0554ZM33.9689 13.591C33.7433 13.4938 33.479 13.4143 33.1885 13.3468L32.8493 14.808C33.0891 14.8637 33.2604 14.919 33.3757 14.9687L33.9689 13.591ZM33.1895 13.3471L32.4296 13.1695L32.0883 14.6302L32.8483 14.8077L33.1895 13.3471ZM32.4266 13.1688C31.8803 13.0435 31.5112 12.8547 31.2693 12.6397L30.2728 13.7608C30.7553 14.1898 31.3782 14.4673 32.0913 14.6309L32.4266 13.1688ZM31.2714 12.6415C31.0913 12.4803 30.9797 12.2588 30.9813 11.8896L29.4813 11.8831C29.4781 12.6171 29.7264 13.2716 30.2707 13.759L31.2714 12.6415ZM30.9813 11.8824C30.9797 11.5782 31.0583 11.3417 31.2021 11.1422L29.9849 10.2655C29.6409 10.743 29.4781 11.2949 29.4813 11.8903L30.9813 11.8824ZM31.2021 11.1422C31.358 10.9257 31.583 10.7411 31.9074 10.5985L31.3038 9.22533C30.7663 9.46156 30.3167 9.80491 29.9849 10.2655L31.2021 11.1422ZM31.9074 10.5985C32.2282 10.4575 32.6139 10.3778 33.0793 10.3778V8.87784C32.4414 8.87784 31.8447 8.98756 31.3038 9.22533L31.9074 10.5985ZM33.0793 10.3778C33.5588 10.3778 33.9356 10.4595 34.2309 10.5961L34.8609 9.23485C34.3276 8.98799 33.7267 8.87784 33.0793 8.87784V10.3778ZM34.2355 10.5983C34.5394 10.7364 34.7482 10.9165 34.892 11.1315L36.1387 10.2975C35.8233 9.82592 35.3858 9.4734 34.8563 9.23271L34.2355 10.5983ZM34.892 11.1315C35.0329 11.3422 35.1136 11.5947 35.117 11.9155L36.6169 11.8998C36.6108 11.3162 36.4571 10.7734 36.1387 10.2975L34.892 11.1315ZM35.8669 11.1577H34.1837V12.6577H35.8669V11.1577ZM40.7852 11.9077L40.0383 11.9756L40.1003 12.6577H40.7852V11.9077ZM40.4692 11.3004L40.0025 11.8876L40.0108 11.8941L40.4692 11.3004ZM39.1091 11.169L38.8362 10.4704L38.8362 10.4704L39.1091 11.169ZM38.7682 11.4141L39.3699 11.8618L39.3748 11.8552L38.7682 11.4141ZM38.651 11.7656L39.4003 11.7982L39.4007 11.7886L39.4009 11.779L38.651 11.7656ZM38.7149 12.0533L38.0638 12.4254L38.0677 12.4323L38.0718 12.4391L38.7149 12.0533ZM38.928 12.2734L38.5011 12.8901L38.5101 12.8963L38.5193 12.9023L38.928 12.2734ZM39.2689 12.4368L39.5212 11.7305L39.5212 11.7305L39.2689 12.4368ZM39.7164 12.5611L39.8826 11.8297L39.8735 11.8277L39.7164 12.5611ZM40.3414 12.7031L40.1751 13.4345L40.1822 13.4361L40.3414 12.7031ZM41.2931 13.0156L40.9717 13.6933L40.974 13.6944L41.2931 13.0156ZM41.9891 13.4808L41.4691 14.0213L41.4725 14.0246L41.9891 13.4808ZM42.4188 14.1023L41.7258 14.3892L41.7258 14.3892L42.4188 14.1023ZM42.5679 14.8906L43.318 14.8945L43.3179 14.8845L42.5679 14.8906ZM42.2199 16.0732L41.6049 15.6439L41.6049 15.6439L42.2199 16.0732ZM41.2291 16.8295L40.9466 16.1348L40.9453 16.1353L41.2291 16.8295ZM38.0864 16.8189L38.3668 16.1233L38.3668 16.1233L38.0864 16.8189ZM37.0317 15.9879L36.4101 16.4076L37.0317 15.9879ZM36.6446 14.5781V13.8281H35.8852L35.8947 14.5875L36.6446 14.5781ZM38.3279 14.5781L39.0765 14.5328L39.0338 13.8281H38.3279V14.5781ZM38.5161 15.1641L37.9051 15.5991L37.9051 15.5991L38.5161 15.1641ZM38.9742 15.5192L38.6869 16.212L38.6899 16.2132L38.9742 15.5192ZM40.2597 15.544L39.9931 14.843L39.9898 14.8443L40.2597 15.544ZM40.6468 15.2777L40.0587 14.8122L40.0587 14.8122L40.6468 15.2777ZM40.7852 14.8871L41.5351 14.8992L41.5353 14.8867L41.5351 14.8741L40.7852 14.8871ZM40.6574 14.5355L40.0812 15.0157L40.087 15.0225L40.6574 14.5355ZM40.2739 14.2798L39.9772 14.9688L39.9888 14.9735L40.2739 14.2798ZM39.6205 14.0774L39.4498 14.8077L39.4509 14.808L39.6205 14.0774ZM38.8605 13.8999L39.0312 13.1695L39.0282 13.1688L38.8605 13.8999ZM37.3726 13.2003L36.8723 13.759L36.8743 13.7608L37.3726 13.2003ZM36.8328 11.8864L37.5829 11.8896L37.5828 11.8824L36.8328 11.8864ZM37.195 10.7038L36.5865 10.2655L36.5865 10.2655L37.195 10.7038ZM38.2071 9.91193L38.5089 10.5985L38.5089 10.5985L38.2071 9.91193ZM41.1475 9.91548L40.8324 10.5961L40.8371 10.5983L41.1475 9.91548ZM42.1169 10.7145L42.7403 10.2975L42.7403 10.2975L42.1169 10.7145ZM42.4685 11.9077V12.6577H43.2264L43.2184 11.8998L42.4685 11.9077ZM41.5322 11.8398C41.4918 11.3962 41.2983 10.993 40.9276 10.7068L40.0108 11.8941C40.0172 11.899 40.0199 11.902 40.0207 11.903C40.0215 11.9039 40.0222 11.9049 40.0232 11.9068C40.0247 11.9097 40.034 11.9285 40.0383 11.9756L41.5322 11.8398ZM40.9359 10.7133C40.5699 10.4224 40.1153 10.3303 39.6773 10.3303V11.8303C39.9258 11.8303 39.9991 11.8849 40.0025 11.8875L40.9359 10.7133ZM39.6773 10.3303C39.391 10.3303 39.1018 10.3667 38.8362 10.4704L39.382 11.8676C39.4194 11.853 39.509 11.8303 39.6773 11.8303V10.3303ZM38.8362 10.4704C38.5861 10.5682 38.3414 10.7258 38.1616 10.9729L39.3748 11.8552C39.3685 11.8637 39.3625 11.8705 39.3574 11.8755C39.3524 11.8804 39.3489 11.883 39.348 11.8837C39.3464 11.8849 39.3555 11.878 39.382 11.8676L38.8362 10.4704ZM38.1665 10.9663C37.9928 11.1997 37.9062 11.4704 37.9011 11.7522L39.4009 11.779C39.4008 11.7833 39.3998 11.7967 39.3936 11.8155C39.3872 11.8345 39.3782 11.8506 39.3699 11.8618L38.1665 10.9663ZM37.9017 11.733C37.8917 11.9628 37.9366 12.2028 38.0638 12.4254L39.3661 11.6812C39.3809 11.707 39.3904 11.7332 39.3956 11.7565C39.4006 11.7792 39.4005 11.7942 39.4003 11.7982L37.9017 11.733ZM38.0718 12.4391C38.1846 12.6271 38.3352 12.7752 38.5011 12.8901L39.3549 11.6568C39.3452 11.65 39.3426 11.647 39.3444 11.6489C39.3465 11.651 39.3519 11.6571 39.3581 11.6674L38.0718 12.4391ZM38.5193 12.9023C38.6732 13.0023 38.8419 13.0807 39.0167 13.1431L39.5212 11.7305C39.4307 11.6982 39.3722 11.6677 39.3367 11.6446L38.5193 12.9023ZM39.0167 13.1431C39.1858 13.2035 39.3675 13.2533 39.5592 13.2944L39.8735 11.8277C39.7338 11.7978 39.6172 11.7648 39.5212 11.7305L39.0167 13.1431ZM39.5501 13.2924L40.1751 13.4345L40.5076 11.9718L39.8826 11.8297L39.5501 13.2924ZM40.1822 13.4361C40.4974 13.5045 40.7584 13.5922 40.9717 13.6933L41.6144 12.3379C41.2784 12.1787 40.905 12.058 40.5005 11.9702L40.1822 13.4361ZM40.974 13.6944C41.1899 13.7959 41.3506 13.9073 41.4691 14.0213L42.509 12.9403C42.2536 12.6945 41.9502 12.4958 41.6121 12.3369L40.974 13.6944ZM41.4725 14.0246C41.5881 14.1344 41.6702 14.2548 41.7258 14.3892L43.1117 13.8153C42.9733 13.481 42.7688 13.1871 42.5056 12.9371L41.4725 14.0246ZM41.7258 14.3892C41.781 14.5223 41.8162 14.6878 41.8179 14.8967L43.3179 14.8845C43.3149 14.511 43.2507 14.1509 43.1117 13.8153L41.7258 14.3892ZM41.8179 14.8868C41.8162 15.2166 41.7352 15.4571 41.6049 15.6439L42.835 16.5024C43.1638 16.0311 43.3149 15.4832 43.3179 14.8945L41.8179 14.8868ZM41.6049 15.6439C41.4706 15.8363 41.2652 16.0053 40.9466 16.1348L41.5116 17.5243C42.0548 17.3034 42.5099 16.9682 42.835 16.5024L41.6049 15.6439ZM40.9453 16.1353C40.6301 16.2642 40.2146 16.3423 39.6773 16.3423V17.8423C40.3521 17.8423 40.9712 17.7453 41.513 17.5238L40.9453 16.1353ZM39.6773 16.3423C39.142 16.3423 38.7108 16.262 38.3668 16.1233L37.806 17.5145C38.3664 17.7404 38.9958 17.8423 39.6773 17.8423V16.3423ZM38.3668 16.1233C38.0407 15.9918 37.8132 15.8052 37.6533 15.5683L36.4101 16.4076C36.752 16.914 37.2277 17.2814 37.806 17.5145L38.3668 16.1233ZM37.6533 15.5683C37.5036 15.3465 37.4003 15.0295 37.3946 14.5688L35.8947 14.5875C35.9031 15.2631 36.0579 15.8859 36.4101 16.4076L37.6533 15.5683ZM36.6446 15.3281H38.3279V13.8281H36.6446V15.3281ZM37.5792 14.6235C37.6 14.9666 37.6958 15.3052 37.9051 15.5991L39.127 14.729C39.1138 14.7104 39.0841 14.6584 39.0765 14.5328L37.5792 14.6235ZM37.9051 15.5991C38.1057 15.8808 38.3757 16.083 38.6869 16.212L39.2614 14.8264C39.1844 14.7944 39.149 14.7599 39.127 14.729L37.9051 15.5991ZM38.6899 16.2132C38.9938 16.3377 39.3209 16.3899 39.656 16.3899V14.8899C39.475 14.8899 39.3476 14.8617 39.2585 14.8251L38.6899 16.2132ZM39.656 16.3899C39.9561 16.3899 40.2543 16.3499 40.5296 16.2438L39.9898 14.8443C39.9336 14.866 39.8294 14.8899 39.656 14.8899V16.3899ZM40.5263 16.2451C40.7905 16.1446 41.0428 15.9857 41.2348 15.7432L40.0587 14.8122C40.0707 14.797 40.065 14.8157 39.9931 14.843L40.5263 16.2451ZM41.2348 15.7432C41.4285 15.4986 41.5302 15.2085 41.5351 14.8992L40.0353 14.875C40.0354 14.8722 40.0362 14.8604 40.042 14.8442C40.0477 14.8279 40.0551 14.8168 40.0587 14.8122L41.2348 15.7432ZM41.5351 14.8741C41.53 14.577 41.4326 14.2885 41.2278 14.0486L40.087 15.0225C40.0716 15.0044 40.0567 14.9802 40.0467 14.9525C40.0369 14.9255 40.0355 14.906 40.0354 14.9L41.5351 14.8741ZM41.2336 14.0554C41.0455 13.8297 40.798 13.6844 40.559 13.5861L39.9888 14.9735C40.0388 14.9941 40.0684 15.0111 40.0834 15.0211C40.0981 15.0309 40.0937 15.0306 40.0812 15.0156L41.2336 14.0554ZM40.5705 13.591C40.3449 13.4938 40.0806 13.4143 39.7901 13.3468L39.4509 14.808C39.6907 14.8637 39.862 14.919 39.9773 14.9687L40.5705 13.591ZM39.7911 13.3471L39.0312 13.1695L38.6899 14.6302L39.4498 14.8077L39.7911 13.3471ZM39.0282 13.1688C38.4818 13.0435 38.1128 12.8547 37.8709 12.6397L36.8743 13.7608C37.3569 14.1898 37.9798 14.4673 38.6929 14.6309L39.0282 13.1688ZM37.8729 12.6415C37.6928 12.4803 37.5812 12.2588 37.5828 11.8896L36.0828 11.8831C36.0797 12.6171 36.328 13.2716 36.8723 13.759L37.8729 12.6415ZM37.5828 11.8824C37.5812 11.5782 37.6599 11.3417 37.8036 11.1422L36.5865 10.2655C36.2425 10.743 36.0797 11.2949 36.0828 11.8903L37.5828 11.8824ZM37.8036 11.1422C37.9596 10.9257 38.1846 10.7411 38.5089 10.5985L37.9053 9.22533C37.3679 9.46156 36.9182 9.80491 36.5865 10.2655L37.8036 11.1422ZM38.5089 10.5985C38.8297 10.4575 39.2155 10.3778 39.6808 10.3778V8.87784C39.043 8.87784 38.4463 8.98756 37.9053 9.22533L38.5089 10.5985ZM39.6808 10.3778C40.1604 10.3778 40.5372 10.4595 40.8324 10.5961L41.4625 9.23485C40.9291 8.98799 40.3282 8.87784 39.6808 8.87784V10.3778ZM40.8371 10.5983C41.1409 10.7364 41.3497 10.9165 41.4935 11.1315L42.7403 10.2975C42.4248 9.82592 41.9873 9.4734 41.4578 9.23271L40.8371 10.5983ZM41.4935 11.1315C41.6345 11.3422 41.7152 11.5947 41.7185 11.9155L43.2184 11.8998C43.2123 11.3162 43.0587 10.7734 42.7403 10.2975L41.4935 11.1315ZM42.4685 11.1577H40.7852V12.6577H42.4685V11.1577Z" fill="#FCFCF7" mask="url(#path-4-outside-1_360_140)"/>
</svg>
