<svg width="64" height="64" viewBox="0 0 64 64" fill="none" xmlns="http://www.w3.org/2000/svg">
<path d="M49.6777 27.5502L44.058 21.9305C43.1004 20.9729 41.9582 20.2198 40.7008 19.7169L39.0711 19.0649L46.4957 39.2175L43.6673 44.1672L49.6777 42.3995V27.5502Z" stroke="#FCFCF7" stroke-width="1.5"/>
<path d="M27.0503 50.1777L21.4306 44.558C20.473 43.6004 19.7198 42.4582 19.2169 41.2008L18.565 39.5711L38.7175 46.9957L43.6673 44.1672L41.8995 50.1777H27.0503Z" stroke="#FCFCF7" stroke-width="1.5"/>
<path d="M15.383 38.5104L11.2256 33.8333C10.3376 32.8343 10.2176 31.3683 10.9313 30.2383L18.1935 18.7398C18.1988 18.7314 18.2118 18.735 18.212 18.7449L18.565 39.5711L15.383 38.5104Z" stroke="#FCFCF7" stroke-width="1.5"/>
<path d="M38.0104 15.883L33.3333 11.7256C32.3343 10.8376 30.8683 10.7176 29.7382 11.4313L18.2397 18.6935C18.2313 18.6988 18.235 18.7118 18.2449 18.712L39.0711 19.065L38.0104 15.883Z" stroke="#FCFCF7" stroke-width="1.5"/>
<path d="M42.7415 43.2415L18.2289 18.7289C18.2225 18.7226 18.2272 18.7117 18.2361 18.7118L38.3864 19.0534C38.7991 19.0604 39.1651 19.3202 39.3078 19.7075L46.3346 38.7803C46.4367 39.0575 46.4111 39.3656 46.2645 39.6221L44.3168 43.0305C43.9897 43.603 43.2077 43.7077 42.7415 43.2415Z" stroke="#FCFCF7" stroke-width="1.5"/>
<path d="M18.5534 38.8864L18.2118 18.7362C18.2117 18.7272 18.2225 18.7226 18.2289 18.7289L42.7415 43.2415C43.2077 43.7077 43.103 44.4897 42.5305 44.8168L39.1221 46.7645C38.8656 46.9111 38.5575 46.9367 38.2803 46.8346L19.2075 39.8078C18.8202 39.6651 18.5604 39.2991 18.5534 38.8864Z" stroke="#FCFCF7" stroke-width="1.5"/>
</svg>
