<svg width="64" height="64" viewBox="0 0 64 64" fill="none" xmlns="http://www.w3.org/2000/svg">
<rect x="12" y="12" width="40" height="40" rx="8" stroke="#FCFCF7" stroke-width="1.5"/>
<mask id="path-2-outside-1_360_32" maskUnits="userSpaceOnUse" x="14" y="26" width="36" height="13" fill="black">
<rect fill="white" x="14" y="26" width="36" height="13"/>
<path d="M15.8181 37V27.5455H22.4104V29.4013H18.1032V31.3402H22.0734V33.2006H18.1032V35.1442H22.4104V37H15.8181ZM23.8092 37V35.6982L28.4026 29.4013H23.8138V27.5455H31.2925V28.8473L26.6991 35.1442H31.2879V37H23.8092ZM38.4504 30.6339C38.3981 30.44 38.3211 30.2692 38.2195 30.1214C38.118 29.9706 37.9933 29.8429 37.8456 29.7383C37.6979 29.6336 37.5286 29.5552 37.3378 29.5028C37.147 29.4474 36.9377 29.4197 36.71 29.4197C36.2514 29.4197 35.8544 29.5305 35.5189 29.7521C35.1865 29.9737 34.9295 30.2969 34.748 30.7216C34.5664 31.1432 34.4756 31.6557 34.4756 32.2589C34.4756 32.8652 34.5633 33.3822 34.7387 33.81C34.9142 34.2378 35.1681 34.564 35.5004 34.7887C35.8328 35.0134 36.236 35.1257 36.71 35.1257C37.1285 35.1257 37.4825 35.058 37.7718 34.9226C38.0641 34.7841 38.2857 34.5887 38.4365 34.3363C38.5873 34.0839 38.6627 33.7869 38.6627 33.4453L39.0874 33.4961H36.7884V31.8295H40.8648V33.0806C40.8648 33.927 40.6847 34.6518 40.3247 35.255C39.9677 35.8582 39.4752 36.3214 38.8474 36.6445C38.2226 36.9677 37.504 37.1293 36.6915 37.1293C35.7897 37.1293 34.9972 36.9338 34.314 36.543C33.6308 36.1521 33.0983 35.5951 32.7167 34.8718C32.3351 34.1455 32.1443 33.2837 32.1443 32.2866C32.1443 31.511 32.2597 30.8232 32.4905 30.223C32.7213 29.6198 33.0429 29.1089 33.4553 28.6903C33.8708 28.2718 34.3509 27.9548 34.8957 27.7393C35.4435 27.5239 36.0329 27.4162 36.6638 27.4162C37.2116 27.4162 37.721 27.4947 38.1919 27.6516C38.6658 27.8086 39.0844 28.0302 39.4475 28.3164C39.8138 28.6026 40.1108 28.9427 40.3385 29.3366C40.5663 29.7306 40.7078 30.163 40.7632 30.6339H38.4504ZM42.2116 37V27.5455H44.4968V35.1442H48.43V37H42.2116Z"/>
</mask>
<path d="M15.8181 37H14.8181V38H15.8181V37ZM15.8181 27.5455V26.5455H14.8181V27.5455H15.8181ZM22.4104 27.5455H23.4104V26.5455H22.4104V27.5455ZM22.4104 29.4013V30.4013H23.4104V29.4013H22.4104ZM18.1032 29.4013V28.4013H17.1032V29.4013H18.1032ZM18.1032 31.3402H17.1032V32.3402H18.1032V31.3402ZM22.0734 31.3402H23.0734V30.3402H22.0734V31.3402ZM22.0734 33.2006V34.2006H23.0734V33.2006H22.0734ZM18.1032 33.2006V32.2006H17.1032V33.2006H18.1032ZM18.1032 35.1442H17.1032V36.1442H18.1032V35.1442ZM22.4104 35.1442H23.4104V34.1442H22.4104V35.1442ZM22.4104 37V38H23.4104V37H22.4104ZM16.8181 37V27.5455H14.8181V37H16.8181ZM15.8181 28.5455H22.4104V26.5455H15.8181V28.5455ZM21.4104 27.5455V29.4013H23.4104V27.5455H21.4104ZM22.4104 28.4013H18.1032V30.4013H22.4104V28.4013ZM17.1032 29.4013V31.3402H19.1032V29.4013H17.1032ZM18.1032 32.3402H22.0734V30.3402H18.1032V32.3402ZM21.0734 31.3402V33.2006H23.0734V31.3402H21.0734ZM22.0734 32.2006H18.1032V34.2006H22.0734V32.2006ZM17.1032 33.2006V35.1442H19.1032V33.2006H17.1032ZM18.1032 36.1442H22.4104V34.1442H18.1032V36.1442ZM21.4104 35.1442V37H23.4104V35.1442H21.4104ZM22.4104 36H15.8181V38H22.4104V36ZM23.8092 37H22.8092V38H23.8092V37ZM23.8092 35.6982L23.0013 35.1088L22.8092 35.3722V35.6982H23.8092ZM28.4026 29.4013L29.2105 29.9906L30.3699 28.4013H28.4026V29.4013ZM23.8138 29.4013H22.8138V30.4013H23.8138V29.4013ZM23.8138 27.5455V26.5455H22.8138V27.5455H23.8138ZM31.2925 27.5455H32.2925V26.5455H31.2925V27.5455ZM31.2925 28.8473L32.1004 29.4366L32.2925 29.1733V28.8473H31.2925ZM26.6991 35.1442L25.8912 34.5548L24.7319 36.1442H26.6991V35.1442ZM31.2879 35.1442H32.2879V34.1442H31.2879V35.1442ZM31.2879 37V38H32.2879V37H31.2879ZM24.8092 37V35.6982H22.8092V37H24.8092ZM24.6171 36.2875L29.2105 29.9906L27.5947 28.8119L23.0013 35.1088L24.6171 36.2875ZM28.4026 28.4013H23.8138V30.4013H28.4026V28.4013ZM24.8138 29.4013V27.5455H22.8138V29.4013H24.8138ZM23.8138 28.5455H31.2925V26.5455H23.8138V28.5455ZM30.2925 27.5455V28.8473H32.2925V27.5455H30.2925ZM30.4846 28.258L25.8912 34.5548L27.507 35.7335L32.1004 29.4366L30.4846 28.258ZM26.6991 36.1442H31.2879V34.1442H26.6991V36.1442ZM30.2879 35.1442V37H32.2879V35.1442H30.2879ZM31.2879 36H23.8092V38H31.2879V36ZM38.4504 30.6339L37.4849 30.8944L37.6844 31.6339H38.4504V30.6339ZM38.2195 30.1214L37.3901 30.6801L37.3955 30.688L38.2195 30.1214ZM37.3378 29.5028L37.059 30.4632L37.0662 30.4653L37.0734 30.4672L37.3378 29.5028ZM35.5189 29.7521L34.9677 28.9177L34.9642 28.9201L35.5189 29.7521ZM34.748 30.7216L35.6664 31.1171L35.6674 31.1147L34.748 30.7216ZM34.7387 33.81L35.664 33.4306L35.664 33.4306L34.7387 33.81ZM35.5004 34.7887L36.0604 33.9602L36.0604 33.9602L35.5004 34.7887ZM37.7718 34.9226L38.1957 35.8283L38.1998 35.8263L37.7718 34.9226ZM38.4365 34.3363L37.5781 33.8233L37.5781 33.8233L38.4365 34.3363ZM38.6627 33.4453L38.7815 32.4524L37.6627 32.3186V33.4453H38.6627ZM39.0874 33.4961V34.4961L39.2062 32.5032L39.0874 33.4961ZM36.7884 33.4961H35.7884V34.4961H36.7884V33.4961ZM36.7884 31.8295V30.8295H35.7884V31.8295H36.7884ZM40.8648 31.8295H41.8648V30.8295H40.8648V31.8295ZM40.3247 35.255L39.466 34.7424L39.4641 34.7457L40.3247 35.255ZM38.8474 36.6445L38.3897 35.7554L38.388 35.7563L38.8474 36.6445ZM34.314 36.543L34.8106 35.675L34.8106 35.675L34.314 36.543ZM32.7167 34.8718L31.8315 35.3369L31.8323 35.3385L32.7167 34.8718ZM32.4905 30.223L33.4238 30.582L33.4245 30.5804L32.4905 30.223ZM33.4553 28.6903L32.7456 27.9858L32.743 27.9885L33.4553 28.6903ZM34.8957 27.7393L34.5297 26.8087L34.5279 26.8094L34.8957 27.7393ZM38.1919 27.6516L37.8756 28.6003L37.8775 28.6009L38.1919 27.6516ZM39.4475 28.3164L38.8285 29.1018L38.8318 29.1043L39.4475 28.3164ZM40.3385 29.3366L39.4728 29.8372L39.4728 29.8372L40.3385 29.3366ZM40.7632 30.6339V31.6339H41.8878L41.7564 30.517L40.7632 30.6339ZM39.4158 30.3734C39.3375 30.0832 39.2165 29.8064 39.0436 29.5549L37.3955 30.688C37.4257 30.7319 37.4586 30.7968 37.4849 30.8944L39.4158 30.3734ZM39.049 29.5628C38.8802 29.3122 38.6705 29.0971 38.4236 28.9223L37.2676 30.5543C37.3162 30.5887 37.3558 30.6291 37.3901 30.68L39.049 29.5628ZM38.4236 28.9223C38.1724 28.7443 37.895 28.6187 37.6022 28.5384L37.0734 30.4672C37.1622 30.4916 37.2234 30.523 37.2676 30.5543L38.4236 28.9223ZM37.6166 28.5425C37.3231 28.4573 37.0186 28.4197 36.71 28.4197V30.4197C36.8569 30.4197 36.9709 30.4376 37.059 30.4632L37.6166 28.5425ZM36.71 28.4197C36.0838 28.4197 35.4889 28.5735 34.9677 28.9177L36.0701 30.5865C36.2198 30.4876 36.419 30.4197 36.71 30.4197V28.4197ZM34.9642 28.9201C34.4461 29.2655 34.0742 29.7537 33.8285 30.3285L35.6674 31.1147C35.7849 30.84 35.9269 30.682 36.0736 30.5842L34.9642 28.9201ZM33.8295 30.3261C33.5801 30.9052 33.4756 31.5603 33.4756 32.2589H35.4756C35.4756 31.751 35.5527 31.3812 35.6664 31.1171L33.8295 30.3261ZM33.4756 32.2589C33.4756 32.9568 33.5759 33.6101 33.8135 34.1894L35.664 33.4306C35.5507 33.1543 35.4756 32.7735 35.4756 32.2589H33.4756ZM33.8135 34.1894C34.052 34.7711 34.4209 35.266 34.9404 35.6172L36.0604 33.9602C35.9152 33.8621 35.7763 33.7045 35.664 33.4306L33.8135 34.1894ZM34.9404 35.6172C35.4664 35.9727 36.0734 36.1257 36.71 36.1257V34.1257C36.3986 34.1257 36.1993 34.0541 36.0604 33.9602L34.9404 35.6172ZM36.71 36.1257C37.2315 36.1257 37.7392 36.0419 38.1957 35.8283L37.3478 34.0169C37.2257 34.0741 37.0255 34.1257 36.71 34.1257V36.1257ZM38.1998 35.8263C38.6525 35.6119 39.0324 35.2886 39.2949 34.8492L37.5781 33.8233C37.539 33.8888 37.4758 33.9563 37.3437 34.0188L38.1998 35.8263ZM39.2949 34.8492C39.5525 34.4182 39.6627 33.9379 39.6627 33.4453H37.6627C37.6627 33.636 37.6221 33.7497 37.5781 33.8233L39.2949 34.8492ZM38.544 34.4382L38.9687 34.489L39.2062 32.5032L38.7815 32.4524L38.544 34.4382ZM39.0874 32.4961H36.7884V34.4961H39.0874V32.4961ZM37.7884 33.4961V31.8295H35.7884V33.4961H37.7884ZM36.7884 32.8295H40.8648V30.8295H36.7884V32.8295ZM39.8648 31.8295V33.0806H41.8648V31.8295H39.8648ZM39.8648 33.0806C39.8648 33.7835 39.7163 34.3232 39.466 34.7424L41.1833 35.7675C41.6532 34.9804 41.8648 34.0704 41.8648 33.0806H39.8648ZM39.4641 34.7457C39.2037 35.1856 38.8515 35.5177 38.3897 35.7554L39.305 37.5337C40.0989 37.125 40.7316 36.5308 41.1852 35.7643L39.4641 34.7457ZM38.388 35.7563C37.9258 35.9954 37.369 36.1293 36.6915 36.1293V38.1293C37.639 38.1293 38.5195 37.94 39.3068 37.5327L38.388 35.7563ZM36.6915 36.1293C35.9382 36.1293 35.3217 35.9674 34.8106 35.675L33.8174 37.411C34.6728 37.9003 35.6413 38.1293 36.6915 38.1293V36.1293ZM34.8106 35.675C34.2987 35.3821 33.8978 34.9674 33.6011 34.4051L31.8323 35.3385C32.2989 36.2227 32.9628 36.9221 33.8174 37.411L34.8106 35.675ZM33.602 34.4067C33.3103 33.8515 33.1443 33.1562 33.1443 32.2866H31.1443C31.1443 33.4113 31.3599 34.4394 31.8315 35.3369L33.602 34.4067ZM33.1443 32.2866C33.1443 31.6091 33.2451 31.0466 33.4238 30.582L31.5572 29.864C31.2742 30.5997 31.1443 31.4129 31.1443 32.2866H33.1443ZM33.4245 30.5804C33.6109 30.0932 33.8613 29.7031 34.1677 29.3922L32.743 27.9885C32.2245 28.5147 31.8318 29.1464 31.5565 29.8656L33.4245 30.5804ZM34.1651 29.3948C34.484 29.0735 34.8479 28.8336 35.2635 28.6693L34.5279 26.8094C33.854 27.076 33.2576 27.47 32.7456 27.9858L34.1651 29.3948ZM35.2617 28.67C35.6848 28.5036 36.1491 28.4162 36.6638 28.4162V26.4162C35.9167 26.4162 35.2023 26.5442 34.5297 26.8087L35.2617 28.67ZM36.6638 28.4162C37.1152 28.4162 37.5167 28.4807 37.8756 28.6003L38.5081 26.703C37.9252 26.5087 37.308 26.4162 36.6638 26.4162V28.4162ZM37.8775 28.6009C38.25 28.7243 38.5636 28.893 38.8285 29.1018L40.0665 27.531C39.6051 27.1673 39.0817 26.8929 38.5062 26.7023L37.8775 28.6009ZM38.8318 29.1043C39.0993 29.3134 39.3106 29.5566 39.4728 29.8372L41.2042 28.8361C40.911 28.3289 40.5283 27.8919 40.0633 27.5285L38.8318 29.1043ZM39.4728 29.8372C39.6295 30.1083 39.7299 30.4093 39.7701 30.7507L41.7564 30.517C41.6858 29.9167 41.503 29.3529 41.2042 28.8361L39.4728 29.8372ZM40.7632 29.6339H38.4504V31.6339H40.7632V29.6339ZM42.2116 37H41.2116V38H42.2116V37ZM42.2116 27.5455V26.5455H41.2116V27.5455H42.2116ZM44.4968 27.5455H45.4968V26.5455H44.4968V27.5455ZM44.4968 35.1442H43.4968V36.1442H44.4968V35.1442ZM48.43 35.1442H49.43V34.1442H48.43V35.1442ZM48.43 37V38H49.43V37H48.43ZM43.2116 37V27.5455H41.2116V37H43.2116ZM42.2116 28.5455H44.4968V26.5455H42.2116V28.5455ZM43.4968 27.5455V35.1442H45.4968V27.5455H43.4968ZM44.4968 36.1442H48.43V34.1442H44.4968V36.1442ZM47.43 35.1442V37H49.43V35.1442H47.43ZM48.43 36H42.2116V38H48.43V36Z" fill="#FCFCF7" mask="url(#path-2-outside-1_360_32)"/>
</svg>
