<svg width="64" height="64" viewBox="0 0 64 64" fill="none" xmlns="http://www.w3.org/2000/svg">
<path d="M26.8453 46.614L22.8179 42.6403C22.0242 41.8572 22.0242 40.5762 22.8179 39.793L32.6659 30.0763C33.0402 29.707 33.5448 29.5 34.0706 29.5H44.5627C45.4568 29.5 45.9015 30.5838 45.265 31.2118L29.6547 46.614C28.8759 47.3825 27.6241 47.3825 26.8453 46.614Z" stroke="#FCFCF7" stroke-width="1.5"/>
<path d="M17.4703 37.364L13.4429 33.3903C12.6492 32.6072 12.6492 31.3262 13.4429 30.543L32.6659 11.5763C33.0402 11.207 33.5448 11 34.0706 11H44.5627C45.4568 11 45.9015 12.0838 45.265 12.7118L20.2797 37.364C19.5009 38.1325 18.2491 38.1325 17.4703 37.364Z" stroke="#FCFCF7" stroke-width="1.5"/>
<path d="M32.6642 52.4142L32.1339 52.9445L32.1339 52.9445L32.6642 52.4142ZM45.2929 51.2929L44.7626 51.8232L44.7626 51.8232L45.2929 51.2929ZM35.125 41.125L35.6553 40.5947L35.125 40.0643L34.5947 40.5947L35.125 41.125ZM29.6642 46.5858L29.1339 46.0555L29.1339 46.0555L29.6642 46.5858ZM33.1945 51.8839L27.3661 46.0555L26.3055 47.1161L32.1339 52.9445L33.1945 51.8839ZM34.0784 52.25C33.7469 52.25 33.429 52.1183 33.1945 51.8839L32.1339 52.9445C32.6496 53.4603 33.3491 53.75 34.0784 53.75V52.25ZM44.5858 52.25H34.0784V53.75H44.5858V52.25ZM44.7626 51.8232C44.9201 51.9807 44.8085 52.25 44.5858 52.25V53.75C46.1449 53.75 46.9257 51.865 45.8232 50.7626L44.7626 51.8232ZM34.5947 41.6553L44.7626 51.8232L45.8232 50.7626L35.6553 40.5947L34.5947 41.6553ZM34.5947 40.5947L29.1339 46.0555L30.1945 47.1161L35.6553 41.6553L34.5947 40.5947ZM29.1339 46.0555C28.6457 46.5436 27.8543 46.5436 27.3661 46.0555L26.3055 47.1161C27.3794 48.1901 29.1206 48.1901 30.1945 47.1161L29.1339 46.0555Z" fill="#FCFCF7"/>
</svg>
