<svg width="64" height="64" viewBox="0 0 64 64" fill="none" xmlns="http://www.w3.org/2000/svg">
<path d="M29 48.9884V30.4579C29 29.5891 29.5609 28.8197 30.388 28.5539L48.6221 22.6929C49.2879 22.4789 49.9622 22.997 49.9268 23.6955L49.0633 40.75C49.0246 41.5147 48.5527 42.1901 47.8481 42.4895L30.3911 49.9088C29.7316 50.1891 29 49.7051 29 48.9884Z" stroke="#FCFCF7" stroke-width="1.5"/>
<path d="M25.5 48.122V29.4612C25.5 28.8537 25.2238 28.2791 24.7494 27.8995L14.7038 19.863C14.0357 19.3285 13.0485 19.8254 13.0798 20.6805L13.7208 38.2022C13.7396 38.7144 13.9542 39.1999 14.3205 39.5584L23.8005 48.8367C24.4335 49.4562 25.5 49.0078 25.5 48.122Z" stroke="#FCFCF7" stroke-width="1.5"/>
<path d="M46.1328 19.8877L28.4562 25.212C27.8542 25.3933 27.2019 25.281 26.6952 24.9087L16.9072 17.7175C16.2349 17.2236 16.4274 16.1721 17.231 15.9483L34.1528 11.2359C34.6927 11.0856 35.2708 11.1686 35.7465 11.4648L46.373 18.0813C47.1033 18.536 46.9566 19.6396 46.1328 19.8877Z" stroke="#FCFCF7" stroke-width="1.5"/>
</svg>
