<svg width="64" height="64" viewBox="0 0 64 64" fill="none" xmlns="http://www.w3.org/2000/svg">
<path d="M45.6477 19.5H19.3523C17.0103 19.5 15.1693 21.5031 15.3665 23.8368L17.7653 52.2222C17.9063 53.8914 19.0725 55.2959 20.6873 55.7413L31.4363 58.7066C32.1324 58.8986 32.8676 58.8986 33.5637 58.7066L44.3127 55.7413C45.9275 55.2959 47.0937 53.8914 47.2347 52.2222L49.6335 23.8368C49.8307 21.5031 47.9897 19.5 45.6477 19.5Z" stroke="#FCFCF7" stroke-width="1.5"/>
<path d="M42.3672 27H22.622C22.0243 27 21.5601 27.5209 21.6286 28.1146L22.8978 39.1146C22.9561 39.6192 23.3833 40 23.8913 40H36.905C37.493 40 37.9541 40.5049 37.9009 41.0905L37.5612 44.8269C37.5242 45.2336 37.2437 45.5769 36.8526 45.6942L32.7873 46.9138C32.5999 46.97 32.4001 46.97 32.2127 46.9138L28.1609 45.6983C27.7631 45.5789 27.4804 45.226 27.4508 44.8117L27.3163 42.9288C27.279 42.4054 26.8435 42 26.3189 42H24.074C23.4936 42 23.0352 42.4924 23.0765 43.0712L23.4497 48.2965C23.4799 48.7183 23.7721 49.0756 24.1796 49.1888L32.2324 51.4257C32.4075 51.4743 32.5925 51.4743 32.7676 51.4257L40.8223 49.1882C41.2289 49.0753 41.5208 48.7194 41.552 48.2986L42.4205 36.5739C42.4634 35.9941 42.0046 35.5 41.4232 35.5H27.895C27.3855 35.5 26.9574 35.1169 26.9012 34.6104L26.6234 32.1104C26.5576 31.5181 27.0213 31 27.6173 31H42.1172C42.6215 31 43.0469 30.6245 43.1095 30.124L43.3595 28.124C43.4341 27.5272 42.9687 27 42.3672 27Z" stroke="#FCFCF7"/>
<path fill-rule="evenodd" clip-rule="evenodd" d="M33.5 22C32.6716 22 32 22.6716 32 23.5V27H33V23.5C33 23.2239 33.2239 23 33.5 23H44.3294C45.2061 23 45.896 23.7487 45.8243 24.6225L43.6176 51.5454C43.5655 52.1805 43.1178 52.7134 42.5012 52.8743L33.6262 55.1895C33.3094 55.2721 33 55.0331 33 54.7057V51.3611L32.7676 51.4257C32.5925 51.4743 32.4075 51.4743 32.2324 51.4257L32 51.3611V54.7057C32 55.6878 32.9283 56.405 33.8786 56.1571L42.7536 53.8419C43.7813 53.5738 44.5274 52.6856 44.6142 51.6271L46.821 24.7042C46.9404 23.2479 45.7906 22 44.3294 22H33.5ZM32 46.85L32.2127 46.9138C32.4001 46.97 32.5999 46.97 32.7874 46.9138L33 46.85V40H32V46.85ZM32 35.5H33V31H32V35.5Z" fill="#FCFCF7"/>
<mask id="path-4-outside-1_360_133" maskUnits="userSpaceOnUse" x="17" y="8" width="31" height="10" fill="black">
<rect fill="white" x="17" y="8" width="31" height="10"/>
<path d="M18.4655 17V9.72727H20.2233V12.6463H23.089V9.72727H24.8433V17H23.089V14.0774H20.2233V17H18.4655ZM25.708 11.1548V9.72727H31.855V11.1548H29.6498V17H27.9168V11.1548H25.708ZM32.7135 9.72727H34.8904L36.7369 14.2301H36.8222L38.6688 9.72727H40.8456V17H39.134V12.5327H39.0736L37.3264 16.9538H36.2327L34.4855 12.5078H34.4252V17H32.7135V9.72727ZM41.942 17V9.72727H43.6998V15.5724H46.7254V17H41.942Z"/>
</mask>
<path d="M18.4655 17H17.7155V17.75H18.4655V17ZM18.4655 9.72727V8.97727H17.7155V9.72727H18.4655ZM20.2233 9.72727H20.9733V8.97727H20.2233V9.72727ZM20.2233 12.6463H19.4733V13.3963H20.2233V12.6463ZM23.089 12.6463V13.3963H23.839V12.6463H23.089ZM23.089 9.72727V8.97727H22.339V9.72727H23.089ZM24.8433 9.72727H25.5933V8.97727H24.8433V9.72727ZM24.8433 17V17.75H25.5933V17H24.8433ZM23.089 17H22.339V17.75H23.089V17ZM23.089 14.0774H23.839V13.3274H23.089V14.0774ZM20.2233 14.0774V13.3274H19.4733V14.0774H20.2233ZM20.2233 17V17.75H20.9733V17H20.2233ZM19.2155 17V9.72727H17.7155V17H19.2155ZM18.4655 10.4773H20.2233V8.97727H18.4655V10.4773ZM19.4733 9.72727V12.6463H20.9733V9.72727H19.4733ZM20.2233 13.3963H23.089V11.8963H20.2233V13.3963ZM23.839 12.6463V9.72727H22.339V12.6463H23.839ZM23.089 10.4773H24.8433V8.97727H23.089V10.4773ZM24.0933 9.72727V17H25.5933V9.72727H24.0933ZM24.8433 16.25H23.089V17.75H24.8433V16.25ZM23.839 17V14.0774H22.339V17H23.839ZM23.089 13.3274H20.2233V14.8274H23.089V13.3274ZM19.4733 14.0774V17H20.9733V14.0774H19.4733ZM20.2233 16.25H18.4655V17.75H20.2233V16.25ZM25.708 11.1548H24.958V11.9048H25.708V11.1548ZM25.708 9.72727V8.97727H24.958V9.72727H25.708ZM31.855 9.72727H32.605V8.97727H31.855V9.72727ZM31.855 11.1548V11.9048H32.605V11.1548H31.855ZM29.6498 11.1548V10.4048H28.8998V11.1548H29.6498ZM29.6498 17V17.75H30.3998V17H29.6498ZM27.9168 17H27.1668V17.75H27.9168V17ZM27.9168 11.1548H28.6668V10.4048H27.9168V11.1548ZM26.458 11.1548V9.72727H24.958V11.1548H26.458ZM25.708 10.4773H31.855V8.97727H25.708V10.4773ZM31.105 9.72727V11.1548H32.605V9.72727H31.105ZM31.855 10.4048H29.6498V11.9048H31.855V10.4048ZM28.8998 11.1548V17H30.3998V11.1548H28.8998ZM29.6498 16.25H27.9168V17.75H29.6498V16.25ZM28.6668 17V11.1548H27.1668V17H28.6668ZM27.9168 10.4048H25.708V11.9048H27.9168V10.4048ZM32.7135 9.72727V8.97727H31.9635V9.72727H32.7135ZM34.8904 9.72727L35.5843 9.4427L35.3934 8.97727H34.8904V9.72727ZM36.7369 14.2301L36.043 14.5147L36.2339 14.9801H36.7369V14.2301ZM36.8222 14.2301V14.9801H37.3252L37.5161 14.5147L36.8222 14.2301ZM38.6688 9.72727V8.97727H38.1657L37.9749 9.4427L38.6688 9.72727ZM40.8456 9.72727H41.5956V8.97727H40.8456V9.72727ZM40.8456 17V17.75H41.5956V17H40.8456ZM39.134 17H38.384V17.75H39.134V17ZM39.134 12.5327H39.884V11.7827H39.134V12.5327ZM39.0736 12.5327V11.7827H38.5635L38.3761 12.257L39.0736 12.5327ZM37.3264 16.9538V17.7038H37.8365L38.0239 17.2295L37.3264 16.9538ZM36.2327 16.9538L35.5347 17.2281L35.7216 17.7038H36.2327V16.9538ZM34.4855 12.5078L35.1836 12.2335L34.9966 11.7578H34.4855V12.5078ZM34.4252 12.5078V11.7578H33.6752V12.5078H34.4252ZM34.4252 17V17.75H35.1752V17H34.4252ZM32.7135 17H31.9635V17.75H32.7135V17ZM32.7135 10.4773H34.8904V8.97727H32.7135V10.4773ZM34.1964 10.0118L36.043 14.5147L37.4309 13.9455L35.5843 9.4427L34.1964 10.0118ZM36.7369 14.9801H36.8222V13.4801H36.7369V14.9801ZM37.5161 14.5147L39.3627 10.0118L37.9749 9.4427L36.1283 13.9455L37.5161 14.5147ZM38.6688 10.4773H40.8456V8.97727H38.6688V10.4773ZM40.0956 9.72727V17H41.5956V9.72727H40.0956ZM40.8456 16.25H39.134V17.75H40.8456V16.25ZM39.884 17V12.5327H38.384V17H39.884ZM39.134 11.7827H39.0736V13.2827H39.134V11.7827ZM38.3761 12.257L36.6289 16.6782L38.0239 17.2295L39.7711 12.8083L38.3761 12.257ZM37.3264 16.2038H36.2327V17.7038H37.3264V16.2038ZM36.9307 16.6795L35.1836 12.2335L33.7875 12.7821L35.5347 17.2281L36.9307 16.6795ZM34.4855 11.7578H34.4252V13.2578H34.4855V11.7578ZM33.6752 12.5078V17H35.1752V12.5078H33.6752ZM34.4252 16.25H32.7135V17.75H34.4252V16.25ZM33.4635 17V9.72727H31.9635V17H33.4635ZM41.942 17H41.192V17.75H41.942V17ZM41.942 9.72727V8.97727H41.192V9.72727H41.942ZM43.6998 9.72727H44.4498V8.97727H43.6998V9.72727ZM43.6998 15.5724H42.9498V16.3224H43.6998V15.5724ZM46.7254 15.5724H47.4754V14.8224H46.7254V15.5724ZM46.7254 17V17.75H47.4754V17H46.7254ZM42.692 17V9.72727H41.192V17H42.692ZM41.942 10.4773H43.6998V8.97727H41.942V10.4773ZM42.9498 9.72727V15.5724H44.4498V9.72727H42.9498ZM43.6998 16.3224H46.7254V14.8224H43.6998V16.3224ZM45.9754 15.5724V17H47.4754V15.5724H45.9754ZM46.7254 16.25H41.942V17.75H46.7254V16.25Z" fill="#FCFCF7" mask="url(#path-4-outside-1_360_133)"/>
</svg>
