<svg width="64" height="64" viewBox="0 0 64 64" fill="none" xmlns="http://www.w3.org/2000/svg">
<rect x="12" y="12" width="40" height="40" rx="8" stroke="#FCFCF7" stroke-width="1.5"/>
<path d="M25 32V22.5C25 21.1193 23.8807 20 22.5 20C21.1193 20 20 21.1193 20 22.5V32C20 36.9706 24.0294 41 29 41C29.5523 41 30 41.4477 30 42V44.75C30 45.9926 31.0074 47 32.25 47C33.4926 47 34.5 45.9926 34.5 44.75V42C34.5 41.4477 34.9477 41 35.5 41H36C40.9706 41 45 36.9706 45 32V22.5C45 21.1193 43.8807 20 42.5 20C41.1193 20 40 21.1193 40 22.5V32C40 34.2091 38.2091 36 36 36C35.4477 36 35 35.5523 35 35V22.5C35 21.1193 33.8807 20 32.5 20C31.1193 20 30 21.1193 30 22.5V35C30 35.5523 29.5523 36 29 36C26.7909 36 25 34.2091 25 32Z" stroke="#FCFCF7" stroke-width="1.25" stroke-linecap="round"/>
</svg>
