<svg width="64" height="64" viewBox="0 0 64 64" fill="none" xmlns="http://www.w3.org/2000/svg">
<rect x="39" y="30" width="13" height="13" rx="4" stroke="#FCFCF7" stroke-width="1.5"/>
<path d="M46.4938 43L47.105 43.4347L47.9476 42.25H46.4938V43ZM12.9319 26.1061L13.5 25.6164L12.6313 24.6084L12.2188 25.8736L12.9319 26.1061ZM39.1299 40.0151L39.8555 39.8253L39.7342 39.3614L39.2622 39.2768L39.1299 40.0151ZM49.9418 30.5021L49.5772 31.1575L50.7982 31.8368L50.6896 30.4438L49.9418 30.5021ZM39.2531 32.5965L39.1368 33.3375L39.7409 33.4323L39.9554 32.8597L39.2531 32.5965ZM14.7418 22.1625L14.1005 21.7736L13.7745 22.3112L14.2469 22.726L14.7418 22.1625ZM31 51.75C37.6469 51.75 43.5267 48.4657 47.105 43.4347L45.8826 42.5653C42.5737 47.2177 37.1409 50.25 31 50.25V51.75ZM11.25 32C11.25 42.9076 20.0924 51.75 31 51.75V50.25C20.9208 50.25 12.75 42.0792 12.75 32H11.25ZM12.2188 25.8736C11.5898 27.8033 11.25 29.8627 11.25 32H12.75C12.75 30.0225 13.0642 28.1199 13.645 26.3385L12.2188 25.8736ZM39.2622 39.2768C33.5228 38.2483 28.9871 37.0275 24.9403 34.9772C20.9028 32.9315 17.3119 30.0394 13.5 25.6164L12.3638 26.5957C16.276 31.1351 20.016 34.1638 24.2624 36.3152C28.4995 38.462 33.2007 39.7145 38.9976 40.7533L39.2622 39.2768ZM43 42.25C41.4911 42.25 40.2206 41.221 39.8555 39.8253L38.4043 40.2049C38.9378 42.2443 40.7921 43.75 43 43.75V42.25ZM46.4938 42.25H43V43.75H46.4938V42.25ZM48 30.75C48.5738 30.75 49.1108 30.8981 49.5772 31.1575L50.3064 29.8467C49.6228 29.4664 48.8355 29.25 48 29.25V30.75ZM43 30.75H48V29.25H43V30.75ZM39.9554 32.8597C40.4177 31.6261 41.6075 30.75 43 30.75V29.25C40.9619 29.25 39.2254 30.5333 38.5508 32.3334L39.9554 32.8597ZM14.2469 22.726C21.374 28.985 27.8222 31.561 39.1368 33.3375L39.3695 31.8556C28.2482 30.1095 22.0921 27.6193 15.2367 21.599L14.2469 22.726ZM31 12.25C23.8346 12.25 17.5613 16.0663 14.1005 21.7736L15.3831 22.5514C18.5833 17.2738 24.3805 13.75 31 13.75V12.25ZM50.6896 30.4438C49.8956 20.2632 41.384 12.25 31 12.25V13.75C40.5946 13.75 48.4606 21.1545 49.1941 30.5604L50.6896 30.4438Z" fill="#FCFCF7"/>
</svg>
