<svg width="64" height="64" viewBox="0 0 64 64" fill="none" xmlns="http://www.w3.org/2000/svg">
<path d="M46 17H18C16.8954 17 16.0071 17.8926 16.0592 18.9959C16.3829 25.849 18.4751 48 32 48C45.5249 48 47.6171 25.8491 47.9408 18.9959C47.9929 17.8926 47.1046 17 46 17Z" stroke="#FCFCF7" stroke-width="1.5"/>
<path d="M19.8247 38L20.5156 37.7083L20.3222 37.25H19.8247V38ZM9.85494 39.4961L9.20375 39.8682L9.85494 39.4961ZM12.1362 43.4884L12.7874 43.1163L12.7874 43.1163L12.1362 43.4884ZM24.4289 45V45.75H26.3473L24.9375 44.4489L24.4289 45ZM39.5711 45L39.0625 44.4489L37.6527 45.75H39.5711V45ZM44.1753 38V37.25H43.6778L43.4844 37.7083L44.1753 38ZM53.8705 39.5812L54.4808 40.0172L54.4808 40.0172L53.8705 39.5812ZM50.8973 43.7437L50.287 43.3078L50.287 43.3078L50.8973 43.7437ZM19.8247 37.25H10.7232V38.75H19.8247V37.25ZM10.7232 37.25C9.37949 37.25 8.5371 38.7016 9.20375 39.8682L10.5061 39.124C10.4109 38.9574 10.5312 38.75 10.7232 38.75V37.25ZM9.20375 39.8682L11.4851 43.8605L12.7874 43.1163L10.5061 39.124L9.20375 39.8682ZM11.4851 43.8605C12.1527 45.0289 13.3953 45.75 14.741 45.75V44.25C13.9335 44.25 13.188 43.8174 12.7874 43.1163L11.4851 43.8605ZM14.741 45.75H24.4289V44.25H14.741V45.75ZM19.1337 38.2917C20.3105 41.0793 21.8626 43.6521 23.9202 45.5511L24.9375 44.4489C23.0915 42.745 21.6439 40.3809 20.5156 37.7083L19.1337 38.2917ZM40.0798 45.5511C42.1374 43.6521 43.6895 41.0793 44.8663 38.2917L43.4844 37.7083C42.3561 40.3809 40.9085 42.745 39.0625 44.4489L40.0798 45.5511ZM53.0568 37.25H44.1753V38.75H53.0568V37.25ZM54.4808 40.0172C55.3082 38.8589 54.4802 37.25 53.0568 37.25V38.75C53.2602 38.75 53.3784 38.9798 53.2602 39.1453L54.4808 40.0172ZM51.5076 44.1796L54.4808 40.0172L53.2602 39.1453L50.287 43.3078L51.5076 44.1796ZM48.4561 45.75C49.6672 45.75 50.8037 45.1651 51.5076 44.1796L50.287 43.3078C49.8647 43.8991 49.1828 44.25 48.4561 44.25V45.75ZM39.5711 45.75H48.4561V44.25H39.5711V45.75Z" fill="#FCFCF7"/>
<path d="M20.0073 24.4012V24.9012H20.5073H22.8788V32V32.5H23.3788H25.6316H26.1316V32V24.9012H28.4984H28.9984V24.4012V22.5454V22.0454H28.4984H20.5073H20.0073V22.5454V24.4012Z" stroke="#FCFCF7"/>
<path fill-rule="evenodd" clip-rule="evenodd" d="M25.76 29.4012V28.4012V26.5454V25.5454H26.76H34.7511H35.7511V26.5454V28.4012V29.4012H34.7511H32.8843V34.5688C32.7409 35.0795 32.6692 35.6475 32.6692 36.2727C32.6692 36.5243 32.6807 36.7668 32.7037 37H31.8843H29.6314H28.6314V36V29.4012H26.76H25.76ZM28.6314 28.4012H29.6314V29.4012V35V36H30.6314H30.8843H31.8843V35V29.4012V28.4012H32.8843H33.7511H34.7511V27.5454V27.4012V26.5454H33.7511H27.76H26.76V27.4012V27.5454V28.4012H27.76H28.6314Z" fill="#FCFCF7"/>
<path d="M41.3509 34.9708H39.5454H41.3509ZM41.3509 34.9708C41.3527 34.987 41.3544 35.0032 41.356 35.0195L41.8536 34.9708M41.3509 34.9708H41.8536M41.8536 34.9708V34.4708H41.7785L41.8536 34.9708ZM39.3284 38.2901C39.2268 38.4686 39.096 38.6209 38.936 38.7471C38.779 38.8702 38.5959 38.9641 38.3866 39.0287L39.3284 38.2901ZM39.3284 38.2901C39.433 38.1085 39.5053 37.9038 39.5454 37.6761L39.3284 38.2901ZM41.8536 35.4708H42.4049L42.3512 34.9221C42.2904 34.3009 42.1318 33.7339 41.8671 33.229C41.6065 32.7322 41.2645 32.3081 40.8413 31.9622C40.4206 31.6154 39.9369 31.3557 39.3956 31.1808C38.8537 31.0026 38.2714 30.9161 37.6526 30.9161C36.735 30.9161 35.8917 31.122 35.1342 31.5421C34.3691 31.9664 33.7665 32.5865 33.3272 33.3868L33.7655 33.6274L33.3272 33.3868C32.8805 34.2006 32.67 35.1698 32.67 36.2727C32.67 37.3716 32.8771 38.3381 33.3164 39.151C33.7493 39.9519 34.347 40.5741 35.1087 41.0019L35.1111 41.0033C35.87 41.4241 36.7213 41.6292 37.6526 41.6292C38.3518 41.6292 38.9911 41.5232 39.5614 41.2994C40.1188 41.0818 40.6034 40.7845 41.0064 40.4027L41.0081 40.4011C41.3978 40.0285 41.7091 39.6113 41.9368 39.1494C42.1648 38.6929 42.305 38.2216 42.3513 37.7375L42.4033 37.1932L41.8566 37.1899L39.5484 37.1761L39.126 37.1736L39.0529 37.5896C39.0219 37.7658 38.9678 37.9143 38.8952 38.0404L38.8938 38.0428C38.824 38.1655 38.7357 38.2682 38.6269 38.3541C38.5226 38.4358 38.3955 38.5027 38.2391 38.551L38.2391 38.551L38.2371 38.5516C38.0866 38.5988 37.9087 38.6257 37.6988 38.6257C37.3323 38.6257 37.0408 38.5404 36.8041 38.3884C36.5739 38.2357 36.3785 38.0016 36.2292 37.6558C36.0845 37.3105 36.0013 36.8555 36.0013 36.2727C36.0013 35.7162 36.0824 35.2713 36.226 34.9231C36.3729 34.5743 36.5699 34.3324 36.8071 34.1703C37.0452 34.0096 37.3396 33.9197 37.7126 33.9197C37.9235 33.9197 38.1024 33.9498 38.2547 34.0027L38.2546 34.0028L38.2629 34.0055C38.4216 34.0576 38.5484 34.1299 38.6509 34.2184C38.7564 34.3093 38.8421 34.4193 38.9089 34.5527L39.3561 34.3291L38.9089 34.5527C38.9765 34.688 39.0251 34.8471 39.0495 35.0352L39.1061 35.4708H39.5454H41.8536Z" stroke="#FCFCF7"/>
</svg>
