<svg width="64" height="64" viewBox="0 0 64 64" fill="none" xmlns="http://www.w3.org/2000/svg">
<rect x="12" y="12" width="40" height="40" rx="8" stroke="#FCFCF7" stroke-width="1.5"/>
<path d="M38.5028 37.4857L38.9114 36.1817H42.012L42.4217 37.4867C42.6344 38.164 43.2621 38.6249 43.9721 38.6249H44.8679C45.9795 38.6249 46.763 37.5337 46.4076 36.4804L43.1563 26.844C42.9333 26.1834 42.3138 25.7385 41.6165 25.7385H39.3082C38.6109 25.7385 37.9914 26.1834 37.7685 26.844L34.5171 36.4804C34.1617 37.5337 34.9452 38.6249 36.0569 38.6249H36.9522C37.6625 38.6249 38.2905 38.1636 38.5028 37.4857ZM40.4601 31.2388L40.9488 32.7953H39.9724L40.4601 31.2388Z" stroke="#FCFCF7" stroke-width="1.25"/>
<path d="M32.4987 37.5201L35.7547 27.8837C36.1107 26.8303 35.3272 25.7385 34.2152 25.7385H33.5138C32.8168 25.7385 32.1974 26.183 31.9743 26.8433L28.7183 36.4797C28.3623 37.5332 29.1458 38.6249 30.2578 38.6249H30.9592C31.6562 38.6249 32.2756 38.1804 32.4987 37.5201Z" stroke="#FCFCF7" stroke-width="1.25"/>
<path d="M25.3771 26.889L23.5405 32.9042L21.7038 26.889C21.4951 26.2055 20.8644 25.7385 20.1497 25.7385H19.135C18.0233 25.7385 17.2399 26.8297 17.5953 27.883L20.8466 37.5194C21.0695 38.1801 21.689 38.6249 22.3863 38.6249H24.6947C25.3919 38.6249 26.0115 38.1801 26.2344 37.5194L29.4857 27.883C29.8411 26.8297 29.0576 25.7385 27.946 25.7385H26.9313C26.2166 25.7385 25.5858 26.2055 25.3771 26.889Z" stroke="#FCFCF7" stroke-width="1.25"/>
</svg>
