<svg width="64" height="64" viewBox="0 0 64 64" fill="none" xmlns="http://www.w3.org/2000/svg">
<path d="M49.6777 27.5502L44.058 21.9305C43.1004 20.9729 41.9582 20.2198 40.7008 19.7169L39.0711 19.0649L46.4957 39.2175L43.6673 44.1672L49.6777 42.3995V27.5502Z" fill="#72A0E5"/>
<path d="M27.0503 50.1777L21.4306 44.558C20.473 43.6004 19.7198 42.4582 19.2169 41.2008L18.565 39.5711L38.7175 46.9957L43.6673 44.1672L41.8995 50.1777H27.0503Z" fill="#6EE5C8"/>
<path d="M15.383 38.5104L11.2256 33.8333C10.3376 32.8343 10.2176 31.3683 10.9313 30.2383L18.2114 18.7114L18.565 39.5711L15.383 38.5104Z" fill="#72A0E5"/>
<path d="M38.0104 15.883L33.3333 11.7256C32.3343 10.8376 30.8683 10.7176 29.7382 11.4313L18.2114 18.7114L39.0711 19.065L38.0104 15.883Z" fill="#6EE5C8"/>
<path d="M43.6673 44.1673L18.2114 18.7114L39.0711 19.065L46.4957 39.2175L43.6673 44.1673Z" fill="#4F86D9"/>
<path d="M18.565 39.5711L18.2114 18.7114L43.6673 44.1673L38.7175 46.9957L18.565 39.5711Z" fill="#37D6AF"/>
</svg>
