<svg width="64" height="64" viewBox="0 0 64 64" fill="none" xmlns="http://www.w3.org/2000/svg">
<rect x="12" y="12" width="40" height="40" rx="8" fill="#4C5AA3"/>
<path d="M15.8181 37V27.5455H22.4104V29.4013H18.1032V31.3402H22.0734V33.2006H18.1032V35.1442H22.4104V37H15.8181ZM23.8092 37V35.6982L28.4026 29.4013H23.8138V27.5455H31.2925V28.8473L26.6991 35.1442H31.2879V37H23.8092ZM38.4504 30.6339C38.3981 30.44 38.3211 30.2692 38.2195 30.1214C38.118 29.9706 37.9933 29.8429 37.8456 29.7383C37.6979 29.6336 37.5286 29.5552 37.3378 29.5028C37.147 29.4474 36.9377 29.4197 36.71 29.4197C36.2514 29.4197 35.8544 29.5305 35.5189 29.7521C35.1865 29.9737 34.9295 30.2969 34.748 30.7216C34.5664 31.1432 34.4756 31.6557 34.4756 32.2589C34.4756 32.8652 34.5633 33.3822 34.7387 33.81C34.9142 34.2378 35.1681 34.564 35.5004 34.7887C35.8328 35.0134 36.236 35.1257 36.71 35.1257C37.1285 35.1257 37.4825 35.058 37.7718 34.9226C38.0641 34.7841 38.2857 34.5887 38.4365 34.3363C38.5873 34.0839 38.6627 33.7869 38.6627 33.4453L39.0874 33.4961H36.7884V31.8295H40.8648V33.0806C40.8648 33.927 40.6847 34.6518 40.3247 35.255C39.9677 35.8582 39.4752 36.3214 38.8474 36.6445C38.2226 36.9677 37.504 37.1293 36.6915 37.1293C35.7897 37.1293 34.9972 36.9338 34.314 36.543C33.6308 36.1521 33.0983 35.5951 32.7167 34.8718C32.3351 34.1455 32.1443 33.2837 32.1443 32.2866C32.1443 31.511 32.2597 30.8232 32.4905 30.223C32.7213 29.6198 33.0429 29.1089 33.4553 28.6903C33.8708 28.2718 34.3509 27.9548 34.8957 27.7393C35.4435 27.5239 36.0329 27.4162 36.6638 27.4162C37.2116 27.4162 37.721 27.4947 38.1919 27.6516C38.6658 27.8086 39.0844 28.0302 39.4475 28.3164C39.8138 28.6026 40.1108 28.9427 40.3385 29.3366C40.5663 29.7306 40.7078 30.163 40.7632 30.6339H38.4504ZM42.2116 37V27.5455H44.4968V35.1442H48.43V37H42.2116Z" fill="white"/>
</svg>
