<svg width="64" height="64" viewBox="0 0 64 64" fill="none" xmlns="http://www.w3.org/2000/svg">
<path d="M26 45.6957L32.7941 39L45.2626 51.2878C45.8996 51.9156 45.4551 53 44.5606 53H34.2317C33.7063 53 33.202 52.7933 32.8278 52.4245L26 45.6957Z" fill="#4158D2"/>
<path d="M26.8453 46.614L22.8179 42.6403C22.0242 41.8572 22.0242 40.5762 22.8179 39.793L32.6659 30.0763C33.0402 29.707 33.5448 29.5 34.0706 29.5H44.5627C45.4568 29.5 45.9015 30.5838 45.265 31.2118L29.6547 46.614C28.8759 47.3825 27.6241 47.3825 26.8453 46.614Z" fill="#92CBFF"/>
<path d="M17.4703 37.364L13.4429 33.3903C12.6492 32.6072 12.6492 31.3262 13.4429 30.543L32.6659 11.5763C33.0402 11.207 33.5448 11 34.0706 11H44.5627C45.4568 11 45.9015 12.0838 45.265 12.7118L20.2797 37.364C19.5009 38.1325 18.2491 38.1325 17.4703 37.364Z" fill="#92CBFF"/>
</svg>
