<svg width="64" height="64" viewBox="0 0 64 64" fill="none" xmlns="http://www.w3.org/2000/svg">
<path d="M18.4655 17V9.72727H20.2233V12.6463H23.089V9.72727H24.8433V17H23.089V14.0774H20.2233V17H18.4655ZM25.708 11.1548V9.72727H31.855V11.1548H29.6498V17H27.9168V11.1548H25.708ZM32.7135 9.72727H34.8904L36.7369 14.2301H36.8222L38.6688 9.72727H40.8456V17H39.134V12.5327H39.0736L37.3264 16.9538H36.2327L34.4855 12.5078H34.4252V17H32.7135V9.72727ZM41.942 17V9.72727H43.6998V15.5724H46.7254V17H41.942Z" fill="#8C8C8C"/>
<path d="M45.6477 19.5H19.3523C17.0103 19.5 15.1693 21.5031 15.3665 23.8368L17.7653 52.2222C17.9063 53.8914 19.0725 55.2959 20.6873 55.7413L31.4363 58.7066C32.1324 58.8986 32.8676 58.8986 33.5637 58.7066L44.3127 55.7413C45.9275 55.2959 47.0937 53.8914 47.2347 52.2222L49.6335 23.8368C49.8307 21.5031 47.9897 19.5 45.6477 19.5Z" fill="#E44D26"/>
<path d="M42.3672 27H22.622C22.0243 27 21.5601 27.5209 21.6286 28.1146L22.8978 39.1146C22.9561 39.6192 23.3833 40 23.8913 40H36.905C37.493 40 37.9541 40.5049 37.9009 41.0905L37.5612 44.8269C37.5242 45.2336 37.2437 45.5769 36.8526 45.6942L32.7873 46.9138C32.5999 46.97 32.4001 46.97 32.2127 46.9138L28.1609 45.6983C27.7631 45.5789 27.4804 45.226 27.4508 44.8117L27.3163 42.9288C27.279 42.4054 26.8435 42 26.3189 42H24.074C23.4936 42 23.0352 42.4924 23.0765 43.0712L23.4497 48.2965C23.4799 48.7183 23.7721 49.0756 24.1796 49.1888L32.2324 51.4257C32.4075 51.4743 32.5925 51.4743 32.7676 51.4257L40.8223 49.1882C41.2289 49.0753 41.5208 48.7194 41.552 48.2986L42.4205 36.5739C42.4634 35.9941 42.0046 35.5 41.4232 35.5H27.895C27.3855 35.5 26.9574 35.1169 26.9012 34.6104L26.6234 32.1104C26.5576 31.5181 27.0213 31 27.6173 31H42.1172C42.6215 31 43.0469 30.6245 43.1095 30.124L43.3595 28.124C43.4341 27.5272 42.9687 27 42.3672 27Z" fill="#EBEBEB"/>
<path d="M44.3294 22.5H33.5C32.9477 22.5 32.5 22.9477 32.5 23.5V54.7057C32.5 55.3605 33.1188 55.8386 33.7524 55.6733L42.6274 53.3581C43.4496 53.1436 44.0465 52.4331 44.1159 51.5862L46.3227 24.6634C46.4182 23.4983 45.4984 22.5 44.3294 22.5Z" fill="#F16529"/>
<path fill-rule="evenodd" clip-rule="evenodd" d="M32.5 51.4621C32.59 51.4621 32.6801 51.45 32.7676 51.4257L40.8223 49.1882C41.2289 49.0753 41.5208 48.7194 41.552 48.2986L42.4205 36.5739C42.4634 35.9941 42.0046 35.5 41.4232 35.5H32.5V40H36.905C37.493 40 37.9541 40.5049 37.9009 41.0905L37.5612 44.8269C37.5242 45.2336 37.2437 45.5769 36.8526 45.6942L32.7873 46.9138C32.6936 46.9419 32.5968 46.956 32.5 46.956V51.4621ZM32.5 27V31H42.1172C42.6215 31 43.0469 30.6245 43.1095 30.124L43.3595 28.124C43.4341 27.5272 42.9687 27 42.3672 27H32.5Z" fill="white"/>
</svg>
