<svg width="64" height="64" viewBox="0 0 64 64" fill="none" xmlns="http://www.w3.org/2000/svg">
<rect x="12" y="12" width="40" height="40" rx="8" stroke="#0B1215" stroke-width="1.5"/>
<path d="M23.5563 40.6987C17.3264 42.3383 23.5213 43.132 31.0322 43.1582C36.4242 43.1769 40.1693 41.9284 39.754 40.6987M25.2176 32.0906C21.9919 33.4057 21.3217 35.1945 36.0161 33.3204M25.4867 35.7436C24.824 36.7688 25.2292 37.5972 34.7701 36.1896M37.6774 37.1457C42.5169 33.6881 40.928 31.5214 38.0927 32.0905M26.4636 38.6491C26.163 39.3922 26.0483 40.6987 33.9395 39.4689M26.8789 44.7978C31.8628 45.2077 38.8327 45.2019 41 42.7482" stroke="#0B1215" stroke-width="1.25" stroke-linecap="round"/>
<path d="M30.0721 30.8158C29.0436 29.7895 27.6152 28.4474 28.0961 26.8684C29.2342 23.1316 34.8144 22.1316 33.6288 17M36 22.9211C34.9715 23.2632 32.048 25.5112 32.048 27.2632C32.048 29.0151 34.4192 29.2368 32.8384 32" stroke="#0B1215" stroke-width="1.25" stroke-linecap="round"/>
</svg>
