<svg width="64" height="64" viewBox="0 0 64 64" fill="none" xmlns="http://www.w3.org/2000/svg">
<rect x="12" y="12" width="40" height="40" rx="8" stroke="#0B1215" stroke-width="1.5"/>
<path d="M43.022 38.8523C42.9841 38.4357 42.8156 38.1118 42.5163 37.8807C42.2209 37.6459 41.7985 37.5285 41.2493 37.5285C40.8857 37.5285 40.5826 37.5758 40.3402 37.6705C40.0978 37.7652 39.916 37.8959 39.7947 38.0625C39.6735 38.2254 39.611 38.4129 39.6072 38.625C39.5997 38.7993 39.6338 38.9527 39.7095 39.0853C39.7891 39.2178 39.9027 39.3353 40.0504 39.4375C40.2019 39.536 40.3838 39.6232 40.5959 39.6989C40.808 39.7747 41.0466 39.841 41.3118 39.8978L42.3118 40.125C42.8875 40.25 43.3951 40.4167 43.8345 40.625C44.2777 40.8334 44.6489 41.0815 44.9482 41.3694C45.2512 41.6572 45.4804 41.9887 45.6357 42.3637C45.791 42.7387 45.8705 43.1591 45.8743 43.625C45.8705 44.3599 45.6849 44.9906 45.3175 45.5171C44.95 46.0436 44.4216 46.447 43.7322 46.7273C43.0466 47.0076 42.219 47.1478 41.2493 47.1478C40.2758 47.1478 39.4273 47.0019 38.7038 46.7103C37.9804 46.4186 37.4179 45.9754 37.0163 45.3807C36.6148 44.786 36.4084 44.0341 36.397 43.125H39.0902C39.1129 43.5 39.2133 43.8125 39.3913 44.0625C39.5694 44.3125 39.8137 44.5019 40.1243 44.6307C40.4387 44.7595 40.8023 44.8239 41.2152 44.8239C41.594 44.8239 41.916 44.7728 42.1811 44.6705C42.45 44.5682 42.6565 44.4262 42.8004 44.2444C42.9444 44.0625 43.0182 43.8542 43.022 43.6194C43.0182 43.3997 42.95 43.2122 42.8175 43.0569C42.6849 42.8978 42.4804 42.7614 42.2038 42.6478C41.9311 42.5303 41.5826 42.4224 41.1584 42.3239L39.9425 42.0398C38.9349 41.8088 38.1413 41.4357 37.5618 40.9205C36.9822 40.4016 36.6944 39.7008 36.6982 38.8182C36.6944 38.0985 36.8875 37.4678 37.2777 36.9262C37.6679 36.3845 38.2076 35.9622 38.897 35.6591C39.5864 35.3561 40.3724 35.2046 41.255 35.2046C42.1565 35.2046 42.9387 35.358 43.6016 35.6648C44.2682 35.9678 44.7853 36.394 45.1527 36.9432C45.5201 37.4925 45.7076 38.1288 45.7152 38.8523H43.022Z" stroke="#0B1215" stroke-width="0.9"/>
<path d="M32.1939 35.3638H34.9666V43.4092C34.9628 44.163 34.7829 44.8221 34.4269 45.3865C34.0708 45.9471 33.5784 46.3827 32.9496 46.6933C32.3246 47.0039 31.6011 47.1592 30.7791 47.1592C30.0518 47.1592 29.3909 47.0323 28.7962 46.7785C28.2053 46.5248 27.7337 46.1308 27.3814 45.5967C27.0329 45.0626 26.8606 44.3789 26.8643 43.5456H29.6655C29.6768 43.8448 29.7337 44.1005 29.8359 44.3126C29.942 44.521 30.0878 44.6782 30.2734 44.7842C30.459 44.8903 30.6806 44.9433 30.9382 44.9433C31.2072 44.9433 31.4344 44.8865 31.62 44.7729C31.8056 44.6554 31.9458 44.4831 32.0405 44.2558C32.139 44.0285 32.1901 43.7463 32.1939 43.4092V35.3638Z" stroke="#0B1215" stroke-width="0.9"/>
</svg>
