<svg width="64" height="64" viewBox="0 0 64 64" fill="none" xmlns="http://www.w3.org/2000/svg">
<path d="M53.0568 38H10.7232C9.95536 38 9.47399 38.8295 9.85494 39.4961L12.1362 43.4884C12.6704 44.4231 13.6644 45 14.741 45H48.4561C49.425 45 50.3342 44.5321 50.8973 43.7437L53.8705 39.5812C54.3433 38.9194 53.8702 38 53.0568 38Z" fill="#FF5C5C"/>
<path d="M46 17H18C16.8954 17 16.0071 17.8926 16.0592 18.9959C16.3829 25.849 18.4751 48 32 48C45.5249 48 47.6171 25.8491 47.9408 18.9959C47.9929 17.8926 47.1046 17 46 17Z" fill="#FF5C5C"/>
<path d="M20.5073 24.4013V22.5455H28.4984V24.4013H25.6316V32H23.3788V24.4013H20.5073Z" fill="white"/>
<path d="M27.2573 28.4013V26.5455H35.2484V28.4013H32.3816V36H30.1288V28.4013H27.2573Z" fill="white"/>
<path d="M41.8528 34.9709H39.5445C39.5137 34.7339 39.4507 34.52 39.3552 34.3292C39.2598 34.1384 39.1337 33.9753 38.9767 33.8398C38.8197 33.7044 38.6335 33.6013 38.4181 33.5305C38.2057 33.4567 37.9703 33.4197 37.7118 33.4197C37.2532 33.4197 36.8577 33.5321 36.5253 33.7567C36.196 33.9814 35.9421 34.3061 35.7636 34.7308C35.5882 35.1555 35.5005 35.6695 35.5005 36.2727C35.5005 36.9006 35.5897 37.4268 35.7682 37.8516C35.9498 38.2732 36.2037 38.5917 36.53 38.8072C36.8593 39.0195 37.2486 39.1257 37.6979 39.1257C37.9503 39.1257 38.1796 39.0934 38.3858 39.0288C38.5951 38.9641 38.7782 38.8703 38.9351 38.7472C39.0952 38.621 39.226 38.4686 39.3275 38.2901C39.4322 38.1085 39.5045 37.9039 39.5445 37.6761L41.8528 37.69C41.8128 38.1085 41.6912 38.521 41.4881 38.9272C41.288 39.3335 41.0126 39.7043 40.6617 40.0398C40.3109 40.3722 39.8831 40.6368 39.3783 40.8338C38.8767 41.0308 38.3012 41.1293 37.6518 41.1293C36.7962 41.1293 36.0298 40.9415 35.3528 40.5661C34.6788 40.1875 34.1463 39.6366 33.7555 38.9134C33.3646 38.1901 33.1692 37.3099 33.1692 36.2727C33.1692 35.2325 33.3677 34.3507 33.7647 33.6275C34.1617 32.9042 34.6988 32.3549 35.3758 31.9794C36.0529 31.6039 36.8116 31.4162 37.6518 31.4162C38.2242 31.4162 38.7536 31.4962 39.2398 31.6562C39.7261 31.8132 40.1539 32.044 40.5232 32.3487C40.8925 32.6503 41.1926 33.0212 41.4234 33.4613C41.6543 33.9014 41.7974 34.4046 41.8528 34.9709Z" fill="white"/>
</svg>
