<svg width="64" height="64" viewBox="0 0 64 64" fill="none" xmlns="http://www.w3.org/2000/svg">
<rect x="12" y="12" width="40" height="40" rx="8" fill="#B0778C"/>
<path d="M37.9064 37.2989C37.7757 37.716 37.3893 37.9999 36.9522 37.9999H36.0569C35.3728 37.9999 34.8906 37.3284 35.1093 36.6802L38.3607 27.0438C38.4978 26.6373 38.8791 26.3635 39.3082 26.3635H41.6165C42.0456 26.3635 42.4269 26.6373 42.5641 27.0438L45.8154 36.6802C46.0341 37.3284 45.552 37.9999 44.8679 37.9999H43.9721C43.5352 37.9999 43.1489 37.7163 43.018 37.2994L40.5186 29.3387C40.5105 29.3129 40.4866 29.2953 40.4595 29.2953V29.2953C40.4325 29.2953 40.4086 29.3129 40.4005 29.3387L37.9064 37.2989ZM37.2834 34.4203C37.2834 33.8681 37.7311 33.4203 38.2834 33.4203H42.6016C43.1538 33.4203 43.6016 33.8681 43.6016 34.4203V34.5567C43.6016 35.109 43.1538 35.5567 42.6016 35.5567H38.2834C37.7311 35.5567 37.2834 35.109 37.2834 34.5567V34.4203Z" fill="white"/>
<path d="M34.2152 26.3635C34.8995 26.3635 35.3817 27.0354 35.1626 27.6836L31.9066 37.32C31.7693 37.7264 31.3881 37.9999 30.9592 37.9999H30.2578C29.5735 37.9999 29.0914 37.3281 29.3104 36.6798L32.5664 27.0434C32.7037 26.6371 33.0849 26.3635 33.5138 26.3635H34.2152Z" fill="white"/>
<path d="M20.1497 26.3635C20.5895 26.3635 20.9777 26.6509 21.1061 27.0715L23.4781 34.8401C23.4865 34.8675 23.5118 34.8863 23.5405 34.8863V34.8863C23.5692 34.8863 23.5945 34.8675 23.6029 34.8401L25.9749 27.0715C26.1033 26.6509 26.4915 26.3635 26.9313 26.3635H27.946C28.6301 26.3635 29.1122 27.035 28.8935 27.6832L25.6422 37.3196C25.505 37.7262 25.1237 37.9999 24.6947 37.9999H22.3863C21.9572 37.9999 21.576 37.7262 21.4388 37.3196L18.1875 27.6832C17.9688 27.035 18.4509 26.3635 19.135 26.3635H20.1497Z" fill="white"/>
</svg>
