<?xml version="1.0" encoding="UTF-8" standalone="no"?>
<svg
   width="1024"
   height="1024"
   version="1.1"
   id="svg192"
   sodipodi:docname="github-mark-black copy.svg"
   inkscape:export-filename="github-mark-black.png"
   inkscape:export-xdpi="96"
   inkscape:export-ydpi="96"
   inkscape:version="1.2.2 (b0a84865, 2022-12-01)"
   xmlns:inkscape="http://www.inkscape.org/namespaces/inkscape"
   xmlns:sodipodi="http://sodipodi.sourceforge.net/DTD/sodipodi-0.dtd"
   xmlns="http://www.w3.org/2000/svg"
   xmlns:svg="http://www.w3.org/2000/svg">
  <defs
     id="defs196" />
  <sodipodi:namedview
     id="namedview194"
     pagecolor="#ffffff"
     bordercolor="#111111"
     borderopacity="1"
     inkscape:showpageshadow="0"
     inkscape:pageopacity="0"
     inkscape:pagecheckerboard="1"
     inkscape:deskcolor="#d1d1d1"
     showgrid="false"
     inkscape:zoom="0.56456472"
     inkscape:cx="495.95731"
     inkscape:cy="608.43334"
     inkscape:window-width="1390"
     inkscape:window-height="1205"
     inkscape:window-x="0"
     inkscape:window-y="25"
     inkscape:window-maximized="0"
     inkscape:current-layer="svg192" />
  <rect
     x="1216"
     width="896"
     height="896"
     rx="204"
     fill="#f0f0f0"
     id="rect162"
     y="0"
     style="mix-blend-mode:exclusion;fill:#0a0a0a;fill-opacity:1"
     transform="matrix(1.1428571,0,0,1.1428571,-1389.7142,0)" />
  <g
     id="g1314"
     transform="matrix(0.74945919,0,0,0.74945916,128.25005,128.25006)">
    <rect
       style="display:none;fill:#000000;fill-rule:evenodd;stroke:#000000;stroke-width:1.143;stroke-linecap:round;stroke-linejoin:round;stroke-miterlimit:8.1;stroke-dasharray:none"
       id="rect1309"
       width="1024.2142"
       height="1024.2142"
       x="-0.21426892"
       y="-0.21430252" />
    <path
       fill-rule="evenodd"
       clip-rule="evenodd"
       d="m 511.97316,129.74898 c -212.18896,0 -383.7231,172.79871 -383.7231,386.57428 0,170.88221 109.90783,315.53044 262.37913,366.72599 19.06284,3.8487 26.04548,-8.3179 26.04548,-18.5523 0,-8.96197 -0.62836,-39.68087 -0.62836,-71.6879 -106.74248,23.04506 -128.97067,-46.08228 -128.97067,-46.08228 -17.1542,-44.80199 -42.57132,-56.31667 -42.57132,-56.31667 -34.93676,-23.68127 2.54485,-23.68127 2.54485,-23.68127 38.75404,2.56056 59.08931,39.68086 59.08931,39.68086 34.30054,58.87724 89.57256,42.24143 111.80862,31.99918 3.17321,-24.96156 13.34477,-42.24143 24.14469,-51.83961 -85.13478,-8.96197 -174.70735,-42.24143 -174.70735,-190.7305 0,-42.24143 15.2377,-76.80118 39.38239,-103.67923 -3.80942,-9.59818 -17.15419,-49.2869 3.81729,-102.4068 0,0 32.39975,-10.24225 105.45434,39.68087 a 368.92525,368.92525 0 0 1 95.9347,-12.80281 c 32.39976,0 65.42787,4.48491 95.92685,12.80281 73.06243,-49.92312 105.46219,-39.68087 105.46219,-39.68087 20.97148,53.1199 7.61885,92.80862 3.80943,102.4068 24.7809,26.87805 39.39025,61.4378 39.39025,103.67923 0,148.48907 -89.57257,181.12446 -175.34357,190.7305 13.98099,12.15875 26.04548,35.19596 26.04548,71.68005 0,51.83961 -0.62836,93.44483 -0.62836,106.23979 0,10.24225 6.9905,22.40885 26.04548,18.568 C 785.15221,831.84585 895.06004,687.20547 895.06004,516.32326 895.6884,302.54769 723.52591,129.74898 511.97316,129.74898 Z"
       fill="#ffffff"
       id="path1331"
       style="stroke-width:7.85449"
       transform="matrix(1.3342955,0,0,1.3342955,-171.12346,-171.12348)" />
  </g>
  <rect
     style="display:none;fill:#000000;fill-rule:evenodd;stroke:#000000;stroke-width:0.143214;stroke-linecap:round;stroke-linejoin:round;stroke-miterlimit:8.1"
     id="rect1199"
     width="128.30373"
     height="128.30376"
     x="-0.21426892"
     y="-0.21430252" />
  <rect
     style="display:none;fill:#000000;fill-rule:evenodd;stroke:#000000;stroke-width:0.143134;stroke-linecap:round;stroke-linejoin:round;stroke-miterlimit:8.1"
     id="rect1199-5"
     width="128.23215"
     height="128.23219"
     x="128.08946"
     y="128.08945" />
  <rect
     style="display:none;fill:#000000;fill-rule:evenodd;stroke:#000000;stroke-width:0.142974;stroke-linecap:round;stroke-linejoin:round;stroke-miterlimit:8.1"
     id="rect1199-54"
     width="128.08917"
     height="128.08917"
     x="256.46469"
     y="256.46469" />
  <rect
     style="display:none;fill:#000000;fill-rule:evenodd;stroke:#000000;stroke-width:0.142895;stroke-linecap:round;stroke-linejoin:round;stroke-miterlimit:8.1"
     id="rect1199-5-1"
     width="128.01772"
     height="128.01773"
     x="384.55386"
     y="384.55383" />
  <rect
     style="display:none;fill:#000000;fill-rule:evenodd;stroke:#000000;stroke-width:0.142915;stroke-linecap:round;stroke-linejoin:round;stroke-miterlimit:8.1"
     id="rect1199-8"
     width="128.03561"
     height="128.03561"
     x="512.71448"
     y="512.71448" />
  <rect
     style="display:none;fill:#000000;fill-rule:evenodd;stroke:#000000;stroke-width:0.142835;stroke-linecap:round;stroke-linejoin:round;stroke-miterlimit:8.1"
     id="rect1199-5-8"
     width="127.96419"
     height="127.9642"
     x="640.75012"
     y="640.75006" />
  <rect
     style="display:none;fill:#000000;fill-rule:evenodd;stroke:#000000;stroke-width:0.142676;stroke-linecap:round;stroke-linejoin:round;stroke-miterlimit:8.1"
     id="rect1199-54-3"
     width="127.8215"
     height="127.82148"
     x="768.85706"
     y="768.85706" />
  <rect
     style="display:none;fill:#000000;fill-rule:evenodd;stroke:#000000;stroke-width:0.142596;stroke-linecap:round;stroke-linejoin:round;stroke-miterlimit:8.1"
     id="rect1199-5-1-5"
     width="127.7502"
     height="127.75019"
     x="896.67853"
     y="896.67853" />
</svg>
