<?xml version="1.0" encoding="UTF-8" standalone="no"?>
<svg
   width="1024"
   height="1024"
   version="1.1"
   id="svg192"
   sodipodi:docname="yt_icon_black copy.svg"
   inkscape:export-filename="github-mark-black.png"
   inkscape:export-xdpi="96"
   inkscape:export-ydpi="96"
   inkscape:version="1.2.2 (b0a84865, 2022-12-01)"
   xml:space="preserve"
   xmlns:inkscape="http://www.inkscape.org/namespaces/inkscape"
   xmlns:sodipodi="http://sodipodi.sourceforge.net/DTD/sodipodi-0.dtd"
   xmlns="http://www.w3.org/2000/svg"
   xmlns:svg="http://www.w3.org/2000/svg"><defs
     id="defs196" /><sodipodi:namedview
     id="namedview194"
     pagecolor="#ffffff"
     bordercolor="#111111"
     borderopacity="1"
     inkscape:showpageshadow="0"
     inkscape:pageopacity="0"
     inkscape:pagecheckerboard="1"
     inkscape:deskcolor="#d1d1d1"
     showgrid="false"
     inkscape:zoom="0.48109263"
     inkscape:cx="527.96486"
     inkscape:cy="171.48465"
     inkscape:window-width="1390"
     inkscape:window-height="1205"
     inkscape:window-x="0"
     inkscape:window-y="25"
     inkscape:window-maximized="0"
     inkscape:current-layer="svg192" /><rect
     x="1216"
     width="896"
     height="896"
     rx="204"
     fill="#f0f0f0"
     id="rect162"
     y="0"
     style="mix-blend-mode:exclusion"
     transform="matrix(1.1428571,0,0,1.1428571,-1389.7142,0)" /><g
     id="g1314"
     transform="matrix(0.74945919,0,0,0.74945916,128.25005,128.25006)"><rect
       style="display:none;fill:#000000;fill-rule:evenodd;stroke:#000000;stroke-width:1.143;stroke-linecap:round;stroke-linejoin:round;stroke-miterlimit:8.1;stroke-dasharray:none"
       id="rect1309"
       width="1024.2142"
       height="1024.2142"
       x="-0.21426892"
       y="-0.21430252" /><path
       id="Path_2520"
       data-name="Path 2520"
       d="M 782.49173,782.05643 H 668.69294 V 603.8428 c 0,-42.49674 -0.75865,-97.20313 -59.18722,-97.20313 -59.27019,0 -68.33853,46.30188 -68.33853,94.10922 V 782.04458 H 427.3684 v -366.4795 h 109.24683 v 50.08332 h 1.52918 a 119.7258,119.7258 0 0 1 107.78878,-59.19907 c 115.3398,0 136.60595,75.86585 136.60595,174.56259 z M 298.96545,365.46991 a 66.038855,66.038855 0 1 1 66.027,-66.05071 66.038855,66.038855 0 0 1 -66.027,66.05071 m 56.89939,416.58652 H 241.94752 V 415.56508 H 355.86484 Z M 839.22516,127.71344 H 184.76363 a 56.0459,56.0459 0 0 0 -56.67417,55.35836 v 657.17611 a 56.081462,56.081462 0 0 0 56.67417,55.41764 h 654.46153 a 56.200002,56.200002 0 0 0 56.89939,-55.41764 V 183.02439 a 56.16444,56.16444 0 0 0 -56.89939,-55.35837"
       fill="#0a66c2"
       style="stroke-width:11.854;fill:#000000;fill-opacity:1"
       transform="matrix(1.3342955,0,0,1.3342955,-171.12346,-171.12348)" /></g><rect
     style="display:none;fill:#000000;fill-rule:evenodd;stroke:#000000;stroke-width:0.143214;stroke-linecap:round;stroke-linejoin:round;stroke-miterlimit:8.1"
     id="rect1199"
     width="128.30373"
     height="128.30376"
     x="-0.21426892"
     y="-0.21430252" /><rect
     style="display:none;fill:#000000;fill-rule:evenodd;stroke:#000000;stroke-width:0.143134;stroke-linecap:round;stroke-linejoin:round;stroke-miterlimit:8.1"
     id="rect1199-5"
     width="128.23215"
     height="128.23219"
     x="128.08946"
     y="128.08945" /><rect
     style="display:none;fill:#000000;fill-rule:evenodd;stroke:#000000;stroke-width:0.142974;stroke-linecap:round;stroke-linejoin:round;stroke-miterlimit:8.1"
     id="rect1199-54"
     width="128.08917"
     height="128.08917"
     x="256.46469"
     y="256.46469" /><rect
     style="display:none;fill:#000000;fill-rule:evenodd;stroke:#000000;stroke-width:0.142895;stroke-linecap:round;stroke-linejoin:round;stroke-miterlimit:8.1"
     id="rect1199-5-1"
     width="128.01772"
     height="128.01773"
     x="384.55386"
     y="384.55383" /><rect
     style="display:none;fill:#000000;fill-rule:evenodd;stroke:#000000;stroke-width:0.142915;stroke-linecap:round;stroke-linejoin:round;stroke-miterlimit:8.1"
     id="rect1199-8"
     width="128.03561"
     height="128.03561"
     x="512.71448"
     y="512.71448" /><rect
     style="display:none;fill:#000000;fill-rule:evenodd;stroke:#000000;stroke-width:0.142835;stroke-linecap:round;stroke-linejoin:round;stroke-miterlimit:8.1"
     id="rect1199-5-8"
     width="127.96419"
     height="127.9642"
     x="640.75012"
     y="640.75006" /><rect
     style="display:none;fill:#000000;fill-rule:evenodd;stroke:#000000;stroke-width:0.142676;stroke-linecap:round;stroke-linejoin:round;stroke-miterlimit:8.1"
     id="rect1199-54-3"
     width="127.8215"
     height="127.82148"
     x="768.85706"
     y="768.85706" /><rect
     style="display:none;fill:#000000;fill-rule:evenodd;stroke:#000000;stroke-width:0.142596;stroke-linecap:round;stroke-linejoin:round;stroke-miterlimit:8.1"
     id="rect1199-5-1-5"
     width="127.7502"
     height="127.75019"
     x="896.67853"
     y="896.67853" /></svg>
