<?xml version="1.0" encoding="UTF-8" standalone="no"?>
<svg
   width="1024"
   height="1024"
   version="1.1"
   id="svg192"
   sodipodi:docname="yt_icon_black copy.svg"
   inkscape:export-filename="github-mark-black.png"
   inkscape:export-xdpi="96"
   inkscape:export-ydpi="96"
   inkscape:version="1.2.2 (b0a84865, 2022-12-01)"
   xml:space="preserve"
   xmlns:inkscape="http://www.inkscape.org/namespaces/inkscape"
   xmlns:sodipodi="http://sodipodi.sourceforge.net/DTD/sodipodi-0.dtd"
   xmlns="http://www.w3.org/2000/svg"
   xmlns:svg="http://www.w3.org/2000/svg"><defs
     id="defs196" /><sodipodi:namedview
     id="namedview194"
     pagecolor="#ffffff"
     bordercolor="#111111"
     borderopacity="1"
     inkscape:showpageshadow="0"
     inkscape:pageopacity="0"
     inkscape:pagecheckerboard="1"
     inkscape:deskcolor="#d1d1d1"
     showgrid="false"
     inkscape:zoom="0.70246355"
     inkscape:cx="451.26897"
     inkscape:cy="461.94568"
     inkscape:window-width="1390"
     inkscape:window-height="1205"
     inkscape:window-x="0"
     inkscape:window-y="25"
     inkscape:window-maximized="0"
     inkscape:current-layer="svg192" /><rect
     x="1216"
     width="896"
     height="896"
     rx="204"
     fill="#f0f0f0"
     id="rect162"
     y="0"
     style="mix-blend-mode:exclusion;fill:#0a0a0a;fill-opacity:1"
     transform="matrix(1.1428571,0,0,1.1428571,-1389.7142,0)" /><g
     id="g1314"
     transform="matrix(0.74945919,0,0,0.74945916,128.25005,128.25006)"
     style="fill:#ffffff;stroke-width:0.99938732;stroke-dasharray:none"><rect
       style="display:none;fill:#ffffff;fill-rule:evenodd;stroke:#000000;stroke-width:0.99938732;stroke-linecap:round;stroke-linejoin:round;stroke-miterlimit:8.1;stroke-dasharray:none"
       id="rect1309"
       width="1024.2142"
       height="1024.2142"
       x="-0.21426892"
       y="-0.21430252" /><path
       style="display:inline;fill:#ffffff;fill-rule:evenodd;stroke:none;stroke-width:0.749;stroke-linecap:round;stroke-linejoin:round;stroke-miterlimit:8.1;stroke-dasharray:none"
       d="m 393.36364,779.76255 c -96.56311,-3.15924 -164.46838,-9.3619 -187.28013,-17.10669 -25.13052,-8.53203 -48.32137,-31.70277 -58.22615,-58.17566 -10.32331,-27.59152 -17.71718,-108.0598 -17.71718,-192.81796 0,-85.21482 7.39519,-165.22998 17.85466,-193.18541 12.55013,-33.54322 40.28359,-55.17762 80.02855,-62.42889 50.59174,-9.23022 174.79799,-13.61377 331.88486,-11.71305 159.34929,1.92809 221.07206,5.77612 254.63414,15.87484 16.07089,4.83568 36.48263,19.13465 46.95149,32.89078 16.73269,21.98683 23.40943,49.53667 28.43798,117.34159 6.08409,82.03821 2.74485,214.85347 -6.62787,263.61729 -7.71789,40.15402 -21.20477,63.11791 -46.44127,79.07459 -16.37559,10.35404 -32.73873,14.47021 -74.70887,18.79304 -73.0566,7.52466 -258.11424,11.45652 -368.79021,7.83553 z M 634.33695,511.66478 c -200.83232,-114.17735 0,0 -200.83232,-114.17735 -0.81634,231.00532 0,0 -0.81634,231.00532 201.64866,-116.82797 0,0 201.64866,-116.82797 z"
       id="path5972"
       transform="matrix(1.3342955,0,0,1.3342955,-171.12346,-171.12348)"
       inkscape:label="path5972"
       sodipodi:nodetypes="sssssssssssssscccc" /></g><rect
     style="display:none;fill:#000000;fill-rule:evenodd;stroke:#000000;stroke-width:0.143214;stroke-linecap:round;stroke-linejoin:round;stroke-miterlimit:8.1"
     id="rect1199"
     width="128.30373"
     height="128.30376"
     x="-0.21426892"
     y="-0.21430252" /><rect
     style="display:none;fill:#000000;fill-rule:evenodd;stroke:#000000;stroke-width:0.143134;stroke-linecap:round;stroke-linejoin:round;stroke-miterlimit:8.1"
     id="rect1199-5"
     width="128.23215"
     height="128.23219"
     x="128.08946"
     y="128.08945" /><rect
     style="display:none;fill:#000000;fill-rule:evenodd;stroke:#000000;stroke-width:0.142974;stroke-linecap:round;stroke-linejoin:round;stroke-miterlimit:8.1"
     id="rect1199-54"
     width="128.08917"
     height="128.08917"
     x="256.46469"
     y="256.46469" /><rect
     style="display:none;fill:#000000;fill-rule:evenodd;stroke:#000000;stroke-width:0.142895;stroke-linecap:round;stroke-linejoin:round;stroke-miterlimit:8.1"
     id="rect1199-5-1"
     width="128.01772"
     height="128.01773"
     x="384.55386"
     y="384.55383" /><rect
     style="display:none;fill:#000000;fill-rule:evenodd;stroke:#000000;stroke-width:0.142915;stroke-linecap:round;stroke-linejoin:round;stroke-miterlimit:8.1"
     id="rect1199-8"
     width="128.03561"
     height="128.03561"
     x="512.71448"
     y="512.71448" /><rect
     style="display:none;fill:#000000;fill-rule:evenodd;stroke:#000000;stroke-width:0.142835;stroke-linecap:round;stroke-linejoin:round;stroke-miterlimit:8.1"
     id="rect1199-5-8"
     width="127.96419"
     height="127.9642"
     x="640.75012"
     y="640.75006" /><rect
     style="display:none;fill:#000000;fill-rule:evenodd;stroke:#000000;stroke-width:0.142676;stroke-linecap:round;stroke-linejoin:round;stroke-miterlimit:8.1"
     id="rect1199-54-3"
     width="127.8215"
     height="127.82148"
     x="768.85706"
     y="768.85706" /><rect
     style="display:none;fill:#000000;fill-rule:evenodd;stroke:#000000;stroke-width:0.142596;stroke-linecap:round;stroke-linejoin:round;stroke-miterlimit:8.1"
     id="rect1199-5-1-5"
     width="127.7502"
     height="127.75019"
     x="896.67853"
     y="896.67853" /></svg>
