<svg width="1024" height="1024" viewBox="0 0 1024 1024" fill="none" xmlns="http://www.w3.org/2000/svg">
<g clip-path="url(#clip0_604_11)">
<rect width="1024" height="1024" rx="32" fill="#0F0F0F"/>
<g style="mix-blend-mode:exclusion">
<rect x="128" width="896" height="896" rx="204" fill="#88C9EE"/>
<rect x="528" y="304" width="96" height="384" fill="#715729"/>
<path d="M288 640C288 613.49 309.49 592 336 592H816C842.51 592 864 613.49 864 640V688H288V640Z" fill="#318A37"/>
<path d="M288 688H864V736C864 762.51 842.51 784 816 784H336C309.49 784 288 762.51 288 736V688Z" fill="#79653E"/>
<path d="M384 328C384 301.49 405.49 280 432 280H720C746.51 280 768 301.49 768 328V352C768 378.51 746.51 400 720 400H432C405.49 400 384 378.51 384 352V328Z" fill="#5E9646"/>
<path d="M456 208C456 181.49 477.49 160 504 160H648C674.51 160 696 181.49 696 208V352C696 378.51 674.51 400 648 400H504C477.49 400 456 378.51 456 352V208Z" fill="#5E9646"/>
</g>
<path d="M76.1406 87.375C78.0469 85.7812 79 83.5 79 80.5312C79 76.4688 77.4844 73.7031 74.4531 72.2344C72.7031 71.3906 69.9219 70.8906 66.1094 70.7344V57.75C71.8906 57.9688 76.5625 59.0156 80.125 60.8906C86.9062 64.4531 90.2969 70.7812 90.2969 79.875C90.2969 87.0625 88.2969 92.7812 84.2969 97.0312C80.3281 101.281 75.0625 103.406 68.5 103.406C63.4688 103.406 59 101.906 55.0938 98.9062C52.5 96.9375 49.6094 93.7031 46.4219 89.2031L42.625 83.8594C40.25 80.5156 38.5312 78.2188 37.4688 76.9688C36.4062 75.75 35.1719 74.7188 33.7656 73.875V103.547H22V57C26.875 57.125 31.3281 58.1719 35.3594 60.1406C39.8906 62.0469 44.6875 66.5469 49.75 73.6406C54.1562 79.7969 57.3125 83.7812 59.2188 85.5938C62.1875 88.375 65.4375 89.7656 68.9688 89.7656C71.8438 89.7656 74.2344 88.9688 76.1406 87.375ZM22 144.516V114.75H91.0938V144.516C91.0313 148.797 90.5312 152.359 89.5938 155.203C88 160.047 85.0781 163.969 80.8281 166.969C77.3906 169.375 73.6719 171.016 69.6719 171.891C65.6719 172.766 61.8594 173.203 58.2344 173.203C49.0469 173.203 41.2656 171.359 34.8906 167.672C26.2969 162.672 22 154.953 22 144.516ZM73.4688 155.25C77.2188 153.031 79.0938 148.641 79.0938 142.078V128.766H34V142.078C34 148.891 37.3594 153.641 44.0781 156.328C47.7656 157.797 52.1563 158.531 57.25 158.531C64.2812 158.531 69.6875 157.438 73.4688 155.25ZM22 224.062V210.609H91.0938V231.609L36.7656 244.172L91.0938 256.641V277.406H22V263.953H68.7344C70.0781 263.953 71.9531 263.969 74.3594 264C76.7969 264.031 78.6719 264.047 79.9844 264.047L22 250.969V236.953L79.9844 223.969C78.6719 223.969 76.7969 223.984 74.3594 224.016C71.9531 224.047 70.0781 224.062 68.7344 224.062H22ZM91.0938 289.688V304.031H22V289.688H91.0938ZM22 373.406V358.969L71.0781 330.75H22V317.297H91.0938V332.438L42.8594 359.953H91.0938L91.0938 373.406H22ZM52.1875 435V401.438H34.4219L34.4219 439.688H22L22 387.328H91.0938V438H78.8594V401.438H64.1875V435H52.1875ZM27.1563 499.688C22.4375 494.531 20.0781 487.938 20.0781 479.906C20.0781 469.969 23.2656 462.156 29.6406 456.469C36.0469 450.781 44.8281 447.938 55.9844 447.938C68.0469 447.938 77.3438 451.172 83.875 457.641C89.5625 463.266 92.4063 470.422 92.4063 479.109C92.4063 490.734 88.5938 499.234 80.9688 504.609C76.6875 507.578 72.3906 509.172 68.0781 509.391V494.953C71.3906 494.016 73.8906 492.812 75.5781 491.344C78.5781 488.719 80.0781 484.828 80.0781 479.672C80.0781 474.422 77.9531 470.281 73.7031 467.25C69.4844 464.219 63.5 462.703 55.75 462.703C48 462.703 42.1875 464.297 38.3125 467.484C34.4688 470.703 32.5469 474.781 32.5469 479.719C32.5469 484.781 34.2031 488.641 37.5156 491.297C39.2969 492.766 41.9688 493.984 45.5313 494.953V509.25C38 508 31.875 504.812 27.1563 499.688ZM49.0938 549.656V534.75H22V520.641H91.0938V554.531C91 559.375 90.4063 563.094 89.3125 565.688C88.2188 568.312 86.6094 570.531 84.4844 572.344C82.7344 573.844 80.7969 575.031 78.6719 575.906C76.5469 576.781 74.125 577.219 71.4063 577.219C68.125 577.219 64.8906 576.391 61.7031 574.734C58.5469 573.078 56.3125 570.344 55 566.531C53.7188 569.719 51.8906 571.969 49.5156 573.281C47.1719 574.625 43.5781 575.297 38.7344 575.297H34.0938C30.9375 575.297 28.7969 575.422 27.6719 575.672C25.8906 576.047 24.5781 576.922 23.7344 578.297H22V562.406C23.5313 561.969 24.7656 561.656 25.7031 561.469C27.6406 561.094 29.625 560.891 31.6563 560.859L38.0781 560.766C42.4844 560.703 45.4219 559.891 46.8906 558.328C48.3594 556.797 49.0938 553.906 49.0938 549.656ZM61.6563 558.422C62.9688 561.297 65.5625 562.734 69.4375 562.734C73.625 562.734 76.4375 561.344 77.875 558.562C78.6875 557 79.0938 554.656 79.0938 551.531V534.75H60.5313V551.109C60.5313 554.359 60.9063 556.797 61.6563 558.422ZM36.2031 630.141V604.688L22 599.906V584.812L91.0938 609.469V625.781L22 650.25V634.594L36.2031 630.141ZM48.1094 626.109L75.2969 617.484L48.1094 608.578V626.109ZM78.8594 708.047V673.406H62.9688L62.9688 703.734H50.9688L50.9688 673.406H22V659.062H91L91 708.047H78.8594ZM91.0938 767.953H78.8594V747.281H22V732.75H78.8594V711.984H91.0938V767.953ZM22 859.031V844.594L71.0781 816.375H22V802.922H91.0938V818.062L42.8594 845.578H91.0938V859.031H22ZM91.0938 871.406V885.75H22V871.406H91.0938ZM20.0781 929.812C20.0781 919.938 22.7656 912.391 28.1406 907.172C34.7344 900.172 44.2344 896.672 56.6406 896.672C69.2969 896.672 78.7969 900.172 85.1406 907.172C90.5156 912.391 93.2031 919.938 93.2031 929.812C93.2031 939.688 90.5156 947.234 85.1406 952.453C78.7969 959.422 69.2969 962.906 56.6406 962.906C44.2344 962.906 34.7344 959.422 28.1406 952.453C22.7656 947.234 20.0781 939.688 20.0781 929.812ZM38.6406 943.453C42.8594 946.797 48.8594 948.469 56.6406 948.469C64.3906 948.469 70.375 946.781 74.5938 943.406C78.8438 940.062 80.9688 935.531 80.9688 929.812C80.9688 924.094 78.8594 919.531 74.6406 916.125C70.4219 912.719 64.4219 911.016 56.6406 911.016C48.8594 911.016 42.8594 912.719 38.6406 916.125C34.4219 919.531 32.3125 924.094 32.3125 929.812C32.3125 935.531 34.4219 940.078 38.6406 943.453ZM31.9844 999.047C31.9844 1002.45 32.3594 1005.22 33.1094 1007.34C34.5469 1011.38 37.2188 1013.39 41.125 1013.39C43.4063 1013.39 45.1719 1012.39 46.4219 1010.39C47.6406 1008.39 48.7188 1005.25 49.6563 1000.97L51.2969 993.656C52.9219 986.469 54.6875 981.5 56.5938 978.75C59.7813 974.094 64.7656 971.766 71.5469 971.766C77.7344 971.766 82.875 974.016 86.9688 978.516C91.0625 983.016 93.1094 989.625 93.1094 998.344C93.1094 1005.62 91.1719 1011.83 87.2969 1016.95C83.4531 1022.11 77.8594 1024.81 70.5156 1025.06V1011.19C74.6719 1010.94 77.625 1009.12 79.375 1005.75C80.5313 1003.5 81.1094 1000.7 81.1094 997.359C81.1094 993.641 80.3594 990.672 78.8594 988.453C77.3594 986.234 75.2656 985.125 72.5781 985.125C70.1094 985.125 68.2656 986.219 67.0469 988.406C66.2344 989.812 65.2813 992.812 64.1875 997.406L61.3281 1009.31C60.0781 1014.53 58.4063 1018.47 56.3125 1021.12C53.0625 1025.25 48.3594 1027.31 42.2031 1027.31C35.8906 1027.31 30.6406 1024.89 26.4531 1020.05C22.2969 1015.23 20.2188 1008.42 20.2188 999.609C20.2188 990.609 22.2656 983.531 26.3594 978.375C30.4844 973.219 36.1406 970.641 43.3281 970.641V984.422C40.1719 984.859 37.8125 985.719 36.25 987C33.4063 989.344 31.9844 993.359 31.9844 999.047Z" fill="#F0F0F0"/>
<path d="M300 904C295.582 904 292 907.582 292 912C292 916.418 295.582 920 300 920L300 904ZM1024 904L300 904L300 920L1024 920L1024 904Z" fill="#F0F0F0"/>
<path d="M104 846C104 850.418 107.582 854 112 854C116.418 854 120 850.418 120 846L104 846ZM104 -3.49691e-07L104 846L120 846L120 3.49691e-07L104 -3.49691e-07Z" fill="#F0F0F0"/>
<path d="M751.418 949.164H736.035V957.307H753.566V963H729.568V931.332H752.793V936.939H736.035V943.664H751.418V949.164ZM781.066 960.637C778.703 962.799 775.681 963.881 772 963.881C767.445 963.881 763.865 962.42 761.258 959.498C758.651 956.562 757.348 952.537 757.348 947.424C757.348 941.895 758.83 937.634 761.795 934.641C764.373 932.034 767.653 930.73 771.635 930.73C776.963 930.73 780.859 932.478 783.322 935.973C784.683 937.935 785.413 939.904 785.514 941.881H778.896C778.467 940.363 777.915 939.217 777.242 938.443C776.039 937.068 774.256 936.381 771.893 936.381C769.486 936.381 767.589 937.355 766.199 939.303C764.81 941.236 764.115 943.979 764.115 947.531C764.115 951.083 764.846 953.747 766.307 955.523C767.782 957.285 769.651 958.166 771.914 958.166C774.234 958.166 776.003 957.407 777.221 955.889C777.894 955.072 778.452 953.848 778.896 952.215H785.449C784.876 955.667 783.415 958.474 781.066 960.637ZM812.562 949.164H797.18V957.307H814.711V963H790.713V931.332H813.938V936.939H797.18V943.664H812.562V949.164ZM831.812 938.186C831.082 937.312 830.036 936.875 828.676 936.875C826.814 936.875 825.546 937.57 824.873 938.959C824.486 939.761 824.257 941.036 824.186 942.783H818.234C818.335 940.133 818.814 937.992 819.674 936.359C821.307 933.251 824.207 931.697 828.375 931.697C831.669 931.697 834.29 932.614 836.238 934.447C838.186 936.266 839.16 938.68 839.16 941.688C839.16 943.993 838.473 946.042 837.098 947.832C836.195 949.021 834.713 950.346 832.65 951.807L830.201 953.547C828.669 954.635 827.616 955.423 827.043 955.91C826.484 956.397 826.012 956.963 825.625 957.607H839.225V963H817.891C817.948 960.766 818.428 958.725 819.33 956.877C820.204 954.8 822.266 952.602 825.518 950.281C828.339 948.262 830.165 946.815 830.996 945.941C832.271 944.581 832.908 943.091 832.908 941.473C832.908 940.155 832.543 939.059 831.812 938.186ZM864.018 951.506V956.297H860.494V963H854.5V956.297H842.168V950.947L853.619 932.041H860.494V951.506H864.018ZM846.701 951.506H854.5V938.057L846.701 951.506ZM873.922 938.057C873.234 938.973 872.905 940.198 872.934 941.73H867.219C867.276 940.184 867.541 938.715 868.014 937.326C868.515 936.109 869.303 934.984 870.377 933.953C871.179 933.223 872.132 932.664 873.234 932.277C874.337 931.891 875.691 931.697 877.295 931.697C880.274 931.697 882.673 932.471 884.492 934.018C886.326 935.55 887.242 937.613 887.242 940.205C887.242 942.038 886.698 943.585 885.609 944.846C884.922 945.633 884.206 946.171 883.461 946.457C884.02 946.457 884.822 946.937 885.867 947.896C887.428 949.343 888.209 951.32 888.209 953.826C888.209 956.462 887.292 958.782 885.459 960.787C883.64 962.778 880.94 963.773 877.359 963.773C872.948 963.773 869.883 962.334 868.164 959.455C867.262 957.923 866.76 955.917 866.66 953.439H872.676C872.676 954.686 872.876 955.717 873.277 956.533C874.022 958.037 875.376 958.789 877.338 958.789C878.541 958.789 879.587 958.381 880.475 957.564C881.377 956.734 881.828 955.545 881.828 953.998C881.828 951.95 880.997 950.582 879.336 949.895C878.391 949.508 876.901 949.314 874.867 949.314V944.932C876.858 944.903 878.247 944.71 879.035 944.352C880.396 943.75 881.076 942.533 881.076 940.699C881.076 939.51 880.725 938.544 880.023 937.799C879.336 937.054 878.362 936.682 877.102 936.682C875.655 936.682 874.595 937.14 873.922 938.057ZM928.6 931.332V936.939H919.125V963H912.465V936.939H902.947V931.332H928.6ZM948.773 956.125C948.616 957.514 947.893 958.925 946.604 960.357C944.598 962.635 941.791 963.773 938.182 963.773C935.202 963.773 932.574 962.814 930.297 960.895C928.02 958.975 926.881 955.853 926.881 951.527C926.881 947.474 927.905 944.366 929.953 942.203C932.016 940.04 934.687 938.959 937.967 938.959C939.915 938.959 941.669 939.324 943.23 940.055C944.792 940.785 946.081 941.938 947.098 943.514C948.014 944.903 948.609 946.514 948.881 948.348C949.038 949.422 949.103 950.969 949.074 952.988H933.047C933.133 955.337 933.87 956.984 935.26 957.93C936.105 958.517 937.122 958.811 938.311 958.811C939.571 958.811 940.595 958.452 941.383 957.736C941.812 957.35 942.192 956.812 942.521 956.125H948.773ZM942.715 948.949C942.615 947.331 942.12 946.106 941.232 945.275C940.359 944.43 939.27 944.008 937.967 944.008C936.549 944.008 935.446 944.452 934.658 945.34C933.885 946.228 933.398 947.431 933.197 948.949H942.715ZM954.102 942.117C955.72 940.055 958.499 939.023 962.438 939.023C965.001 939.023 967.279 939.532 969.27 940.549C971.26 941.566 972.256 943.485 972.256 946.307V957.049C972.256 957.794 972.27 958.696 972.299 959.756C972.342 960.558 972.464 961.102 972.664 961.389C972.865 961.675 973.165 961.911 973.566 962.098V963H966.906C966.72 962.527 966.591 962.083 966.52 961.668C966.448 961.253 966.391 960.78 966.348 960.25C965.503 961.167 964.529 961.947 963.426 962.592C962.108 963.351 960.618 963.73 958.957 963.73C956.837 963.73 955.083 963.129 953.693 961.926C952.318 960.708 951.631 958.99 951.631 956.77C951.631 953.891 952.741 951.807 954.961 950.518C956.178 949.816 957.969 949.314 960.332 949.014L962.416 948.756C963.548 948.613 964.357 948.434 964.844 948.219C965.717 947.846 966.154 947.266 966.154 946.479C966.154 945.519 965.818 944.86 965.145 944.502C964.486 944.13 963.512 943.943 962.223 943.943C960.776 943.943 959.752 944.301 959.15 945.018C958.721 945.548 958.434 946.264 958.291 947.166H952.383C952.512 945.118 953.085 943.435 954.102 942.117ZM958.656 958.574C959.229 959.047 959.931 959.283 960.762 959.283C962.079 959.283 963.29 958.896 964.393 958.123C965.51 957.35 966.09 955.939 966.133 953.891V951.613C965.746 951.857 965.352 952.057 964.951 952.215C964.564 952.358 964.027 952.494 963.34 952.623L961.965 952.881C960.676 953.11 959.752 953.389 959.193 953.719C958.248 954.277 957.775 955.144 957.775 956.318C957.775 957.364 958.069 958.116 958.656 958.574ZM990.861 946.027C990.346 944.896 989.336 944.33 987.832 944.33C986.085 944.33 984.91 944.896 984.309 946.027C983.979 946.672 983.814 947.632 983.814 948.906V963H977.605V939.625H983.557V943.041C984.316 941.824 985.032 940.957 985.705 940.441C986.894 939.525 988.434 939.066 990.324 939.066C992.115 939.066 993.561 939.46 994.664 940.248C995.552 940.979 996.225 941.917 996.684 943.062C997.486 941.688 998.481 940.678 999.67 940.033C1000.93 939.389 1002.33 939.066 1003.88 939.066C1004.91 939.066 1005.93 939.267 1006.93 939.668C1007.93 940.069 1008.84 940.771 1009.66 941.773C1010.32 942.59 1010.76 943.592 1010.99 944.781C1011.14 945.569 1011.21 946.722 1011.21 948.24L1011.16 963H1004.89V948.09C1004.89 947.202 1004.75 946.471 1004.46 945.898C1003.92 944.81 1002.91 944.266 1001.45 944.266C999.763 944.266 998.596 944.967 997.951 946.371C997.622 947.116 997.457 948.011 997.457 949.057V963H991.291V949.057C991.291 947.667 991.148 946.658 990.861 946.027ZM808.867 989.186C808.137 988.312 807.091 987.875 805.73 987.875C803.868 987.875 802.601 988.57 801.928 989.959C801.541 990.761 801.312 992.036 801.24 993.783H795.289C795.389 991.133 795.869 988.992 796.729 987.359C798.361 984.251 801.262 982.697 805.43 982.697C808.724 982.697 811.345 983.614 813.293 985.447C815.241 987.266 816.215 989.68 816.215 992.688C816.215 994.993 815.527 997.042 814.152 998.832C813.25 1000.02 811.768 1001.35 809.705 1002.81L807.256 1004.55C805.723 1005.64 804.671 1006.42 804.098 1006.91C803.539 1007.4 803.066 1007.96 802.68 1008.61H816.279V1014H794.945C795.003 1011.77 795.482 1009.72 796.385 1007.88C797.258 1005.8 799.321 1003.6 802.572 1001.28C805.394 999.262 807.22 997.815 808.051 996.941C809.326 995.581 809.963 994.091 809.963 992.473C809.963 991.155 809.598 990.059 808.867 989.186ZM830.18 1014.77C826.212 1014.77 823.426 1013.38 821.822 1010.61C820.232 1007.83 819.438 1003.87 819.438 998.725C819.438 993.583 820.232 989.615 821.822 986.822C823.426 984.029 826.212 982.633 830.18 982.633C834.147 982.633 836.933 984.029 838.537 986.822C840.127 989.615 840.922 993.583 840.922 998.725C840.922 1003.87 840.12 1007.83 838.516 1010.61C836.926 1013.38 834.147 1014.77 830.18 1014.77ZM833.768 1006.93C834.326 1005.04 834.605 1002.31 834.605 998.725C834.605 994.972 834.319 992.193 833.746 990.389C833.188 988.584 831.999 987.682 830.18 987.682C828.361 987.682 827.158 988.584 826.57 990.389C825.983 992.193 825.689 994.972 825.689 998.725C825.689 1002.31 825.983 1005.05 826.57 1006.95C827.158 1008.84 828.361 1009.79 830.18 1009.79C831.999 1009.79 833.195 1008.84 833.768 1006.93ZM857.852 989.186C857.121 988.312 856.076 987.875 854.715 987.875C852.853 987.875 851.585 988.57 850.912 989.959C850.525 990.761 850.296 992.036 850.225 993.783H844.273C844.374 991.133 844.854 988.992 845.713 987.359C847.346 984.251 850.246 982.697 854.414 982.697C857.708 982.697 860.329 983.614 862.277 985.447C864.225 987.266 865.199 989.68 865.199 992.688C865.199 994.993 864.512 997.042 863.137 998.832C862.234 1000.02 860.752 1001.35 858.689 1002.81L856.24 1004.55C854.708 1005.64 853.655 1006.42 853.082 1006.91C852.523 1007.4 852.051 1007.96 851.664 1008.61H865.264V1014H843.93C843.987 1011.77 844.467 1009.72 845.369 1007.88C846.243 1005.8 848.305 1003.6 851.557 1001.28C854.378 999.262 856.204 997.815 857.035 996.941C858.31 995.581 858.947 994.091 858.947 992.473C858.947 991.155 858.582 990.059 857.852 989.186ZM890.057 1002.51V1007.3H886.533V1014H880.539V1007.3H868.207V1001.95L879.658 983.041H886.533V1002.51H890.057ZM872.74 1002.51H880.539V989.057L872.74 1002.51ZM889.133 1014L901.4 981.365H906.492L894.182 1014H889.133ZM915.902 1014.77C911.935 1014.77 909.149 1013.38 907.545 1010.61C905.955 1007.83 905.16 1003.87 905.16 998.725C905.16 993.583 905.955 989.615 907.545 986.822C909.149 984.029 911.935 982.633 915.902 982.633C919.87 982.633 922.656 984.029 924.26 986.822C925.85 989.615 926.645 993.583 926.645 998.725C926.645 1003.87 925.842 1007.83 924.238 1010.61C922.648 1013.38 919.87 1014.77 915.902 1014.77ZM919.49 1006.93C920.049 1005.04 920.328 1002.31 920.328 998.725C920.328 994.972 920.042 992.193 919.469 990.389C918.91 988.584 917.721 987.682 915.902 987.682C914.083 987.682 912.88 988.584 912.293 990.389C911.706 992.193 911.412 994.972 911.412 998.725C911.412 1002.31 911.706 1005.05 912.293 1006.95C912.88 1008.84 914.083 1009.79 915.902 1009.79C917.721 1009.79 918.917 1008.84 919.49 1006.93ZM951.287 1002.51V1007.3H947.764V1014H941.77V1007.3H929.438V1001.95L940.889 983.041H947.764V1002.51H951.287ZM933.971 1002.51H941.77V989.057L933.971 1002.51ZM950.363 1014L962.631 981.365H967.723L955.412 1014H950.363ZM977.133 1014.77C973.165 1014.77 970.38 1013.38 968.775 1010.61C967.186 1007.83 966.391 1003.87 966.391 998.725C966.391 993.583 967.186 989.615 968.775 986.822C970.38 984.029 973.165 982.633 977.133 982.633C981.1 982.633 983.886 984.029 985.49 986.822C987.08 989.615 987.875 993.583 987.875 998.725C987.875 1003.87 987.073 1007.83 985.469 1010.61C983.879 1013.38 981.1 1014.77 977.133 1014.77ZM980.721 1006.93C981.279 1005.04 981.559 1002.31 981.559 998.725C981.559 994.972 981.272 992.193 980.699 990.389C980.141 988.584 978.952 987.682 977.133 987.682C975.314 987.682 974.111 988.584 973.523 990.389C972.936 992.193 972.643 994.972 972.643 998.725C972.643 1002.31 972.936 1005.05 973.523 1006.95C974.111 1008.84 975.314 1009.79 977.133 1009.79C978.952 1009.79 980.148 1008.84 980.721 1006.93ZM1000.94 1014.9C998.603 1014.9 996.505 1014.21 994.643 1012.84C992.781 1011.45 991.714 1009.43 991.441 1006.78H997.543C997.686 1007.7 998.073 1008.44 998.703 1009.02C999.333 1009.59 1000.17 1009.88 1001.22 1009.88C1003.24 1009.88 1004.65 1008.76 1005.47 1006.52C1005.91 1005.29 1006.19 1003.49 1006.31 1001.13C1005.75 1001.83 1005.16 1002.37 1004.53 1002.74C1003.38 1003.43 1001.97 1003.77 1000.29 1003.77C997.815 1003.77 995.617 1002.92 993.697 1001.22C991.778 999.498 990.818 997.027 990.818 993.805C990.818 990.467 991.778 987.768 993.697 985.705C995.631 983.628 998.137 982.59 1001.22 982.59C1005.96 982.59 1009.21 984.688 1010.97 988.885C1011.97 991.262 1012.47 994.392 1012.47 998.273C1012.47 1002.04 1011.99 1005.18 1011.04 1007.71C1009.2 1012.5 1005.84 1014.9 1000.94 1014.9ZM998.789 988.584C997.615 989.501 997.027 991.055 997.027 993.246C997.027 995.094 997.4 996.483 998.145 997.414C998.904 998.331 1000.06 998.789 1001.62 998.789C1002.47 998.789 1003.26 998.546 1004.01 998.059C1005.4 997.171 1006.09 995.631 1006.09 993.439C1006.09 991.678 1005.68 990.281 1004.85 989.25C1004.03 988.219 1002.91 987.703 1001.47 987.703C1000.43 987.703 999.534 987.997 998.789 988.584Z" fill="#F0F0F0"/>
</g>
<defs>
<clipPath id="clip0_604_11">
<rect width="1024" height="1024" fill="white"/>
</clipPath>
</defs>
</svg>
