<svg width="896" height="896" viewBox="0 0 896 896" fill="none" xmlns="http://www.w3.org/2000/svg">
<g style="mix-blend-mode:exclusion">
<rect width="896" height="896" rx="204" fill="#88C9EE"/>
<rect x="400" y="304" width="96" height="384" fill="#715729"/>
<path d="M160 640C160 613.49 181.49 592 208 592H688C714.51 592 736 613.49 736 640V688H160V640Z" fill="#318A37"/>
<path d="M160 688H736V736C736 762.51 714.51 784 688 784H208C181.49 784 160 762.51 160 736V688Z" fill="#79653E"/>
<path d="M256 328C256 301.49 277.49 280 304 280H592C618.51 280 640 301.49 640 328V352C640 378.51 618.51 400 592 400H304C277.49 400 256 378.51 256 352V328Z" fill="#5E9646"/>
<path d="M328 208C328 181.49 349.49 160 376 160H520C546.51 160 568 181.49 568 208V352C568 378.51 546.51 400 520 400H376C349.49 400 328 378.51 328 352V208Z" fill="#5E9646"/>
</g>
</svg>
